<svg width="88" height="111" viewBox="0 0 88 111" fill="none" xmlns="http://www.w3.org/2000/svg">
<path d="M87.9998 34.668V85.4848L44.0562 110.95V60.1327L87.9998 34.668Z" fill="#EC891D"/>
<path d="M44.0563 60.1327V110.95L0 85.4848V34.668L44.0563 60.1327Z" fill="#F78F1E"/>
<path d="M44.0563 72.5271L0 46.9497V48.6398L44.0563 74.1046L87.9999 48.6398V46.9497L44.0563 72.5271Z" fill="#FFEF98"/>
<path d="M87.9999 34.668L44.0563 60.1328L0 34.668L43.8309 9.09058L87.9999 34.668Z" fill="#F78F1E"/>
<path d="M36.7322 8.41465C35.7181 6.16113 35.6054 4.13296 36.3942 2.10479C36.6195 1.42874 36.9575 1.09071 37.4083 0.752686L13.5209 14.6118C13.0702 14.8372 12.7322 15.2879 12.5069 15.9639C11.7181 17.9921 11.8308 20.1329 12.8449 22.2738C15.0984 27.1188 21.7463 32.7526 33.3519 39.5132L57.2392 25.6541C45.6336 18.8935 38.9857 13.2597 36.7322 8.41465Z" fill="url(#paint0_linear_128_4851)"/>
<path d="M13.1831 14.1609L37.0704 0.301811C38.0845 -0.261569 39.5493 -0.0362184 41.3521 0.977865C46.5352 4.02011 53.7464 13.3722 57.5774 25.5412L33.6901 39.4004C29.8591 27.2314 22.6479 17.8793 17.4648 14.837C15.662 13.8229 14.0845 13.5976 13.1831 14.1609Z" fill="url(#paint1_linear_128_4851)"/>
<path d="M39.2113 33.9922L63.0986 20.1331C61.0704 21.2598 59.2676 23.1753 57.9155 25.9922L33.9155 39.8513C35.3803 37.0344 37.1831 35.119 39.2113 33.9922Z" fill="url(#paint2_linear_128_4851)"/>
<path d="M77.8592 32.8655C71.8874 36.3585 65.9156 39.8514 59.9438 43.3444C57.9156 44.4712 56.0001 45.7106 53.9719 46.8373C51.2677 48.4148 44.7325 46.1613 34.0283 39.9641L57.9156 26.105C68.6198 32.1895 75.155 34.443 77.8592 32.8655Z" fill="url(#paint3_linear_128_4851)"/>
<path d="M79.2112 26.6681C78.5351 23.8512 76.5069 21.2597 73.9154 19.6822C70.5351 17.7667 66.4788 17.5414 62.8731 19.5695L38.9858 33.4287C42.5915 31.4005 46.7605 31.6258 50.0281 33.5413C52.7323 35.1188 54.6478 37.5977 55.3238 40.5273C56.1126 43.6822 55.9999 45.7103 54.8732 46.8371C54.6478 47.0624 54.5351 47.1751 54.3098 47.2878C60.7323 43.5695 67.0422 39.8512 73.4647 36.1329C74.7041 35.4568 75.8309 34.7808 77.0703 33.992C77.4083 33.7667 77.859 33.5413 78.3097 33.316C78.5351 33.2033 78.7604 32.978 78.8731 32.8653C79.8872 31.7385 79.9999 29.7104 79.2112 26.6681Z" fill="url(#paint4_linear_128_4851)"/>
<path d="M55.3239 40.5273C56.1127 43.6822 56 45.7104 54.8732 46.8371C52.507 49.316 45.7465 47.1752 33.6901 40.1893C21.6338 33.2034 14.8733 27.5696 12.5071 22.3865C11.3803 20.0203 11.2677 17.7668 12.0564 15.6259C12.7324 13.5977 14.7606 13.3724 17.4648 14.8372C22.6479 17.8794 29.8592 27.2315 33.6901 39.4005C37.6338 31.7386 44.8451 30.6118 50.0282 33.6541C52.6197 35.1188 54.5352 37.7104 55.3239 40.5273ZM54.4225 46.3864C55.4366 45.3724 55.5493 43.4569 54.8732 40.5273C54.1972 37.8231 52.3944 35.5695 49.9155 34.1048C44.8451 31.1752 37.7465 32.1893 33.9155 39.9639C45.5211 46.4991 52.169 48.64 54.4225 46.3864ZM12.8451 22.2738C15.0986 27.1188 21.7465 32.7526 33.3521 39.5132C29.6338 27.4569 22.5352 18.2175 17.4648 15.2879C14.986 13.8231 13.1831 14.0484 12.5071 15.9639C11.7184 17.9921 11.831 20.1329 12.8451 22.2738Z" fill="#FBF017"/>
<defs>
<linearGradient id="paint0_linear_128_4851" x1="27.6398" y1="10.3642" x2="39.3531" y2="31.9605" gradientUnits="userSpaceOnUse">
<stop stop-color="#FBAB17"/>
<stop offset="1" stop-color="#FF6A00"/>
</linearGradient>
<linearGradient id="paint1_linear_128_4851" x1="30.863" y1="10.874" x2="47.0415" y2="35.4713" gradientUnits="userSpaceOnUse">
<stop stop-color="#FBD317"/>
<stop offset="1" stop-color="#FF6A00"/>
</linearGradient>
<linearGradient id="paint2_linear_128_4851" x1="58.0848" y1="50.0349" x2="52.0828" y2="37.4454" gradientUnits="userSpaceOnUse">
<stop stop-color="#FBAB17"/>
<stop offset="1" stop-color="#FF6A00"/>
</linearGradient>
<linearGradient id="paint3_linear_128_4851" x1="32.8848" y1="48.6544" x2="54.847" y2="36.9411" gradientUnits="userSpaceOnUse">
<stop stop-color="#FBAB17"/>
<stop offset="1" stop-color="#FF6A00"/>
</linearGradient>
<linearGradient id="paint4_linear_128_4851" x1="56.6232" y1="25.4811" x2="65.7742" y2="41.2207" gradientUnits="userSpaceOnUse">
<stop stop-color="#FBD317"/>
<stop offset="1" stop-color="#FF6A00"/>
</linearGradient>
</defs>
</svg>
