<svg width="160" height="135" viewBox="0 0 160 135" fill="none" xmlns="http://www.w3.org/2000/svg">
<path d="M62.3817 22.6061L5.2428 51.8933C4.08446 52.5118 3.5906 53.2611 3.48132 54.1104L3.60862 56.651L5.882 57.0745L92.9726 114.473C95.0662 115.853 98.5661 116.01 100.812 114.88L157.705 85.7381L159.874 86.0926L159.783 83.269L159.749 83.0929L159.785 82.8098C159.649 82.1057 159.233 81.3706 158.395 80.8187L70.2577 22.73C68.1277 21.6333 64.6278 21.4762 62.3817 22.6061Z" fill="#FFEF98"/>
<path d="M98.3121 114.079C96.066 115.209 92.5661 115.052 90.4725 113.672L2.43979 55.6526C0.346262 54.2728 0.496589 52.2222 2.74273 51.0923L59.9521 21.698C62.1982 20.5681 65.6982 20.7252 67.7917 22.105L155.929 80.1937C158.023 81.5735 157.872 83.6241 155.626 84.754L98.3121 114.079Z" fill="#F78F1E"/>
<path d="M96.6824 41.1459L67.7917 22.105C65.6982 20.7252 62.1982 20.5681 59.9521 21.698L2.74273 51.0923C0.496589 52.2222 0.346262 54.2728 2.43979 55.6526L47.3459 85.2488L96.6824 41.1459Z" fill="#F78F1E"/>
<path d="M56.7934 23.3013L2.74273 51.0923C0.496589 52.2222 0.346262 54.2728 2.43979 55.6526L34.6801 76.9012L56.7934 23.3013Z" fill="#F78F1E"/>
<path d="M155.824 80.1243L106.731 47.7685L102.313 112.109L155.626 84.7536C157.767 83.5547 157.918 81.5041 155.824 80.1243Z" fill="#F78F1E"/>
<path d="M54.7387 38.3103C53.7814 39.7426 51.9276 40.748 49.4275 41.1732C48.6175 42.3852 46.8666 43.4577 44.8223 43.864L52.9481 49.1681C53.9346 47.9131 55.7148 47.0179 57.9648 46.7459C58.922 45.3135 60.9523 44.2651 63.3788 43.9501C63.4817 44.0172 63.5553 43.9071 63.6581 43.9742L68.4925 47.1298L71.4497 45.5787C72.3765 45.076 72.5834 44.1033 71.6577 43.499L59.9318 35.845C58.6659 37.0759 56.8858 37.9711 54.7387 38.3103Z" fill="#FFEF98"/>
<path d="M58.4253 46.915L63.162 50.0074L68.155 47.4046L63.4182 44.3122C61.092 44.6949 59.3099 45.5912 58.4253 46.915Z" fill="#FFEF98"/>
<path d="M54.0238 38.0911L49.287 34.9987L44.2939 37.6016L49.0307 40.694C51.46 40.3785 53.2421 39.4822 54.0238 38.0911Z" fill="#FFEF98"/>
<path d="M58.0809 46.9406C55.9307 47.2803 54.1481 48.1769 53.3369 49.3909L56.53 51.4756C57.4571 52.0809 58.9295 52.0912 59.8577 51.5877L62.7161 49.9668L58.0809 46.9406Z" fill="#FFEF98"/>
<path d="M48.7939 40.7965L44.0615 37.7073L41.2066 39.3259C40.2795 39.8287 40.1463 40.6914 41.0722 41.2958L44.2615 43.3777C46.3062 42.9713 47.9838 42.0087 48.7939 40.7965Z" fill="#FFEF98"/>
<path d="M54.3689 38.0664C56.5195 37.7266 58.3024 36.8298 59.2167 35.6829L56.0231 33.5977C55.0959 32.9924 53.6231 32.982 52.6948 33.4856L49.7329 35.0396L54.3689 38.0664Z" fill="#FFEF98"/>
<path d="M37.9215 43.2611C38.0787 43.3647 38.0822 43.4551 37.932 43.5322L36.0976 44.4735L36.5368 44.7629C36.5983 44.8034 36.6263 44.8399 36.6208 44.8724C36.619 44.9051 36.5825 44.9397 36.5112 44.9763C36.4399 45.0129 36.3754 45.0301 36.3174 45.0281C36.2632 45.0262 36.2054 45.005 36.144 44.9645L35.7048 44.6751L35.0577 45.0071L35.4155 45.243C35.477 45.2835 35.505 45.32 35.4995 45.3525C35.4977 45.3851 35.4612 45.4198 35.3899 45.4563C35.3187 45.4929 35.2541 45.5102 35.1961 45.5081C35.1419 45.5062 35.0841 45.4851 35.0227 45.4446L33.8569 44.6762C33.7954 44.6357 33.7656 44.5991 33.7674 44.5665C33.7729 44.534 33.8113 44.4994 33.8825 44.4629C33.9538 44.4263 34.0165 44.409 34.0707 44.4108C34.1286 44.4129 34.1883 44.4341 34.2498 44.4746L34.651 44.7391L35.2981 44.407L34.0022 43.5529C33.9407 43.5124 33.9109 43.4759 33.9127 43.4432C33.9182 43.4107 33.9566 43.3761 34.0278 43.3396C34.0914 43.307 34.1457 43.2897 34.1907 43.2878L37.447 43.155C37.5465 43.1506 37.6333 43.1558 37.7073 43.1708C37.7814 43.1857 37.8528 43.2158 37.9215 43.2611ZM34.7638 43.5944L35.691 44.2054L37.1455 43.4845L34.7638 43.5944ZM40.8142 45.1676C41.0221 45.3046 41.1642 45.4446 41.2407 45.5876C41.3191 45.7295 41.3286 45.8656 41.2691 45.9957C41.2115 46.1248 41.0864 46.2388 40.8939 46.3376C40.7282 46.4226 40.5486 46.4724 40.355 46.487C40.1633 46.5006 39.9658 46.4822 39.7626 46.4318C39.8539 46.5778 39.8745 46.7166 39.8243 46.8483C39.7759 46.9812 39.6534 47.098 39.457 47.1988C39.2471 47.3066 39.0179 47.3722 38.7695 47.3959C38.5229 47.4207 38.2713 47.4005 38.0146 47.3352C37.7579 47.2699 37.513 47.1604 37.2798 47.0067C37.1027 46.89 36.9565 46.7552 36.8412 46.6025C36.726 46.4498 36.6528 46.2977 36.6217 46.1463C36.6099 46.0888 36.6309 46.0462 36.6848 46.0186C36.7233 45.9988 36.7859 45.9847 36.8725 45.9763C37.0004 45.9658 37.0932 45.9796 37.151 46.0177C37.18 46.0367 37.1982 46.0634 37.2057 46.0977C37.2306 46.2248 37.2847 46.3485 37.368 46.4688C37.4533 46.5882 37.5664 46.6944 37.7074 46.7873C37.9315 46.935 38.1581 47.0189 38.3873 47.039C38.6184 47.0582 38.8322 47.0173 39.0286 46.9165C39.227 46.8147 39.3176 46.6983 39.3004 46.5674C39.2869 46.4366 39.1735 46.3009 38.9602 46.1603L38.7623 46.0299C38.7008 45.9894 38.671 45.9528 38.6728 45.9201C38.6783 45.8876 38.7167 45.8531 38.7879 45.8165C38.8592 45.7799 38.9219 45.7626 38.9761 45.7644C39.034 45.7665 39.0937 45.7878 39.1552 45.8283L39.3043 45.9266C39.5103 46.0624 39.7129 46.1417 39.912 46.1645C40.111 46.1874 40.2992 46.1533 40.4764 46.0624C40.64 45.9784 40.7148 45.8776 40.7006 45.7598C40.6883 45.6411 40.5846 45.5175 40.3894 45.3888C40.1797 45.2506 39.9642 45.1526 39.7426 45.0946L39.5491 45.1939C39.4817 45.2285 39.4182 45.2431 39.3586 45.2377C39.299 45.2323 39.2321 45.2051 39.158 45.1563C39.0839 45.1074 39.0459 45.0655 39.0441 45.0304C39.0422 44.9953 39.075 44.9605 39.1424 44.9259L39.4573 44.7643C39.4997 44.7426 39.5388 44.7289 39.5747 44.7232C39.6124 44.7187 39.6525 44.7203 39.6952 44.7281C40.1231 44.8115 40.4961 44.958 40.8142 45.1676ZM44.2085 47.4047C44.3965 47.5286 44.524 47.6623 44.5911 47.8059C44.6619 47.9496 44.6675 48.0876 44.6079 48.2199C44.5483 48.3522 44.4309 48.4633 44.2556 48.5532C44.0996 48.6333 43.9185 48.6775 43.7121 48.686C43.5057 48.6944 43.2971 48.6743 43.0863 48.6257C43.1735 48.778 43.1955 48.9246 43.1523 49.0654C43.109 49.2062 42.9931 49.3251 42.8043 49.4219C42.606 49.5237 42.379 49.584 42.1233 49.6029C41.8696 49.6208 41.6135 49.5976 41.3548 49.5333C41.0962 49.4689 40.8621 49.3677 40.6525 49.2295C40.4428 49.0913 40.2992 48.9436 40.2216 48.7864C40.144 48.6291 40.1363 48.4784 40.1984 48.3343C40.2625 48.1891 40.3937 48.0656 40.5921 47.9639C40.7808 47.867 40.998 47.8149 41.2436 47.8075C41.4893 47.8001 41.7357 47.8304 41.9829 47.8985C41.9262 47.7708 41.9179 47.648 41.958 47.5299C41.9999 47.4131 42.0988 47.3146 42.2548 47.2346C42.4301 47.1446 42.6343 47.0907 42.8674 47.0728C43.1005 47.0549 43.3344 47.0747 43.569 47.1322C43.8074 47.19 44.0206 47.2808 44.2085 47.4047ZM43.781 47.6241C43.6689 47.5503 43.5465 47.4955 43.4136 47.4599C43.2845 47.4244 43.1542 47.4108 43.0227 47.4189C42.8912 47.4271 42.7715 47.4588 42.6637 47.5142C42.5655 47.5646 42.5012 47.6272 42.4709 47.7021C42.4407 47.7769 42.4467 47.8554 42.489 47.9375C42.5332 48.0208 42.6095 48.0981 42.7179 48.1696C42.8264 48.2411 42.948 48.2942 43.0828 48.3288C43.2194 48.3646 43.3534 48.3785 43.4849 48.3703C43.6164 48.3622 43.7312 48.3329 43.8295 48.2825C43.9373 48.2272 44.0064 48.1621 44.0367 48.0872C44.0669 48.0124 44.059 47.9349 44.0128 47.8548C43.9703 47.7749 43.8931 47.698 43.781 47.6241ZM42.3164 48.3757C42.1844 48.2887 42.0419 48.2252 41.8887 48.1852C41.7354 48.1452 41.5827 48.1303 41.4305 48.1406C41.2821 48.1511 41.1481 48.187 41.0287 48.2483C40.9093 48.3095 40.8305 48.3829 40.7921 48.4682C40.7556 48.5547 40.761 48.6452 40.8083 48.7396C40.8575 48.833 40.9481 48.9231 41.08 49.0101C41.2119 49.0971 41.3545 49.1606 41.5077 49.2006C41.6629 49.2396 41.8156 49.2534 41.966 49.2419C42.1182 49.2316 42.254 49.1958 42.3734 49.1345C42.4928 49.0733 42.5698 48.9998 42.6044 48.9143C42.6428 48.8289 42.6373 48.7396 42.5881 48.6462C42.5389 48.5528 42.4483 48.4626 42.3164 48.3757ZM47.9092 49.8437C48.0665 49.9474 48.07 50.0377 47.9197 50.1148L46.0854 51.0561L46.5246 51.3456C46.586 51.3861 46.614 51.4225 46.6085 51.455C46.6067 51.4877 46.5702 51.5224 46.4989 51.5589C46.4277 51.5955 46.3631 51.6127 46.3052 51.6107C46.251 51.6088 46.1932 51.5877 46.1317 51.5472L45.6925 51.2577L45.0454 51.5897L45.4033 51.8256C45.4647 51.8661 45.4927 51.9026 45.4872 51.9351C45.4854 51.9678 45.4489 52.0024 45.3776 52.039C45.3064 52.0755 45.2418 52.0928 45.1839 52.0907C45.1297 52.0889 45.0719 52.0677 45.0104 52.0272L43.8446 51.2589C43.7832 51.2184 43.7533 51.1818 43.7551 51.1491C43.7606 51.1166 43.799 51.0821 43.8703 51.0455C43.9415 51.0089 44.0042 50.9916 44.0584 50.9934C44.1164 50.9955 44.1761 51.0168 44.2375 51.0573L44.6387 51.3217L45.2858 50.9897L43.9899 50.1356C43.9285 50.0951 43.8986 50.0585 43.9004 50.0258C43.9059 49.9933 43.9443 49.9588 44.0156 49.9222C44.0791 49.8896 44.1334 49.8723 44.1784 49.8704L47.4348 49.7376C47.5342 49.7332 47.621 49.7384 47.6951 49.7534C47.7691 49.7684 47.8405 49.7985 47.9092 49.8437ZM44.7515 50.177L45.6787 50.7881L47.1332 50.0671L44.7515 50.177ZM54.1963 53.9873C54.4276 54.1398 54.5559 54.3113 54.5811 54.5017C54.6101 54.6924 54.5367 54.8879 54.3611 55.0882C54.1892 55.2887 53.9261 55.4798 53.5717 55.6617C53.2174 55.8435 52.8584 55.9715 52.495 56.0457C52.1333 56.1212 51.7915 56.1397 51.4697 56.1015C51.1499 56.0622 50.8733 55.9658 50.6402 55.8121C50.407 55.6584 50.2769 55.4869 50.2497 55.2974C50.2245 55.107 50.2979 54.9115 50.4698 54.711C50.6435 54.5117 50.9075 54.3211 51.2619 54.1393C51.6162 53.9575 51.9742 53.8288 52.3359 53.7534C52.7013 53.6782 53.044 53.6602 53.3638 53.6995C53.6874 53.7389 53.9649 53.8349 54.1963 53.9873ZM53.7687 54.2067C53.626 54.1126 53.4455 54.0569 53.2274 54.0396C53.013 54.0225 52.7731 54.046 52.5075 54.1103C52.2438 54.1735 51.9714 54.2773 51.6902 54.4216C51.409 54.5659 51.1971 54.7107 51.0544 54.8559C50.9137 55.0002 50.8445 55.1352 50.8471 55.261C50.8514 55.3881 50.9249 55.4986 51.0677 55.5927C51.2105 55.6868 51.3891 55.7424 51.6035 55.7596C51.8196 55.7779 52.0596 55.7554 52.3232 55.6921C52.5888 55.6279 52.8622 55.5236 53.1434 55.3793C53.4245 55.2351 53.6355 55.0908 53.7763 54.9465C53.919 54.8013 53.9881 54.6651 53.9838 54.5381C53.9832 54.4113 53.9115 54.3008 53.7687 54.2067ZM57.4333 56.1208C57.643 56.259 57.786 56.4006 57.8624 56.5458C57.9425 56.6911 57.9498 56.8314 57.8844 56.9667C57.819 57.1019 57.6814 57.2234 57.4715 57.3311C57.275 57.4319 57.0479 57.4944 56.7901 57.5187C56.536 57.5431 56.2074 57.5455 55.804 57.5257L53.908 57.4308L55.0847 58.2063L55.4487 58.0195C55.5161 57.9849 55.5796 57.9704 55.6392 57.9758C55.6988 57.9812 55.7657 58.0083 55.8398 58.0572C55.9139 58.106 55.9518 58.148 55.9537 58.1831C55.9555 58.2181 55.9227 58.253 55.8553 58.2875L55.2949 58.5751C55.2236 58.6117 55.159 58.6289 55.1011 58.6269C55.0469 58.625 54.9891 58.6039 54.9277 58.5634L53.0461 57.3233C52.9847 57.2828 52.9549 57.2462 52.9566 57.2135C52.9621 57.181 53.0005 57.1465 53.0718 57.1099C53.145 57.0724 53.2105 57.0546 53.2684 57.0567L55.7497 57.1818C56.097 57.1985 56.3638 57.1982 56.5501 57.181C56.7401 57.164 56.9045 57.12 57.0431 57.0488C57.2222 56.9569 57.3095 56.8485 57.3051 56.7237C57.3044 56.5991 57.2055 56.4718 57.0085 56.342C56.8097 56.2109 56.5687 56.1153 56.2855 56.0551L55.9678 56.2182C55.9004 56.2528 55.8369 56.2673 55.7773 56.2619C55.7176 56.2565 55.6508 56.2294 55.5767 56.1805C55.5026 56.1317 55.4646 56.0897 55.4628 56.0546C55.4609 56.0196 55.4937 55.9847 55.5611 55.9502L55.9858 55.7322C56.0609 55.6937 56.1346 55.6802 56.207 55.6918C56.441 55.7264 56.6628 55.78 56.8722 55.8526C57.0836 55.9242 57.2707 56.0136 57.4333 56.1208ZM60.8548 58.3758C61.0861 58.5282 61.2144 58.6997 61.2396 58.8901C61.2686 59.0808 61.1952 59.2763 61.0196 59.4766C60.8477 59.6771 60.5846 59.8682 60.2302 60.0501C59.8759 60.2319 59.5169 60.3599 59.1535 60.4342C58.7918 60.5096 58.45 60.5282 58.1282 60.4899C57.8084 60.4506 57.5318 60.3542 57.2987 60.2005C57.0655 60.0469 56.9354 59.8753 56.9082 59.6858C56.883 59.4954 56.9564 59.2999 57.1283 59.0994C57.302 58.9001 57.566 58.7095 57.9203 58.5277C58.2747 58.3459 58.6327 58.2172 58.9944 58.1418C59.3598 58.0666 59.7025 58.0486 60.0223 58.0879C60.3459 58.1273 60.6234 58.2233 60.8548 58.3758ZM60.4272 58.5951C60.2844 58.501 60.104 58.4453 59.8859 58.428C59.6715 58.4109 59.4316 58.4344 59.166 58.4987C58.9023 58.562 58.6299 58.6657 58.3487 58.81C58.0675 58.9543 57.8556 59.0991 57.7129 59.2443C57.5721 59.3886 57.503 59.5236 57.5056 59.6495C57.5099 59.7765 57.5834 59.887 57.7262 59.9811C57.869 60.0752 58.0476 60.1309 58.262 60.148C58.4781 60.1663 58.718 60.1438 58.9817 60.0805C59.2473 60.0163 59.5207 59.912 59.8019 59.7677C60.083 59.6235 60.294 59.4792 60.4348 59.3349C60.5775 59.1897 60.6466 59.0535 60.6423 58.9265C60.6417 58.7997 60.57 58.6893 60.4272 58.5951ZM64.184 60.57C64.4154 60.7224 64.5436 60.8939 64.5689 61.0844C64.5978 61.275 64.5245 61.4705 64.3488 61.6708C64.1769 61.8713 63.9138 62.0624 63.5595 62.2443C63.2051 62.4261 62.8462 62.5541 62.4827 62.6284C62.121 62.7038 61.7793 62.7224 61.4575 62.6841C61.1376 62.6449 60.8611 62.5484 60.6279 62.3947C60.3948 62.2411 60.2646 62.0695 60.2375 61.88C60.2123 61.6896 60.2856 61.4941 60.4575 61.2936C60.6312 61.0943 60.8952 60.9037 61.2496 60.7219C61.604 60.5401 61.962 60.4114 62.3236 60.336C62.6891 60.2608 63.0317 60.2428 63.3516 60.2821C63.6752 60.3215 63.9527 60.4175 64.184 60.57ZM63.7565 60.7894C63.6137 60.6952 63.4332 60.6395 63.2151 60.6222C63.0008 60.6051 62.7608 60.6287 62.4952 60.6929C62.2315 60.7562 61.9591 60.8599 61.6779 61.0042C61.3968 61.1485 61.1848 61.2933 61.0422 61.4385C60.9014 61.5828 60.8323 61.7178 60.8348 61.8437C60.8391 61.9707 60.9127 62.0812 61.0555 62.1753C61.1983 62.2694 61.3768 62.3251 61.5912 62.3422C61.8074 62.3605 62.0473 62.338 62.311 62.2748C62.5765 62.2105 62.8499 62.1062 63.1311 61.962C63.4123 61.8177 63.6232 61.6734 63.764 61.5291C63.9067 61.3839 63.9759 61.2477 63.9715 61.1207C63.971 60.9939 63.8993 60.8835 63.7565 60.7894ZM68.7188 67.1922C68.7803 67.2327 68.8083 67.2692 68.8028 67.3017C68.801 67.3344 68.7645 67.369 68.6932 67.4056C68.622 67.4421 68.5574 67.4594 68.4994 67.4573C68.4452 67.4555 68.3874 67.4343 68.326 67.3938L66.4987 66.1895C66.4372 66.149 66.4074 66.1124 66.4092 66.0797C66.4147 66.0472 66.4531 66.0127 66.5243 65.9761C66.5956 65.9395 66.6583 65.9222 66.7125 65.924C66.7704 65.9261 66.8301 65.9474 66.8916 65.9879L67.6208 66.4685L70.0994 65.1967L68.9766 64.9815C68.9266 64.9712 68.889 64.9576 68.8637 64.941C68.8058 64.9028 68.7956 64.8498 68.833 64.7819C68.8539 64.7415 68.8855 64.7104 68.9279 64.6887C68.9934 64.6551 69.0715 64.6479 69.1622 64.667L70.8545 64.9967C70.9137 65.0087 70.9614 65.0266 70.9976 65.0504C71.0373 65.0766 71.0554 65.1055 71.0518 65.137C71.052 65.1687 71.027 65.1974 70.977 65.2231L68.0275 66.7365L68.7188 67.1922ZM74.0796 67.0918C74.2892 67.23 74.4322 67.3717 74.5086 67.5168C74.5887 67.6622 74.596 67.8025 74.5307 67.9377C74.4653 68.0729 74.3276 68.1944 74.1177 68.3021C73.9213 68.4029 73.6941 68.4655 73.4363 68.4897C73.1823 68.5141 72.8536 68.5165 72.4503 68.4967L70.5543 68.4019L71.7309 69.1773L72.0949 68.9906C72.1623 68.956 72.2258 68.9414 72.2854 68.9468C72.345 68.9522 72.4119 68.9794 72.486 69.0282C72.5601 69.0771 72.5981 69.119 72.5999 69.1541C72.6017 69.1892 72.569 69.224 72.5015 69.2586L71.9411 69.5462C71.8699 69.5827 71.8053 69.6 71.7474 69.5979C71.6932 69.5961 71.6353 69.5749 71.5739 69.5344L69.6924 68.2943C69.6309 68.2538 69.6011 68.2172 69.6029 68.1845C69.6084 68.1521 69.6468 68.1175 69.718 68.081C69.7912 68.0434 69.8567 68.0257 69.9147 68.0277L72.396 68.1528C72.7433 68.1695 73.0101 68.1692 73.1963 68.152C73.3863 68.1351 73.5507 68.091 73.6893 68.0198C73.8684 67.9279 73.9558 67.8196 73.9513 67.6947C73.9506 67.5701 73.8518 67.4428 73.6547 67.313C73.4559 67.182 73.2149 67.0864 72.9318 67.0261L72.614 67.1892C72.5466 67.2238 72.4831 67.2384 72.4235 67.2329C72.3639 67.2275 72.297 67.2004 72.2229 67.1515C72.1488 67.1027 72.1108 67.0607 72.109 67.0257C72.1072 66.9906 72.1399 66.9558 72.2073 66.9212L72.632 66.7033C72.7071 66.6647 72.7808 66.6513 72.8532 66.6628C73.0872 66.6974 73.309 66.751 73.5185 66.8236C73.7299 66.8952 73.9169 66.9846 74.0796 67.0918ZM77.4359 69.3039C77.6438 69.4409 77.7859 69.5809 77.8624 69.7238C77.9408 69.8658 77.9503 70.0018 77.8908 70.132C77.8332 70.2611 77.7082 70.375 77.5156 70.4739C77.3499 70.5588 77.1703 70.6086 76.9767 70.6233C76.785 70.6369 76.5876 70.6185 76.3844 70.5681C76.4756 70.714 76.4962 70.8529 76.446 70.9846C76.3976 71.1175 76.2751 71.2343 76.0787 71.3351C75.8688 71.4428 75.6396 71.5085 75.3912 71.5322C75.1446 71.557 74.893 71.5368 74.6363 71.4715C74.3796 71.4061 74.1347 71.2966 73.9015 71.143C73.7244 71.0262 73.5782 70.8915 73.463 70.7388C73.3477 70.5861 73.2745 70.434 73.2434 70.2826C73.2316 70.2251 73.2526 70.1825 73.3065 70.1548C73.3451 70.1351 73.4076 70.121 73.4942 70.1126C73.6221 70.102 73.7149 70.1158 73.7728 70.154C73.8017 70.173 73.8199 70.1997 73.8274 70.234C73.8523 70.361 73.9064 70.4847 73.9897 70.6051C74.075 70.7245 74.1881 70.8307 74.3291 70.9236C74.5532 71.0713 74.7798 71.1552 75.009 71.1753C75.2401 71.1944 75.4539 71.1536 75.6503 71.0528C75.8487 70.951 75.9393 70.8346 75.9221 70.7036C75.9086 70.5728 75.7952 70.4372 75.5819 70.2966L75.384 70.1662C75.3226 70.1257 75.2927 70.0891 75.2945 70.0564C75.3 70.0239 75.3384 69.9893 75.4096 69.9528C75.4809 69.9162 75.5436 69.8989 75.5978 69.9007C75.6557 69.9028 75.7154 69.9241 75.7769 69.9646L75.926 70.0628C76.132 70.1986 76.3346 70.2779 76.5337 70.3008C76.7328 70.3236 76.9209 70.2896 77.0981 70.1987C77.2618 70.1147 77.3365 70.0138 77.3223 69.8961C77.31 69.7774 77.2063 69.6537 77.0111 69.5251C76.8014 69.3869 76.5859 69.2888 76.3644 69.2309L76.1708 69.3302C76.1034 69.3648 76.0399 69.3794 75.9803 69.3739C75.9207 69.3685 75.8538 69.3414 75.7797 69.2925C75.7056 69.2437 75.6676 69.2018 75.6658 69.1667C75.6639 69.1316 75.6967 69.0968 75.7641 69.0622L76.079 68.9006C76.1214 68.8789 76.1605 68.8652 76.1964 68.8595C76.2341 68.8549 76.2742 68.8566 76.3169 68.8644C76.7448 68.9477 77.1178 69.0943 77.4359 69.3039ZM81.2017 71.7858C81.3589 71.8894 81.3624 71.9798 81.2122 72.0569L79.3778 72.9982L79.817 73.2876C79.8785 73.3281 79.9065 73.3646 79.9009 73.3971C79.8992 73.4298 79.8627 73.4644 79.7914 73.501C79.7201 73.5376 79.6556 73.5548 79.5976 73.5527C79.5434 73.5509 79.4856 73.5297 79.4242 73.4892L78.985 73.1998L78.3379 73.5318L78.6957 73.7677C78.7572 73.8082 78.7852 73.8447 78.7797 73.8771C78.7779 73.9098 78.7414 73.9445 78.6701 73.981C78.5988 74.0176 78.5343 74.0348 78.4763 74.0328C78.4221 74.0309 78.3643 74.0098 78.3029 73.9693L77.1371 73.2009C77.0756 73.1604 77.0458 73.1238 77.0476 73.0911C77.0531 73.0586 77.0915 73.0241 77.1627 72.9876C77.234 72.951 77.2967 72.9336 77.3509 72.9355C77.4088 72.9375 77.4685 72.9588 77.53 72.9993L77.9312 73.2638L78.5783 72.9317L77.2824 72.0776C77.2209 72.0371 77.1911 72.0005 77.1929 71.9678C77.1984 71.9354 77.2368 71.9008 77.308 71.8643C77.3716 71.8317 77.4259 71.8144 77.4709 71.8125L80.7272 71.6797C80.8267 71.6752 80.9135 71.6805 80.9875 71.6955C81.0616 71.7104 81.133 71.7405 81.2017 71.7858ZM78.044 72.119L78.9712 72.7301L80.4257 72.0092L78.044 72.119ZM88.1599 76.4462C88.2213 76.4868 88.2493 76.5232 88.2438 76.5557C88.242 76.5884 88.2055 76.6231 88.1343 76.6596C88.063 76.6962 87.9984 76.7134 87.9405 76.7114C87.8863 76.7095 87.8285 76.6883 87.767 76.6478L86.5036 75.8152L85.5411 76.2678C85.8297 76.3316 86.0779 76.432 86.2858 76.5689C86.5026 76.7119 86.6415 76.861 86.7023 77.0162C86.7632 77.1714 86.7475 77.3214 86.6554 77.4661C86.567 77.6111 86.4102 77.7413 86.1849 77.857C85.9595 77.9726 85.7103 78.0454 85.4373 78.0753C85.1661 78.1043 84.8927 78.0878 84.6171 78.0258C84.3416 77.9638 84.0899 77.8578 83.8622 77.7077C83.6887 77.5934 83.545 77.4626 83.4314 77.3154C83.3177 77.1683 83.2424 77.0204 83.2055 76.872C83.1899 76.8143 83.211 76.7706 83.2688 76.741C83.3112 76.7193 83.3719 76.7051 83.4508 76.6984C83.5807 76.6869 83.6745 76.7002 83.7323 76.7383C83.7612 76.7574 83.7794 76.7841 83.7869 76.8183C83.8158 76.9412 83.873 77.0613 83.9583 77.1785C84.0437 77.2957 84.1541 77.399 84.2897 77.4883C84.4361 77.5848 84.5943 77.653 84.7644 77.6928C84.9364 77.7317 85.1063 77.7409 85.274 77.7205C85.4455 77.7004 85.6063 77.6517 85.7565 77.5746C85.899 77.5015 85.9981 77.4189 86.0536 77.3268C86.111 77.236 86.1199 77.1414 86.0803 77.043C86.0425 76.9459 85.9567 76.8533 85.823 76.7651C85.7001 76.6841 85.5725 76.6203 85.4402 76.5738C85.3099 76.5263 85.164 76.4899 85.0025 76.4647C84.9543 76.4556 84.8995 76.4307 84.838 76.3902C84.7621 76.3402 84.7223 76.2971 84.7187 76.2608C84.7168 76.2257 84.7514 76.1921 84.8224 76.1599L86.3211 75.4544C86.3921 75.4222 86.4565 75.4082 86.5143 75.4125C86.5721 75.4167 86.6381 75.4433 86.7122 75.4921L88.1599 76.4462ZM91.6394 78.665C91.6902 78.6962 91.7108 78.7301 91.7013 78.7668C91.6936 78.8046 91.6407 78.8487 91.5425 78.8991C91.4828 78.9297 91.4304 78.946 91.3854 78.9479C91.3441 78.9501 91.3062 78.9409 91.2717 78.9204C90.764 78.6174 90.2615 78.442 89.7642 78.3942C89.2689 78.3454 88.7918 78.4091 88.3329 78.5852C88.5578 78.58 88.7746 78.6043 88.9832 78.6583C89.1919 78.7123 89.3739 78.7905 89.5293 78.8929C89.7281 79.024 89.8618 79.1651 89.9304 79.3164C90.0007 79.4689 89.9982 79.6174 89.923 79.7619C89.8495 79.9076 89.705 80.0359 89.4893 80.1465C89.2813 80.2533 89.0484 80.3187 88.7906 80.343C88.5347 80.3662 88.2756 80.3456 88.0133 80.281C87.7527 80.2177 87.5131 80.114 87.2944 79.9698C87.0974 79.84 86.9639 79.6956 86.8939 79.5366C86.8258 79.3787 86.8325 79.2195 86.9143 79.059C87.0293 78.8368 87.2862 78.6234 87.6848 78.4189C88.018 78.2479 88.3988 78.1298 88.8274 78.0646C89.2577 78.0005 89.7157 78.0134 90.2013 78.1032C90.6906 78.1932 91.17 78.3805 91.6394 78.665ZM89.0421 79.073C88.9102 78.986 88.7649 78.9219 88.6061 78.8804C88.4493 78.838 88.2939 78.8214 88.1398 78.8305C87.9896 78.8398 87.8538 78.8756 87.7324 78.9379C87.5976 79.007 87.5053 79.0873 87.4554 79.1785C87.4073 79.271 87.4049 79.3665 87.4482 79.465C87.4934 79.5648 87.5846 79.6599 87.722 79.7504C87.8593 79.841 88.0065 79.9063 88.1634 79.9466C88.3204 79.9868 88.476 80.0002 88.6302 79.9867C88.7864 79.9722 88.93 79.9314 89.0609 79.8642C89.1938 79.796 89.2823 79.7178 89.3264 79.6295C89.3723 79.5423 89.3708 79.451 89.3217 79.3554C89.2763 79.2601 89.1831 79.1659 89.0421 79.073ZM95.038 80.9794C95.0994 81.0199 95.1274 81.0564 95.1219 81.0889C95.1201 81.1216 95.0836 81.1562 95.0123 81.1928C94.9661 81.2165 94.9222 81.2327 94.8805 81.2413L90.6779 82.044C90.6174 82.056 90.5584 82.0556 90.5011 82.0426C90.4436 82.0318 90.3905 82.0104 90.3417 81.9782C90.2767 81.9353 90.2378 81.8928 90.2251 81.8505C90.2123 81.8105 90.229 81.7786 90.2752 81.7549C90.3022 81.7411 90.3308 81.7317 90.361 81.7268L94.3388 80.9791L93.0537 80.1321L92.6319 80.3486C92.5645 80.3831 92.501 80.3977 92.4414 80.3923C92.3818 80.3869 92.3149 80.3597 92.2408 80.3109C92.1667 80.2621 92.1287 80.2201 92.1269 80.185C92.1251 80.15 92.1579 80.1151 92.2253 80.0805L92.8435 79.7633C92.9147 79.7267 92.9774 79.7094 93.0316 79.7112C93.0896 79.7133 93.1492 79.7346 93.2107 79.7751L95.038 80.9794ZM97.4765 82.512C97.6644 82.6359 97.792 82.7696 97.8591 82.9132C97.9299 83.0569 97.9355 83.1949 97.8759 83.3272C97.8163 83.4595 97.6988 83.5706 97.5236 83.6605C97.3676 83.7406 97.1864 83.7848 96.98 83.7933C96.7736 83.8017 96.565 83.7816 96.3542 83.733C96.4414 83.8853 96.4634 84.0319 96.4202 84.1727C96.377 84.3135 96.261 84.4324 96.0723 84.5292C95.8739 84.631 95.6469 84.6913 95.3913 84.7102C95.1375 84.7281 94.8814 84.7049 94.6228 84.6406C94.3642 84.5762 94.13 84.475 93.9204 84.3368C93.7107 84.1986 93.5671 84.0509 93.4895 83.8937C93.412 83.7364 93.4042 83.5857 93.4664 83.4416C93.5304 83.2964 93.6616 83.173 93.86 83.0712C94.0487 82.9743 94.2659 82.9222 94.5116 82.9148C94.7572 82.9074 95.0036 82.9377 95.2508 83.0058C95.1941 82.8781 95.1858 82.7553 95.2259 82.6372C95.2678 82.5204 95.3668 82.4219 95.5228 82.3419C95.698 82.2519 95.9022 82.198 96.1353 82.1801C96.3685 82.1622 96.6023 82.182 96.837 82.2395C97.0753 82.2973 97.2885 82.3881 97.4765 82.512ZM97.0489 82.7314C96.9369 82.6576 96.8144 82.6028 96.6816 82.5672C96.5524 82.5317 96.4221 82.5181 96.2906 82.5262C96.1591 82.5344 96.0395 82.5661 95.9316 82.6215C95.8334 82.6719 95.7692 82.7345 95.7389 82.8094C95.7086 82.8842 95.7146 82.9627 95.757 83.0448C95.8011 83.1281 95.8774 83.2054 95.9859 83.2769C96.0943 83.3484 96.2159 83.4015 96.3507 83.4361C96.4873 83.4719 96.6213 83.4858 96.7528 83.4776C96.8843 83.4695 96.9992 83.4402 97.0974 83.3898C97.2052 83.3345 97.2743 83.2694 97.3046 83.1945C97.3349 83.1197 97.3269 83.0422 97.2807 82.9621C97.2383 82.8822 97.161 82.8053 97.0489 82.7314ZM95.5843 83.483C95.4524 83.396 95.3098 83.3325 95.1566 83.2925C95.0034 83.2525 94.8507 83.2376 94.6985 83.2479C94.55 83.2584 94.4161 83.2943 94.2967 83.3556C94.1773 83.4168 94.0984 83.4902 94.06 83.5755C94.0235 83.662 94.0289 83.7525 94.0762 83.8469C94.1254 83.9403 94.216 84.0304 94.3479 84.1174C94.4799 84.2044 94.6224 84.2679 94.7757 84.3079C94.9308 84.3469 95.0836 84.3607 95.234 84.3492C95.3862 84.3389 95.522 84.3031 95.6414 84.2418C95.7608 84.1806 95.8378 84.1071 95.8724 84.0216C95.9107 83.9362 95.9053 83.8469 95.8561 83.7535C95.8068 83.6601 95.7163 83.5699 95.5843 83.483Z" fill="white"/>
<path d="M19.2418 52.3436C19.2858 52.3726 19.3083 52.3975 19.3094 52.4183C19.3105 52.4391 19.2911 52.4598 19.2511 52.4803L18.6853 52.7706C18.6453 52.7912 18.6076 52.7998 18.5723 52.7966C18.5369 52.7934 18.4972 52.7773 18.4532 52.7483C18.4093 52.7193 18.3867 52.6944 18.3856 52.6736C18.3845 52.6528 18.404 52.6321 18.444 52.6116C18.5217 52.5717 18.5759 52.5244 18.6067 52.4696C18.6385 52.4156 18.6395 52.3566 18.6096 52.2927C18.5809 52.2282 18.5167 52.1631 18.4169 52.0974C18.3011 52.021 18.1656 51.9699 18.0103 51.9439C17.8562 51.9187 17.6933 51.9205 17.5217 51.9495C17.3512 51.9791 17.1849 52.0356 17.0226 52.1189C16.8603 52.2021 16.7422 52.2904 16.6682 52.3837C16.5954 52.4764 16.5699 52.5681 16.5916 52.6587C16.6133 52.7494 16.6821 52.833 16.798 52.9093C16.9041 52.9793 17.0221 53.0376 17.1518 53.0842C17.2814 53.1308 17.4163 53.1634 17.5564 53.1821C17.5906 53.1859 17.6185 53.1949 17.6399 53.209C17.6721 53.2302 17.6782 53.2604 17.6583 53.2995C17.6434 53.3298 17.6227 53.3517 17.5964 53.3652C17.5622 53.3828 17.5158 53.3871 17.4574 53.3781C17.2834 53.3505 17.1185 53.3075 16.9628 53.249C16.8082 53.1913 16.6687 53.1215 16.5442 53.0395C16.3769 52.9292 16.2739 52.8104 16.2353 52.6832C16.1989 52.556 16.2258 52.429 16.316 52.3023C16.4073 52.1762 16.5581 52.0592 16.7684 51.9513C16.9775 51.844 17.1964 51.7726 17.425 51.737C17.6547 51.7008 17.8763 51.7015 18.0898 51.7391C18.3044 51.7773 18.4926 51.8499 18.6546 51.9566C18.7554 52.023 18.8267 52.0915 18.8684 52.1618C18.9101 52.2322 18.9241 52.3024 18.9103 52.3723L19.0097 52.3213C19.0497 52.3008 19.0874 52.2921 19.1228 52.2953C19.1582 52.2985 19.1979 52.3147 19.2418 52.3436ZM20.5981 53.2375C20.7655 53.3478 20.8689 53.4676 20.9086 53.5969C20.9493 53.7269 20.9245 53.8559 20.8342 53.9839C20.7461 54.1121 20.5975 54.2299 20.3884 54.3372C20.1792 54.4445 19.9593 54.5159 19.7285 54.5513C19.4999 54.5869 19.2772 54.5849 19.0605 54.5452C18.846 54.5056 18.6551 54.4307 18.4878 54.3204C18.3205 54.2102 18.2159 54.0903 18.174 53.9609C18.1344 53.8316 18.1586 53.7029 18.2467 53.5747C18.337 53.4467 18.4867 53.329 18.6958 53.2217C18.905 53.1143 19.1238 53.0429 19.3524 53.0073C19.5832 52.9719 19.8064 52.9736 20.0221 53.0126C20.2388 53.0523 20.4308 53.1273 20.5981 53.2375ZM20.3444 53.3677C20.2264 53.29 20.0898 53.2381 19.9346 53.2122C19.7804 53.1869 19.6181 53.1891 19.4476 53.2188C19.2782 53.2491 19.1123 53.3059 18.95 53.3892C18.7877 53.4725 18.6702 53.5611 18.5973 53.6551C18.5266 53.7492 18.5032 53.8423 18.5271 53.9344C18.5521 54.0272 18.6235 54.1125 18.7415 54.1902C18.8595 54.268 18.9956 54.3195 19.1497 54.3447C19.305 54.3707 19.4667 54.3688 19.635 54.339C19.8055 54.3094 19.9719 54.2529 20.1342 54.1696C20.2965 54.0864 20.4135 53.9974 20.4853 53.9027C20.5582 53.8087 20.5822 53.7153 20.5572 53.6225C20.5333 53.5304 20.4624 53.4455 20.3444 53.3677ZM22.6697 54.647C22.7062 54.6711 22.7228 54.6927 22.7195 54.712C22.7184 54.7314 22.6968 54.752 22.6545 54.7737C22.6122 54.7954 22.5739 54.8056 22.5395 54.8044C22.5073 54.8033 22.473 54.7907 22.4365 54.7667L22.0472 54.5101L20.4786 55.315L21.275 55.8399L21.839 55.5505C21.879 55.5299 21.9167 55.5213 21.9521 55.5245C21.9874 55.5277 22.0271 55.5438 22.0711 55.5728C22.1151 55.6018 22.1376 55.6267 22.1387 55.6475C22.1398 55.6683 22.1203 55.689 22.0803 55.7095L21.3997 56.0587C21.3574 56.0804 21.3191 56.0907 21.2847 56.0895C21.2526 56.0884 21.2183 56.0758 21.1818 56.0518L19.7434 55.1038C19.707 55.0797 19.6893 55.058 19.6903 55.0386C19.6936 55.0193 19.7164 54.9989 19.7587 54.9772C19.8009 54.9555 19.8382 54.9452 19.8703 54.9463C19.9047 54.9475 19.9401 54.9601 19.9766 54.9841L20.2372 55.1559L21.8058 54.351L21.5452 54.1792C21.5087 54.1552 21.491 54.1335 21.4921 54.1141C21.4954 54.0948 21.5181 54.0743 21.5604 54.0526C21.6027 54.0309 21.6399 54.0206 21.6721 54.0217C21.7065 54.0229 21.7419 54.0356 21.7784 54.0596L22.6697 54.647ZM23.8754 56.9629C23.9194 56.9919 23.9419 57.0168 23.943 57.0376C23.9441 57.0584 23.9246 57.0791 23.8846 57.0996L23.3755 57.3609C23.3332 57.3826 23.2948 57.3928 23.2605 57.3916C23.2283 57.3905 23.194 57.3779 23.1575 57.3539L21.7192 56.4059C21.6827 56.3819 21.665 56.3602 21.666 56.3408C21.6693 56.3215 21.6921 56.301 21.7344 56.2793C21.7767 56.2576 21.8139 56.2473 21.8461 56.2484C21.8804 56.2496 21.9158 56.2623 21.9523 56.2863L22.1164 56.3944L23.685 55.5895L23.5209 55.4814C23.4845 55.4573 23.4668 55.4356 23.4678 55.4162C23.4711 55.3969 23.4939 55.3765 23.5361 55.3548C23.5784 55.3331 23.6157 55.3228 23.6478 55.3239C23.6822 55.3251 23.7176 55.3377 23.7541 55.3617L25.1603 56.2885C25.1967 56.3125 25.2133 56.3342 25.2101 56.3535C25.209 56.3729 25.1873 56.3934 25.145 56.4151L24.7096 56.6386C24.6696 56.6591 24.6319 56.6677 24.5965 56.6645C24.5612 56.6613 24.5215 56.6452 24.4775 56.6162C24.4335 56.5872 24.411 56.5623 24.4099 56.5415C24.4088 56.5207 24.4283 56.5 24.4683 56.4795L24.7871 56.3159L23.9264 55.7486L23.2904 56.075L23.7055 56.3485L23.8615 56.2685C23.9015 56.248 23.9381 56.2386 23.9713 56.2404C24.0056 56.2429 24.0442 56.2583 24.0871 56.2866C24.13 56.3149 24.151 56.3387 24.1499 56.3581C24.1499 56.3782 24.1299 56.3985 24.0899 56.4191L23.5448 56.6988C23.5048 56.7193 23.4676 56.7283 23.4333 56.7258C23.4001 56.724 23.362 56.709 23.3191 56.6807C23.2762 56.6524 23.2547 56.6282 23.2547 56.6081C23.2558 56.5887 23.2763 56.5687 23.3163 56.5482L23.4723 56.4682L23.0572 56.1946L22.3578 56.5535L23.2507 57.142L23.6433 56.9406C23.6833 56.92 23.721 56.9114 23.7564 56.9146C23.7917 56.9178 23.8314 56.9339 23.8754 56.9629ZM28.5116 58.4973C28.6371 58.58 28.721 58.6621 28.7632 58.7435C28.8054 58.8249 28.8068 58.9015 28.7674 58.9733C28.7301 59.0452 28.6561 59.1096 28.5452 59.1665C28.4584 59.2111 28.3624 59.2383 28.2575 59.2482C28.1547 59.2581 28.0479 59.2514 27.9369 59.2278C28.0118 59.3227 28.0358 59.4122 28.009 59.4964C27.9844 59.5806 27.9087 59.6553 27.7818 59.7204C27.6618 59.782 27.5343 59.8192 27.3992 59.8319C27.264 59.8447 27.1269 59.8327 26.9878 59.7959C26.8487 59.7592 26.7137 59.6977 26.5829 59.6115L25.6706 59.0102C25.6342 58.9862 25.6165 58.9645 25.6175 58.9451C25.6208 58.9258 25.6436 58.9053 25.6858 58.8836C25.7281 58.8619 25.7654 58.8516 25.7975 58.8527C25.8319 58.8539 25.8673 58.8665 25.9038 58.8906L26.1001 59.0199L27.6687 58.215L27.4724 58.0857C27.4359 58.0616 27.4182 58.0399 27.4193 58.0205C27.4225 58.0012 27.4453 57.9807 27.4876 57.959C27.5299 57.9373 27.5671 57.927 27.5993 57.9281C27.6337 57.9294 27.6691 57.942 27.7055 57.966L28.5116 58.4973ZM27.2757 58.6996L27.6088 58.9191C27.7321 59.0004 27.8528 59.0478 27.971 59.0613C28.0891 59.0749 28.1985 59.0559 28.2991 59.0043C28.4042 58.9503 28.4525 58.8891 28.444 58.8205C28.4355 58.7519 28.3685 58.6763 28.2431 58.5936L27.91 58.3741L27.2757 58.6996ZM26.3414 59.179L26.7678 59.46C26.8997 59.547 27.0313 59.5982 27.1627 59.6138C27.2951 59.6301 27.4168 59.6098 27.5276 59.5529C27.7631 59.4321 27.7462 59.2829 27.477 59.1055L27.0426 58.8192L26.3414 59.179ZM30.4954 59.8047C30.6294 59.8931 30.7202 59.981 30.7677 60.0686C30.8162 60.1568 30.8217 60.2395 30.7842 60.3166C30.7477 60.3944 30.6718 60.4629 30.5564 60.5221C30.4261 60.589 30.2761 60.6194 30.1065 60.6135C29.9368 60.6075 29.7662 60.5674 29.5947 60.4932C29.6296 60.5457 29.6389 60.5994 29.6226 60.6543C29.609 60.7002 29.5906 60.743 29.5673 60.7826C29.5452 60.8216 29.5149 60.868 29.4764 60.9217C29.4367 60.9772 29.4089 61.0185 29.393 61.0456C29.3526 61.1153 29.3597 61.1683 29.4144 61.2043L29.4594 61.234C29.4959 61.258 29.5125 61.2797 29.5092 61.299C29.5082 61.3184 29.4865 61.3389 29.4442 61.3606C29.4019 61.3823 29.3636 61.3926 29.3292 61.3914C29.2971 61.3903 29.2628 61.3777 29.2263 61.3537L29.1105 61.2773C29.0461 61.2349 29.0091 61.1897 28.9995 61.1419C28.9921 61.0941 29.0109 61.0342 29.0559 60.962C29.0826 60.9207 29.1199 60.8676 29.1679 60.8027C29.2112 60.7428 29.2432 60.6956 29.2639 60.661C29.2869 60.6266 29.305 60.5897 29.3183 60.5502C29.3341 60.5043 29.3315 60.4604 29.3105 60.4184C29.2905 60.3758 29.249 60.3337 29.1857 60.292L28.9669 60.1477L28.3171 60.4811L28.5263 60.619C28.5628 60.643 28.5794 60.6647 28.5761 60.684C28.575 60.7034 28.5534 60.7239 28.5111 60.7456C28.4688 60.7673 28.4305 60.7776 28.3961 60.7763C28.3639 60.7752 28.3296 60.7627 28.2931 60.7386L27.6464 60.3124C27.6099 60.2883 27.5922 60.2666 27.5932 60.2472C27.5965 60.2279 27.6193 60.2074 27.6616 60.1857C27.7039 60.164 27.7411 60.1537 27.7732 60.1548C27.8076 60.1561 27.843 60.1687 27.8795 60.1927L28.0758 60.3221L29.6444 59.5172L29.4481 59.3878C29.4117 59.3638 29.3939 59.3421 29.395 59.3227C29.3983 59.3034 29.421 59.2829 29.4633 59.2612C29.5056 59.2395 29.5428 59.2292 29.575 59.2303C29.6094 59.2315 29.6448 59.2441 29.6813 59.2682L30.4954 59.8047ZM29.2 60.0281L29.5266 60.2434C29.8162 60.4342 30.0747 60.4713 30.3022 60.3546C30.4119 60.2983 30.46 60.2309 30.4465 60.1523C30.4341 60.0732 30.3614 59.9897 30.2284 59.9021L29.8857 59.6762L29.2 60.0281ZM32.4566 61.0973C32.4995 61.1256 32.5247 61.1529 32.5322 61.1793C32.5418 61.2057 32.5337 61.2332 32.5077 61.2616L31.3853 62.5033L31.4834 62.568C31.5199 62.592 31.5365 62.6137 31.5332 62.6329C31.5322 62.6523 31.5105 62.6729 31.4682 62.6946C31.4259 62.7163 31.3876 62.7265 31.3532 62.7253C31.3211 62.7242 31.2868 62.7116 31.2503 62.6876L30.6807 62.3122C30.6443 62.2882 30.6266 62.2665 30.6276 62.2471C30.6309 62.2278 30.6537 62.2073 30.696 62.1856C30.7382 62.1639 30.7755 62.1536 30.8076 62.1547C30.842 62.1559 30.8774 62.1686 30.9139 62.1926L31.1311 62.3357L31.4072 62.0394L30.6269 61.5251L30.0853 61.6465L30.28 61.7748C30.3165 61.7988 30.3331 61.8205 30.3298 61.8398C30.3287 61.8592 30.3071 61.8797 30.2648 61.9014C30.2225 61.9231 30.1842 61.9334 30.1498 61.9321C30.1176 61.931 30.0833 61.9185 30.0468 61.8944L29.5095 61.5403C29.473 61.5162 29.4553 61.4945 29.4563 61.4751C29.4596 61.4558 29.4824 61.4354 29.5247 61.4137C29.567 61.392 29.6042 61.3817 29.6363 61.3828C29.6707 61.384 29.7061 61.3966 29.7426 61.4206L29.8327 61.48L31.9339 61.0261L31.633 60.8278C31.5965 60.8038 31.5788 60.782 31.5799 60.7626C31.5832 60.7434 31.6059 60.7229 31.6482 60.7012C31.6905 60.6795 31.7277 60.6692 31.7599 60.6703C31.7943 60.6715 31.8297 60.6841 31.8662 60.7082L32.4566 61.0973ZM32.1639 61.1777L30.9356 61.4553L31.5663 61.871L32.1945 61.1979L32.1639 61.1777ZM34.3905 62.3719C34.5589 62.4829 34.6658 62.6015 34.7111 62.7279C34.7576 62.8537 34.7386 62.9791 34.654 63.1042C34.5717 63.2295 34.4265 63.3455 34.2185 63.4522C34.0105 63.5589 33.7945 63.6283 33.5706 63.6602C33.3477 63.6928 33.1313 63.6882 32.9214 63.6463C32.7126 63.6038 32.524 63.5271 32.3556 63.4161L31.5978 62.9166C31.5613 62.8926 31.5436 62.8709 31.5447 62.8515C31.548 62.8322 31.5707 62.8117 31.613 62.79C31.6553 62.7683 31.6925 62.758 31.7247 62.7591C31.7591 62.7603 31.7945 62.773 31.831 62.797L32.0112 62.9158L33.5798 62.1109L33.3996 61.9921C33.3631 61.9681 33.3454 61.9463 33.3465 61.9269C33.3497 61.9077 33.3725 61.8872 33.4148 61.8655C33.4571 61.8438 33.4943 61.8335 33.5265 61.8346C33.5608 61.8358 33.5963 61.8484 33.6327 61.8725L34.3905 62.3719ZM32.2525 63.0748L32.5518 63.2721C32.6794 63.3562 32.8201 63.4141 32.9739 63.4458C33.1289 63.4769 33.2904 63.4796 33.4585 63.4537C33.6277 63.4272 33.7963 63.3709 33.9643 63.2846C34.1323 63.1984 34.2488 63.1085 34.3139 63.0147C34.3802 62.9204 34.3964 62.8266 34.3625 62.7333C34.3287 62.64 34.248 62.5513 34.1204 62.4671L33.8211 62.2699L32.2525 63.0748ZM36.4998 63.762C36.5363 63.7861 36.5529 63.8077 36.5496 63.827C36.5485 63.8464 36.5269 63.867 36.4846 63.8887C36.4423 63.9104 36.404 63.9206 36.3696 63.9194C36.3374 63.9183 36.3031 63.9057 36.2666 63.8817L35.8773 63.6251L34.3087 64.43L35.1051 64.9549L35.6691 64.6655C35.7091 64.6449 35.7468 64.6363 35.7822 64.6395C35.8175 64.6427 35.8572 64.6588 35.9012 64.6878C35.9452 64.7168 35.9677 64.7417 35.9688 64.7625C35.9699 64.7833 35.9504 64.804 35.9104 64.8245L35.2298 65.1738C35.1875 65.1955 35.1492 65.2057 35.1148 65.2045C35.0827 65.2034 35.0484 65.1908 35.0119 65.1668L33.5735 64.2188C33.5371 64.1948 33.5194 64.173 33.5204 64.1536C33.5237 64.1344 33.5465 64.1139 33.5888 64.0922C33.631 64.0705 33.6683 64.0602 33.7004 64.0613C33.7348 64.0625 33.7702 64.0751 33.8067 64.0992L34.0673 64.2709L35.6359 63.466L35.3753 63.2942C35.3388 63.2702 35.3211 63.2485 35.3222 63.2291C35.3255 63.2098 35.3482 63.1893 35.3905 63.1676C35.4328 63.1459 35.47 63.1356 35.5022 63.1367C35.5366 63.1379 35.572 63.1506 35.6085 63.1746L36.4998 63.762ZM37.7055 66.0779C37.7495 66.1069 37.772 66.1318 37.7731 66.1526C37.7742 66.1734 37.7547 66.1941 37.7147 66.2146L37.2056 66.4759C37.1633 66.4976 37.1249 66.5078 37.0906 66.5066C37.0584 66.5055 37.0241 66.4929 36.9876 66.4689L35.5493 65.5209C35.5128 65.4969 35.4951 65.4752 35.4962 65.4558C35.4994 65.4365 35.5222 65.416 35.5645 65.3943C35.6068 65.3726 35.644 65.3623 35.6762 65.3634C35.7105 65.3646 35.746 65.3773 35.7824 65.4013L35.9465 65.5095L37.5151 64.7045L37.351 64.5964C37.3146 64.5723 37.2969 64.5506 37.2979 64.5312C37.3012 64.5119 37.324 64.4915 37.3663 64.4698C37.4085 64.4481 37.4458 64.4378 37.4779 64.4389C37.5123 64.4401 37.5477 64.4527 37.5842 64.4767L38.9904 65.4035C39.0268 65.4276 39.0434 65.4492 39.0402 65.4685C39.0391 65.4879 39.0174 65.5084 38.9752 65.5301L38.5397 65.7536C38.4997 65.7741 38.462 65.7828 38.4266 65.7795C38.3913 65.7763 38.3516 65.7602 38.3076 65.7312C38.2636 65.7022 38.2411 65.6773 38.24 65.6565C38.2389 65.6357 38.2584 65.615 38.2984 65.5945L38.6172 65.4309L37.7565 64.8636L37.1205 65.19L37.5356 65.4635L37.6916 65.3835C37.7316 65.363 37.7682 65.3536 37.8014 65.3554C37.8357 65.3579 37.8743 65.3733 37.9172 65.4016C37.9601 65.4299 37.9811 65.4537 37.98 65.4731C37.98 65.4932 37.96 65.5135 37.92 65.5341L37.3749 65.8138C37.3349 65.8343 37.2977 65.8433 37.2634 65.8408C37.2302 65.839 37.1921 65.824 37.1492 65.7957C37.1063 65.7674 37.0848 65.7432 37.0848 65.7231C37.0859 65.7037 37.1064 65.6838 37.1464 65.6632L37.3024 65.5832L36.8873 65.3096L36.1879 65.6685L37.0808 66.257L37.4734 66.0556C37.5134 66.035 37.5511 66.0264 37.5865 66.0296C37.6218 66.0328 37.6615 66.0489 37.7055 66.0779ZM41.1077 66.799C41.1441 66.823 41.1607 66.8447 41.1575 66.8639C41.1564 66.8833 41.1348 66.9039 41.0925 66.9256C41.0502 66.9473 41.0118 66.9575 40.9775 66.9563C40.9453 66.9552 40.911 66.9426 40.8745 66.9186L40.7651 66.8465L39.2469 66.9692L38.6366 67.2824L39.0002 67.5221C39.0367 67.5461 39.0533 67.5677 39.05 67.587C39.049 67.6064 39.0273 67.627 38.985 67.6487C38.9427 67.6704 38.9044 67.6806 38.87 67.6794C38.8379 67.6783 38.8035 67.6657 38.7671 67.6417L37.7985 67.0033C37.762 66.9793 37.7443 66.9576 37.7454 66.9382C37.7487 66.9189 37.7714 66.8984 37.8137 66.8767C37.856 66.855 37.8932 66.8447 37.9254 66.8458C37.9598 66.847 37.9952 66.8597 38.0317 66.8837L38.3953 67.1234L39.0056 66.8102L39.4072 65.9515L39.2946 65.8773C39.2581 65.8533 39.2404 65.8316 39.2415 65.8122C39.2447 65.7929 39.2675 65.7724 39.3098 65.7507C39.3521 65.729 39.3893 65.7187 39.4215 65.7198C39.4558 65.721 39.4913 65.7336 39.5277 65.7577L40.0651 66.1118C40.1016 66.1359 40.1182 66.1575 40.1149 66.1768C40.1139 66.1962 40.0922 66.2168 40.0499 66.2385C40.0076 66.2602 39.9693 66.2704 39.9349 66.2692C39.9027 66.2681 39.8684 66.2555 39.832 66.2315L39.6823 66.1329L39.3834 66.7578L40.49 66.6652L40.3854 66.5963C40.349 66.5722 40.3312 66.5505 40.3323 66.5311C40.3356 66.5118 40.3584 66.4913 40.4006 66.4696C40.4429 66.4479 40.4801 66.4376 40.5123 66.4387C40.5467 66.44 40.5821 66.4526 40.6186 66.4766L41.1077 66.799Z" fill="white"/>
<path d="M27.4701 47.6727C27.4986 47.6915 27.5115 47.7084 27.509 47.7235C27.5082 47.7387 27.4912 47.7547 27.4582 47.7717C27.4251 47.7886 27.3952 47.7966 27.3683 47.7957C27.3432 47.7948 27.3164 47.785 27.2879 47.7662L26.4406 47.2078C26.4121 47.189 26.3982 47.172 26.3991 47.1569C26.4016 47.1418 26.4194 47.1258 26.4524 47.1088C26.4855 47.0919 26.5146 47.0838 26.5397 47.0847C26.5666 47.0856 26.5942 47.0955 26.6227 47.1143L26.9609 47.3372L28.1103 46.7474L27.5896 46.6476C27.5664 46.6428 27.549 46.6366 27.5372 46.6288C27.5104 46.6111 27.5057 46.5866 27.523 46.5551C27.5327 46.5363 27.5474 46.5219 27.567 46.5118C27.5974 46.4963 27.6336 46.4929 27.6757 46.5018L28.4604 46.6547C28.4879 46.6602 28.51 46.6685 28.5268 46.6796C28.5452 46.6917 28.5536 46.7051 28.5519 46.7197C28.552 46.7344 28.5404 46.7477 28.5172 46.7596L27.1495 47.4615L27.4701 47.6727ZM29.9559 47.6262C30.0531 47.6903 30.1195 47.756 30.1549 47.8233C30.192 47.8907 30.1954 47.9557 30.1651 48.0185C30.1348 48.0812 30.0709 48.1375 29.9736 48.1875C29.8825 48.2342 29.7772 48.2632 29.6576 48.2744C29.5398 48.2858 29.3874 48.2868 29.2004 48.2777L28.3212 48.2337L28.8668 48.5933L29.0356 48.5067C29.0668 48.4906 29.0963 48.4839 29.1239 48.4864C29.1516 48.4889 29.1826 48.5015 29.217 48.5241C29.2513 48.5468 29.2689 48.5662 29.2698 48.5825C29.2706 48.5988 29.2554 48.6149 29.2242 48.631L28.9643 48.7643C28.9312 48.7813 28.9013 48.7893 28.8744 48.7883C28.8493 48.7875 28.8225 48.7776 28.794 48.7589L27.9215 48.1838C27.893 48.165 27.8792 48.1481 27.88 48.1329C27.8826 48.1179 27.9004 48.1018 27.9334 48.0849C27.9673 48.0675 27.9977 48.0592 28.0246 48.0602L29.1752 48.1182C29.3363 48.1259 29.46 48.1258 29.5464 48.1178C29.6345 48.11 29.7107 48.0895 29.775 48.0565C29.858 48.0139 29.8985 47.9637 29.8965 47.9058C29.8961 47.848 29.8503 47.789 29.7589 47.7288C29.6667 47.668 29.555 47.6237 29.4237 47.5958L29.2763 47.6714C29.2451 47.6874 29.2156 47.6942 29.188 47.6916C29.1603 47.6891 29.1293 47.6765 29.095 47.6539C29.0606 47.6313 29.043 47.6118 29.0421 47.5955C29.0413 47.5793 29.0565 47.5631 29.0877 47.5471L29.2847 47.446C29.3195 47.4282 29.3537 47.4219 29.3872 47.4273C29.4958 47.4433 29.5986 47.4682 29.6957 47.5018C29.7938 47.535 29.8805 47.5765 29.9559 47.6262ZM31.5123 48.652C31.6087 48.7155 31.6746 48.7804 31.7101 48.8467C31.7464 48.9125 31.7508 48.9756 31.7232 49.036C31.6965 49.0958 31.6385 49.1487 31.5492 49.1945C31.4724 49.2339 31.3891 49.257 31.2994 49.2638C31.2105 49.2701 31.1189 49.2616 31.0247 49.2382C31.067 49.3059 31.0765 49.3703 31.0532 49.4313C31.0308 49.493 30.974 49.5471 30.8829 49.5939C30.7856 49.6438 30.6793 49.6743 30.5641 49.6853C30.4498 49.6968 30.3331 49.6874 30.2141 49.6571C30.095 49.6268 29.9815 49.576 29.8734 49.5048C29.7912 49.4506 29.7234 49.3882 29.67 49.3173C29.6165 49.2465 29.5826 49.176 29.5682 49.1058C29.5627 49.0791 29.5724 49.0594 29.5975 49.0466C29.6153 49.0374 29.6443 49.0309 29.6845 49.027C29.7438 49.0221 29.7868 49.0285 29.8136 49.0462C29.8271 49.055 29.8355 49.0674 29.839 49.0833C29.8505 49.1422 29.8756 49.1995 29.9143 49.2554C29.9538 49.3107 30.0062 49.36 30.0716 49.403C30.1755 49.4715 30.2806 49.5104 30.3869 49.5198C30.4941 49.5286 30.5932 49.5097 30.6843 49.463C30.7763 49.4158 30.8183 49.3618 30.8103 49.301C30.804 49.2404 30.7515 49.1775 30.6526 49.1123L30.5608 49.0518C30.5323 49.033 30.5185 49.0161 30.5193 49.0009C30.5218 48.9858 30.5396 48.9698 30.5727 48.9529C30.6057 48.9359 30.6348 48.9279 30.6599 48.9287C30.6868 48.9297 30.7145 48.9395 30.743 48.9583L30.8121 49.0039C30.9077 49.0669 31.0016 49.1037 31.0939 49.1142C31.1862 49.1248 31.2735 49.1091 31.3556 49.0669C31.4315 49.0279 31.4662 48.9812 31.4596 48.9266C31.4539 48.8715 31.4058 48.8142 31.3153 48.7545C31.2181 48.6905 31.1181 48.645 31.0154 48.6181L30.9256 48.6642C30.8944 48.6802 30.8649 48.687 30.8373 48.6845C30.8097 48.6819 30.7787 48.6694 30.7443 48.6467C30.7099 48.6241 30.6923 48.6046 30.6915 48.5883C30.6906 48.5721 30.7058 48.5559 30.7371 48.5399L30.8831 48.465C30.9027 48.4549 30.9209 48.4485 30.9375 48.4459C30.955 48.4438 30.9736 48.4445 30.9934 48.4482C31.1918 48.4868 31.3648 48.5548 31.5123 48.652ZM33.2585 49.8029C33.3314 49.8509 33.3331 49.8928 33.2634 49.9286L32.4128 50.3651L32.6165 50.4993C32.645 50.5181 32.6579 50.535 32.6554 50.55C32.6545 50.5652 32.6376 50.5813 32.6046 50.5982C32.5715 50.6152 32.5416 50.6232 32.5147 50.6222C32.4896 50.6214 32.4628 50.6115 32.4343 50.5928L32.2306 50.4585L31.9305 50.6125L32.0965 50.7219C32.125 50.7407 32.138 50.7576 32.1354 50.7726C32.1346 50.7878 32.1177 50.8039 32.0846 50.8208C32.0516 50.8378 32.0216 50.8458 31.9948 50.8448C31.9696 50.844 31.9428 50.8341 31.9143 50.8154L31.3737 50.4591C31.3452 50.4403 31.3314 50.4233 31.3322 50.4082C31.3348 50.3931 31.3526 50.3771 31.3856 50.3601C31.4187 50.3432 31.4477 50.3351 31.4729 50.336C31.4997 50.3369 31.5274 50.3468 31.5559 50.3656L31.742 50.4882L32.042 50.3342L31.4411 49.9382C31.4126 49.9194 31.3988 49.9024 31.3996 49.8873C31.4022 49.8722 31.4199 49.8562 31.453 49.8393C31.4825 49.8241 31.5076 49.8161 31.5285 49.8152L33.0385 49.7536C33.0846 49.7516 33.1249 49.754 33.1592 49.761C33.1936 49.7679 33.2267 49.7819 33.2585 49.8029ZM31.7943 49.9574L32.2242 50.2408L32.8987 49.9065L31.7943 49.9574Z" fill="white"/>
<path d="M50.2596 61.4554C50.2881 61.4742 50.301 61.4911 50.2985 61.5062C50.2976 61.5214 50.2807 61.5374 50.2477 61.5544C50.2146 61.5713 50.1847 61.5793 50.1578 61.5784C50.1327 61.5775 50.1059 61.5677 50.0774 61.5489L49.9982 61.4967L48.5941 61.7412C48.552 61.749 48.5126 61.7487 48.4757 61.7401C48.4388 61.7325 48.3998 61.7152 48.3587 61.6881C48.3185 61.6616 48.2942 61.6372 48.2859 61.615C48.2775 61.5937 48.2822 61.5712 48.3 61.5473L48.8956 60.7701L48.8177 60.7187C48.7892 60.6999 48.7754 60.6829 48.7762 60.6678C48.7787 60.6527 48.7965 60.6367 48.8296 60.6198C48.8626 60.6028 48.8917 60.5947 48.9168 60.5956C48.9437 60.5966 48.9714 60.6064 48.9999 60.6252L49.4449 60.9185C49.4734 60.9373 49.4864 60.9542 49.4838 60.9693C49.483 60.9845 49.4661 61.0005 49.433 61.0175C49.4 61.0344 49.37 61.0424 49.3432 61.0415C49.318 61.0406 49.2912 61.0308 49.2627 61.012L49.1018 60.906L48.5716 61.5803L49.792 61.3608L49.6826 61.2887C49.6541 61.27 49.6403 61.253 49.6411 61.2378C49.6437 61.2228 49.6615 61.2068 49.6945 61.1898C49.7276 61.1729 49.7566 61.1648 49.7818 61.1657C49.8086 61.1666 49.8363 61.1765 49.8648 61.1953L50.2596 61.4554ZM51.208 62.046C51.3656 62.1498 51.4463 62.247 51.45 62.3374C51.4538 62.4278 51.382 62.5108 51.2347 62.5864L50.7015 62.86C50.631 62.8962 50.6233 62.9325 50.6787 62.969L50.7227 62.998C50.7512 63.0168 50.7641 63.0337 50.7616 63.0488C50.7607 63.0639 50.7438 63.08 50.7108 63.0969C50.6777 63.1139 50.6478 63.1219 50.6209 63.1209C50.5958 63.1201 50.569 63.1103 50.5405 63.0915L50.46 63.0385C50.4055 63.0026 50.3729 62.9643 50.3621 62.9237C50.353 62.8831 50.3707 62.8446 50.4152 62.808C50.2822 62.7957 50.1581 62.7719 50.0428 62.7368C49.9283 62.7022 49.8263 62.6553 49.7366 62.5962C49.6519 62.5404 49.5921 62.4832 49.5571 62.4245C49.5238 62.366 49.5182 62.3094 49.5403 62.2548C49.5623 62.2003 49.614 62.1522 49.6953 62.1105C49.8364 62.0381 49.9878 62.0159 50.1494 62.0439C50.312 62.0715 50.4683 62.1348 50.6183 62.2336C50.7516 62.3215 50.8562 62.4171 50.9322 62.5206L51.0461 62.4622C51.1327 62.4177 51.1731 62.37 51.1671 62.319C51.163 62.2681 51.1102 62.2092 51.0088 62.1424C50.9459 62.1009 50.8712 62.0627 50.7845 62.0275C50.6979 61.9924 50.6074 61.9632 50.5132 61.9398C50.4909 61.9345 50.4739 61.928 50.4622 61.9203C50.4345 61.9021 50.4329 61.8759 50.4573 61.8417C50.4695 61.8247 50.4828 61.8125 50.4971 61.8051C50.5283 61.7891 50.568 61.7869 50.6159 61.7987C50.7256 61.8249 50.831 61.8593 50.932 61.9018C51.0347 61.9443 51.1267 61.9924 51.208 62.046ZM50.4307 62.3314C50.3343 62.2679 50.2402 62.2268 50.1483 62.2081C50.0582 62.1895 49.9747 62.1999 49.8979 62.2393C49.8327 62.2728 49.8028 62.3127 49.8081 62.3591C49.8151 62.4056 49.8567 62.454 49.933 62.5043C50.0998 62.6142 50.3239 62.6755 50.6054 62.6883L50.7514 62.6134C50.714 62.5657 50.6676 62.5178 50.612 62.4697C50.5574 62.4211 50.4969 62.375 50.4307 62.3314ZM53.2698 62.8301C53.2983 62.8489 53.3112 62.8658 53.3087 62.8809C53.3079 62.8961 53.2909 62.9121 53.2579 62.9291L51.7737 63.6907L52.1772 63.9567C52.2057 63.9754 52.2187 63.9924 52.2161 64.0074C52.2153 64.0226 52.1984 64.0386 52.1653 64.0556C52.1323 64.0726 52.1023 64.0806 52.0755 64.0796C52.0503 64.0787 52.0235 64.0689 51.995 64.0501L51.0094 63.4005C50.9809 63.3818 50.9671 63.3648 50.9679 63.3496C50.9704 63.3346 50.9882 63.3186 51.0213 63.3016C51.0543 63.2846 51.0834 63.2766 51.1085 63.2775C51.1354 63.2784 51.1631 63.2883 51.1916 63.3071L51.5851 63.5664L52.9782 62.8515L52.635 62.6253C52.6065 62.6065 52.5927 62.5896 52.5935 62.5744C52.5961 62.5594 52.6139 62.5433 52.6469 62.5264C52.6799 62.5094 52.709 62.5014 52.7342 62.5022C52.761 62.5032 52.7887 62.5131 52.8172 62.5318L53.2698 62.8301ZM54.3064 64.1226C54.3349 64.1414 54.3479 64.1583 54.3453 64.1734C54.3445 64.1885 54.3276 64.2046 54.2945 64.2215L53.33 64.7165L53.7336 64.9824C53.7621 65.0012 53.7751 65.0181 53.7725 65.0332C53.7717 65.0484 53.7548 65.0644 53.7217 65.0814C53.6887 65.0983 53.6587 65.1063 53.6319 65.1054C53.6067 65.1045 53.5799 65.0947 53.5514 65.0759L52.5658 64.4263C52.5373 64.4075 52.5235 64.3906 52.5243 64.3754C52.5268 64.3603 52.5446 64.3443 52.5777 64.3274C52.6107 64.3104 52.6398 64.3024 52.6649 64.3032C52.6918 64.3042 52.7195 64.314 52.748 64.3328L53.1415 64.5922L54.0149 64.144L53.6968 63.9344C53.6683 63.9156 53.6545 63.8986 53.6553 63.8835C53.6578 63.8684 53.6756 63.8524 53.7087 63.8354C53.7417 63.8185 53.7708 63.8104 53.7959 63.8113C53.8228 63.8122 53.8505 63.8221 53.879 63.8409L54.3064 64.1226ZM54.8543 63.7943C54.9004 63.8247 54.9251 63.8489 54.9285 63.8668C54.9327 63.8842 54.9188 63.9012 54.8866 63.9177L54.7125 64.0071C54.6803 64.0236 54.6492 64.0297 54.619 64.0256C54.5897 64.0209 54.5521 64.0034 54.506 63.973C54.4599 63.9427 54.4347 63.9187 54.4304 63.9013C54.4271 63.8834 54.4415 63.8661 54.4736 63.8497L54.6478 63.7603C54.6799 63.7438 54.7106 63.7379 54.7399 63.7425C54.77 63.7467 54.8082 63.7639 54.8543 63.7943ZM56.7635 65.1327C56.792 65.1515 56.8049 65.1684 56.8024 65.1835C56.8016 65.1986 56.7846 65.2147 56.7516 65.2317L55.2674 65.9933L55.3704 66.0612C55.3989 66.08 55.4119 66.0969 55.4094 66.112C55.4085 66.1272 55.3916 66.1432 55.3586 66.1602C55.3255 66.1771 55.2956 66.1851 55.2687 66.1842C55.2436 66.1833 55.2168 66.1735 55.1883 66.1547L54.9884 66.023C54.9599 66.0042 54.946 65.9872 54.9469 65.9721C54.9494 65.957 54.9672 65.941 55.0003 65.924L55.1074 65.869C54.9814 65.8718 54.8639 65.8604 54.7551 65.8347C54.6462 65.809 54.5507 65.7691 54.4686 65.7149C54.3647 65.6464 54.2975 65.5718 54.2672 65.4911C54.2378 65.41 54.2482 65.3289 54.2986 65.2481C54.3499 65.1667 54.4417 65.0921 54.5738 65.0243C54.706 64.9565 54.8442 64.9131 54.9885 64.8941C55.1337 64.8746 55.2732 64.8786 55.4072 64.9062C55.542 64.9333 55.6614 64.9811 55.7653 65.0496C55.9229 65.1534 55.982 65.2788 55.9428 65.4256L56.4719 65.1541L56.2683 65.0199C56.2398 65.0011 56.2259 64.9841 56.2268 64.969C56.2293 64.9539 56.2471 64.9379 56.2801 64.9209C56.3132 64.904 56.3423 64.8959 56.3674 64.8968C56.3943 64.8978 56.4219 64.9076 56.4504 64.9264L56.7635 65.1327ZM55.5796 65.1596C55.505 65.1104 55.4217 65.078 55.3297 65.0624C55.2385 65.0463 55.1448 65.0462 55.0484 65.0623C54.9529 65.0789 54.8609 65.1099 54.7725 65.1552C54.6841 65.2006 54.6198 65.2498 54.5795 65.3029C54.5402 65.3565 54.5281 65.4108 54.5433 65.4659C54.5595 65.5205 54.6048 65.5723 54.6794 65.6215C54.754 65.6707 54.8381 65.7051 54.9316 65.7249C55.026 65.7453 55.1235 65.7488 55.2241 65.7355C55.3255 65.7228 55.4226 65.6926 55.5155 65.6449C55.6084 65.5973 55.672 65.545 55.7063 65.488C55.7415 65.4317 55.7476 65.375 55.7247 65.318C55.7026 65.2615 55.6542 65.2087 55.5796 65.1596ZM59.2744 66.9493C59.3817 67.02 59.4411 67.0995 59.4528 67.1878C59.4663 67.2763 59.4323 67.3669 59.3508 67.4598C59.2711 67.5527 59.1491 67.6414 58.9848 67.7257C58.8204 67.81 58.654 67.8694 58.4855 67.9038C58.3177 67.9388 58.1593 67.9474 58.01 67.9297C57.8617 67.9115 57.7335 67.8667 57.6254 67.7955C57.5173 67.7242 57.4569 67.6447 57.4443 67.5568C57.4326 67.4685 57.4666 67.3779 57.5463 67.2849C57.6269 67.1925 57.7493 67.1041 57.9137 67.0198C58.078 66.9355 58.244 66.8758 58.4117 66.8408C58.5811 66.806 58.74 66.7976 58.8884 66.8158C59.0384 66.8341 59.1671 66.8786 59.2744 66.9493ZM59.0761 67.051C59.0099 67.0074 58.9262 66.9816 58.8251 66.9735C58.7257 66.9656 58.6144 66.9765 58.4913 67.0063C58.369 67.0357 58.2427 67.0838 58.1123 67.1507C57.9819 67.2176 57.8836 67.2847 57.8175 67.3521C57.7522 67.419 57.7201 67.4816 57.7213 67.5399C57.7233 67.5988 57.7574 67.6501 57.8236 67.6937C57.8898 67.7374 57.9727 67.7632 58.0721 67.7711C58.1723 67.7796 58.2836 67.7692 58.4058 67.7398C58.529 67.7101 58.6557 67.6617 58.7861 67.5948C58.9165 67.5279 59.0143 67.461 59.0796 67.3941C59.1458 67.3267 59.1779 67.2636 59.1759 67.2047C59.1756 67.1459 59.1423 67.0947 59.0761 67.051ZM61.2313 68.2736C61.2597 68.2924 61.2727 68.3093 61.2702 68.3243C61.2693 68.3395 61.2524 68.3556 61.2194 68.3725C61.1979 68.3835 61.1776 68.391 61.1582 68.395L59.2094 68.7673C59.1814 68.7728 59.154 68.7726 59.1274 68.7666C59.1008 68.7616 59.0762 68.7516 59.0535 68.7367C59.0234 68.7168 59.0053 68.6971 58.9995 68.6775C58.9935 68.659 59.0013 68.6442 59.0227 68.6332C59.0352 68.6268 59.0485 68.6224 59.0625 68.6201L60.907 68.2734L60.3111 67.8807L60.1155 67.981C60.0843 67.9971 60.0548 68.0038 60.0272 68.0013C59.9995 67.9988 59.9685 67.9862 59.9342 67.9636C59.8998 67.9409 59.8822 67.9215 59.8813 67.9052C59.8805 67.889 59.8957 67.8728 59.927 67.8568L60.2136 67.7097C60.2467 67.6927 60.2757 67.6847 60.3009 67.6855C60.3277 67.6865 60.3554 67.6963 60.3839 67.7151L61.2313 68.2736ZM63.0172 69.1256C63.0507 69.1477 63.0716 69.1693 63.08 69.1906C63.0884 69.2118 63.0824 69.2277 63.0618 69.2382C63.0547 69.2419 63.0458 69.245 63.0353 69.2474L59.9895 69.82C59.9694 69.8235 59.9473 69.8225 59.9233 69.8172C59.9001 69.8123 59.8789 69.8036 59.8596 69.7909C59.8261 69.7688 59.8051 69.7471 59.7967 69.7259C59.7883 69.7047 59.7944 69.6888 59.8149 69.6782C59.8221 69.6746 59.8309 69.6715 59.8415 69.669L62.8872 69.0965C62.9074 69.093 62.929 69.0937 62.9522 69.0985C62.9762 69.1038 62.9979 69.1129 63.0172 69.1256ZM63.8757 69.9819C63.972 70.0454 64.038 70.1103 64.0734 70.1766C64.1098 70.2424 64.1142 70.3055 64.0866 70.3659C64.0599 70.4257 64.0019 70.4786 63.9126 70.5244C63.8358 70.5638 63.7525 70.5869 63.6627 70.5937C63.5738 70.6 63.4822 70.5915 63.388 70.5681C63.4304 70.6358 63.4399 70.7002 63.4166 70.7612C63.3941 70.8228 63.3374 70.877 63.2463 70.9238C63.1489 70.9737 63.0427 71.0042 62.9275 71.0152C62.8131 71.0267 62.6964 71.0173 62.5774 70.987C62.4584 70.9567 62.3448 70.9059 62.2367 70.8347C62.1546 70.7805 62.0868 70.7181 62.0333 70.6472C61.9799 70.5764 61.946 70.5059 61.9315 70.4357C61.926 70.409 61.9358 70.3893 61.9608 70.3765C61.9787 70.3673 62.0077 70.3608 62.0478 70.3569C62.1071 70.352 62.1502 70.3584 62.177 70.3761C62.1904 70.3849 62.1988 70.3973 62.2023 70.4132C62.2139 70.4721 62.239 70.5294 62.2776 70.5853C62.3171 70.6406 62.3696 70.6899 62.435 70.7329C62.5389 70.8014 62.644 70.8403 62.7503 70.8497C62.8574 70.8585 62.9566 70.8396 63.0477 70.7929C63.1396 70.7457 63.1816 70.6917 63.1737 70.6309C63.1674 70.5703 63.1148 70.5074 63.0159 70.4422L62.9241 70.3817C62.8957 70.3629 62.8818 70.346 62.8826 70.3308C62.8852 70.3157 62.903 70.2997 62.936 70.2828C62.9691 70.2658 62.9982 70.2578 63.0233 70.2586C63.0502 70.2596 63.0778 70.2694 63.1063 70.2882L63.1755 70.3338C63.271 70.3968 63.365 70.4336 63.4573 70.4441C63.5496 70.4547 63.6368 70.439 63.719 70.3968C63.7949 70.3578 63.8295 70.3111 63.823 70.2565C63.8173 70.2014 63.7692 70.1441 63.6787 70.0844C63.5814 70.0204 63.4815 69.9749 63.3787 69.948L63.289 69.9941C63.2577 70.0101 63.2283 70.0169 63.2006 70.0144C63.173 70.0118 63.142 69.9993 63.1076 69.9766C63.0733 69.954 63.0557 69.9345 63.0548 69.9182C63.054 69.902 63.0692 69.8858 63.1004 69.8698L63.2464 69.7949C63.2661 69.7848 63.2842 69.7784 63.3009 69.7758C63.3183 69.7737 63.337 69.7744 63.3567 69.7781C63.5552 69.8167 63.7281 69.8847 63.8757 69.9819ZM65.4496 71.0192C65.5569 71.09 65.6164 71.1695 65.6281 71.2578C65.6415 71.3462 65.6075 71.4368 65.5261 71.5297C65.4464 71.6227 65.3243 71.7113 65.16 71.7956C64.9957 71.88 64.8293 71.9393 64.6607 71.9738C64.493 72.0087 64.3345 72.0173 64.1853 71.9996C64.037 71.9814 63.9088 71.9367 63.8006 71.8654C63.6925 71.7942 63.6322 71.7146 63.6196 71.6267C63.6079 71.5384 63.6419 71.4478 63.7216 71.3548C63.8022 71.2624 63.9246 71.174 64.0889 71.0897C64.2532 71.0054 64.4192 70.9457 64.587 70.9108C64.7564 70.8759 64.9153 70.8675 65.0636 70.8857C65.2137 70.904 65.3424 70.9485 65.4496 71.0192ZM65.2514 71.121C65.1852 71.0773 65.1015 71.0515 65.0004 71.0435C64.901 71.0355 64.7897 71.0465 64.6665 71.0763C64.5443 71.1056 64.4179 71.1537 64.2875 71.2206C64.1572 71.2875 64.0589 71.3547 63.9927 71.422C63.9274 71.4889 63.8954 71.5515 63.8966 71.6099C63.8986 71.6688 63.9327 71.72 63.9989 71.7637C64.0651 71.8073 64.1479 71.8331 64.2473 71.841C64.3476 71.8495 64.4588 71.8391 64.5811 71.8098C64.7042 71.78 64.831 71.7316 64.9614 71.6647C65.0918 71.5978 65.1896 71.5309 65.2549 71.464C65.321 71.3967 65.3531 71.3335 65.3511 71.2746C65.3508 71.2158 65.3176 71.1646 65.2514 71.121Z" fill="white"/>
<path d="M140.369 76.5538L138.832 75.5506L135.212 77.4439L130.598 76.6396L129.893 77.9138L135.752 79.0576L140.369 76.5538Z" fill="#FFEF98"/>
<path d="M136.672 83.3107C136.672 83.3107 135.48 79.9871 135.347 79.7414L129.442 78.5873L128.658 79.9835L133.308 80.795C133.441 81.0407 134.235 83.6273 134.235 83.6273L136.672 83.3107Z" fill="#FFEF98"/>
<path d="M140.315 82.9931L139.402 80.2053L142.995 78.3251L141.368 77.2624L136.786 79.7489C137.105 80.5834 138.09 83.2623 138.09 83.2623L140.315 82.9931Z" fill="#FFEF98"/>
</svg>
