<svg width="87" height="106" viewBox="0 0 87 106" fill="none" xmlns="http://www.w3.org/2000/svg">
<path d="M1.18994 30.8453L10.8357 25.2081L12.0884 24.5818L2.31736 30.2189L1.18994 30.8453Z" fill="#FFC839"/>
<path d="M2.31738 30.219L12.0884 24.5818L16.3476 22.0764L6.70183 27.7136L2.31738 30.219Z" fill="#FFC839"/>
<path d="M61.1944 95.2343C60.8186 96.6123 60.4428 98.8671 60.0669 100.245C59.6911 101.623 60.1922 104.504 58.689 105.381C61.8207 103.502 65.0777 101.623 68.2095 99.8693C69.5875 99.1177 69.7127 97.2386 70.0885 95.8607C70.5896 94.2321 70.9654 92.4784 71.4665 90.8499L61.1944 95.2343Z" fill="#FFEF98"/>
<path d="M20.7323 8.79808C19.3543 8.42227 17.9764 7.7959 16.4731 7.7959C14.9699 7.92117 13.4667 9.29916 12.214 10.0508C10.0844 11.3035 7.95479 12.5562 5.8252 13.6836C7.20317 12.8067 9.20751 14.5605 10.5855 14.9363C12.0887 15.3121 13.5919 15.6879 15.0952 16.189L24.9915 9.9255L20.7323 8.79808Z" fill="#FFEF98"/>
<path d="M82.365 89.7223C82.4903 88.9706 82.1145 87.9685 81.9892 87.2169C81.7387 86.2147 81.6134 85.2126 81.3629 84.2104C80.987 82.3313 80.6112 80.4523 80.2354 78.5732L70.4644 84.2104C70.8402 86.2147 70.8402 88.2191 71.216 90.2234C71.5918 92.353 72.4687 95.9858 71.216 98.1154C73.4708 96.7374 75.851 95.4847 78.1058 94.1067C80.1102 93.1046 82.365 92.3529 82.365 89.7223Z" fill="#FFEF98"/>
<path d="M35.5141 4.91454C33.635 3.16076 30.6285 -0.472071 27.7473 1.15644C24.6155 3.03549 21.4838 4.78926 18.3521 6.66831C20.8575 5.29034 23.7387 9.6748 25.3672 11.178C26.8704 12.556 28.4989 13.934 30.0022 15.3119L39.7732 8.79791L35.5141 4.91454Z" fill="#FFEF98"/>
<path d="M30.1274 14.435L39.7732 8.79788L44.1577 6.29248L34.3867 11.9296L30.1274 14.435Z" fill="#FFC839"/>
<path d="M87 72.6857C87 70.1803 85.622 68.176 84.3693 66.0464C82.9914 63.6662 81.6134 61.2861 80.2354 58.906L70.4644 64.5432C71.8423 66.9233 72.4687 69.4287 73.8467 71.6835C74.3477 72.5604 74.7235 73.312 75.2246 74.1889C76.2268 75.9427 78.1058 79.8261 75.8509 81.0788C78.1058 79.8261 80.3607 78.4481 82.6156 77.1954C84.6199 76.1932 87 75.3164 87 72.6857Z" fill="#FFEF98"/>
<path d="M52.6762 11.1781C51.674 9.54957 50.7971 7.54523 49.1686 6.4178C48.5423 5.91672 47.5401 5.29038 46.6632 5.29038C45.6611 5.16511 44.9094 5.79148 44.0326 6.29256C42.7799 7.04418 41.0261 8.04634 39.7734 8.79796C37.5185 10.0507 36.2658 10.8022 34.1362 12.0549C34.8879 11.6791 35.7647 11.0528 36.5164 11.0528C37.8943 11.0528 39.0218 11.8044 40.0239 12.6813C41.2766 13.934 42.0282 15.4373 42.9051 16.9405C44.2831 19.4459 45.7863 21.826 47.1643 24.3314L56.9354 18.6943L52.6762 11.1781Z" fill="#FFEF98"/>
<path d="M70.5896 31.4716C69.9632 28.3399 69.5874 25.2081 67.4578 22.828C66.0798 21.1995 64.4513 20.6984 62.447 20.1973C60.568 19.6962 58.8142 19.1952 56.9351 18.6941L47.1641 24.3312C48.9178 24.8323 50.2958 25.3334 52.0496 25.8345C53.0517 26.085 54.1792 26.3356 55.0561 26.7114C56.6846 27.463 57.9373 29.0915 58.6889 30.72C59.6911 32.7243 59.9416 35.1044 60.3174 37.234C60.6932 39.1131 61.5701 40.8669 61.8207 42.7459L71.5917 37.1088L70.5896 31.4716Z" fill="#FFEF98"/>
<path d="M82.3651 50.3875C82.3651 47.0052 80.2355 44.6251 77.8553 42.4955C75.7258 40.6165 73.7214 38.8627 71.5918 36.9836L61.8208 42.6208C63.1988 43.8735 64.702 45.1262 66.08 46.3789C66.7063 46.88 67.3327 47.381 67.8337 48.0074C68.9612 49.0095 69.7128 50.0117 70.715 51.0139C71.5919 52.3918 72.3435 54.0204 72.3435 55.6489C72.4687 56.9016 71.9677 58.029 71.7171 59.1564C71.216 61.0355 70.7149 62.7892 70.2139 64.6683L79.9849 59.0311C80.3608 57.6532 80.7366 56.1499 81.1124 54.772C81.7387 53.394 82.3651 51.8907 82.3651 50.3875Z" fill="#FFEF98"/>
<path d="M38.6458 11.5537C39.7732 12.18 40.9007 13.3075 41.7776 14.8107L42.905 16.815L47.1642 24.206L51.4233 25.3334L54.054 26.085L54.5551 26.2103C54.9309 26.3356 55.3067 26.4608 55.6825 26.7114C57.6869 27.8388 59.4406 30.3442 59.9417 32.9749L60.3175 34.9792L60.6933 36.9835L61.8208 42.6207L66.0799 46.3788L67.7084 47.7567L69.2117 49.1347C71.5918 51.2643 72.9698 54.7718 72.3434 57.1519L72.2181 57.6531L71.4665 60.2837L70.3391 64.5429L74.5983 71.9338L75.7257 73.9381C77.4795 76.9446 77.4795 80.2016 75.7257 81.2038L74.5983 81.8301L70.3391 84.2103L71.4665 89.8474L72.2181 93.355L72.3434 93.9814C72.9698 97.1131 71.5918 98.9921 69.2117 98.3658L67.5832 97.99L65.9547 97.6142L61.6955 96.4868L60.5681 100.746L60.1922 102.249L59.8164 103.878C59.3153 105.882 57.4363 106.258 55.5573 105.13C55.1814 104.88 54.8056 104.629 54.4298 104.253L53.9287 103.878L51.2981 101.498L47.0389 97.7394L42.7797 100.245L41.6523 100.871C40.7754 101.372 39.648 101.247 38.5205 100.495C37.3931 99.869 36.2657 98.7416 35.3888 97.2383L34.2614 95.2341L30.0022 87.8431L25.743 86.7157L23.1123 85.964L22.6112 85.8388C22.2354 85.7135 21.8596 85.5882 21.4838 85.3377C19.4795 84.2103 17.7257 81.7049 17.2246 79.0742L16.8488 77.0699L16.473 75.0656L15.3456 69.4284L11.0864 65.6703L9.45788 64.2923L7.82939 62.9144C5.44926 60.7848 4.07129 57.2772 4.69764 54.8971L5.07343 53.3938L6.70197 47.6315L2.4428 40.2405L1.31533 38.2362C-0.438445 35.2297 -0.438445 31.9727 1.31533 30.9705L2.4428 30.3442L6.70197 27.9641L5.19871 20.3226L4.82292 18.3182C4.19657 15.1865 5.57454 13.3074 7.95467 13.9338L9.58316 14.3096L11.2117 14.6854L15.4709 15.8128L16.5983 11.5537L16.9741 9.92518L17.3499 8.42193C17.851 6.41761 19.73 6.0418 21.6091 7.16923C21.9849 7.41977 22.3607 7.67032 22.7365 8.04613L23.2376 8.42193L25.8683 10.802L30.1274 14.5601L34.3866 12.0547L35.5141 11.4284C36.3909 10.802 37.5184 10.9273 38.6458 11.5537Z" fill="#F78F1E"/>
<path d="M28.1233 31.8473C25.4926 30.3441 23.4883 30.0936 22.1103 31.3463C20.7323 32.599 20.106 34.7285 20.106 37.9856C20.106 41.2426 20.7323 44.249 22.1103 47.1303C23.4883 49.8862 25.4926 52.1411 28.1233 53.6443C30.7539 55.1475 32.7582 55.2728 34.1362 54.1454C35.5142 52.8927 36.1405 50.6378 36.2658 47.3808C36.2658 44.1238 35.6395 41.1173 34.2615 38.3614C32.7582 35.4801 30.7539 33.3506 28.1233 31.8473ZM49.0433 62.4132C46.4127 60.91 44.4084 60.6594 43.0304 61.9121C41.6524 63.1648 41.0261 65.4197 41.0261 68.6767C41.0261 71.9337 41.6524 74.9402 43.0304 77.6962C44.4084 80.4521 46.4127 82.7069 49.0433 84.2102C51.674 85.7134 53.6783 85.8387 55.0563 84.7112C56.4343 83.4585 57.1859 81.2037 57.1859 77.9467C57.1859 74.6897 56.5595 71.6832 55.1815 68.9273C53.6783 66.1713 51.674 63.9164 49.0433 62.4132ZM48.918 78.573C48.1664 78.1972 47.6654 77.4456 47.4148 76.3182C47.1643 75.316 47.039 73.8128 47.039 72.1842C47.039 70.3052 47.1643 69.0525 47.4148 68.4261C47.6654 67.7998 48.1664 67.6746 48.918 68.1756C49.6697 68.5514 50.1708 69.3031 50.4213 70.18C50.6718 71.0569 50.7971 72.5601 50.7971 74.4391C50.7971 76.1929 50.6718 77.4456 50.4213 78.1972C50.1708 78.8236 49.6697 78.9488 48.918 78.573ZM28.1233 48.0072C27.3716 47.6313 26.8706 46.8797 26.62 45.7523C26.3695 44.6249 26.2442 43.2469 26.2442 41.6184C26.2442 39.7393 26.3695 38.4866 26.62 37.8603C26.8706 37.2339 27.3716 37.1087 28.1233 37.6098C28.8749 37.9856 29.3759 38.7372 29.6265 39.6141C29.877 40.4909 30.0023 41.9942 30.0023 43.8733C30.0023 45.627 29.877 46.8797 29.6265 47.6314C29.3759 48.2577 28.8749 48.383 28.1233 48.0072ZM54.8058 47.2555L47.9159 43.2469L23.4883 67.9251L30.3781 71.9337L54.8058 47.2555Z" fill="white"/>
</svg>
