<svg width="248" height="49" viewBox="0 0 248 49" fill="none" xmlns="http://www.w3.org/2000/svg">
<path d="M0.00561459 29.972C0.137173 26.7063 2.29627 24.2531 3.72019 22.628C4.22321 22.0553 5.2215 20.9178 6.67638 20.3528C7.25678 19.4938 8.07708 18.7973 9.02121 18.3717C9.47779 14.1386 11.9542 10.4473 13.8115 7.6923C15.0032 5.9124 16.6903 3.67592 19.1434 2.08174C20.7918 1.00606 22.7419 0.448876 25.2725 0.332795C25.8297 0.309579 26.3946 0.247669 27.006 0.18576C27.9269 0.0928951 28.8787 3.05176e-05 29.8925 3.05176e-05C30.0241 3.05176e-05 30.1556 3.06945e-05 30.2872 0.0077694C33.2434 0.0851565 36.1686 0.835811 38.7533 2.18235C42.762 4.2718 45.9348 7.72326 47.676 11.8944C48.6434 14.2083 49.1077 16.5531 49.5565 18.8283L49.7578 19.8343C50.1911 19.7724 50.6245 19.7337 51.0578 19.7337C51.5144 19.7337 51.971 19.7724 52.4121 19.8421C52.4121 19.8421 54.1301 20.3296 54.548 21.8541C54.9659 23.3787 53.7896 24.8568 53.7896 24.8568C53.4414 25.1431 53.0854 25.3752 52.7294 25.561C53.0003 25.8318 53.217 26.1569 53.3717 26.5206C53.6116 27.0778 53.867 28.1457 53.1783 29.3994C53.5575 29.7399 53.8128 30.1268 53.9753 30.4828C54.4165 31.4192 54.3855 32.4794 53.9057 33.3848C53.4104 34.3135 52.4818 34.9635 51.4138 35.1338C51.0578 35.1879 50.7251 35.1957 50.5084 35.1957H50.2298C49.9744 35.2034 49.7113 35.2111 49.4482 35.2111C48.9994 35.2111 48.5273 35.1957 48.0475 35.157C47.7302 35.1338 47.4207 35.1028 47.1189 35.0641C46.7629 35.7219 46.3527 36.3719 45.8729 36.9678C45.4009 37.5482 44.8978 38.0126 44.449 38.415L44.2478 38.593C44.1317 38.7013 43.9924 38.8483 43.8454 39.0108C43.6906 39.1811 43.5126 39.3668 43.3114 39.5603C43.3114 40.2568 43.3269 40.8836 43.443 41.4795C43.4739 41.642 43.5281 41.9283 43.5977 42.1682C43.621 42.1915 43.6442 42.2147 43.6674 42.2379C44.627 43.2904 44.8746 44.7994 44.3097 46.084C43.737 47.3764 42.4524 48.2199 41.0362 48.2199C40.7035 48.2199 40.3707 48.1735 40.0534 48.0806C39.3105 47.8717 38.2426 47.3145 37.4145 45.8519C37.0818 45.2715 36.8496 44.6601 36.6716 44.0565C35.743 44.4202 34.7834 44.6988 33.8005 44.8923C32.6552 45.1167 31.4635 45.2328 30.2717 45.2328C28.1203 45.2328 25.9458 44.8613 23.8408 44.1571C23.3997 45.3334 22.5717 47.0514 20.8769 47.8562C20.4203 48.0729 19.9173 48.189 19.4143 48.189C18.3463 48.189 17.3326 47.6859 16.698 46.8502C16.0634 46.0144 15.8622 44.9464 16.1563 43.9249C16.1718 43.8708 16.1872 43.8166 16.2027 43.7702C15.9396 43.9017 15.6378 44.0023 15.305 44.072L13.6103 44.4279L12.8828 43.538C12.79 43.5767 12.6971 43.6154 12.6042 43.6541C12.0857 43.8553 11.5982 43.9559 11.1107 43.9559C10.3058 43.9559 9.53196 43.6695 8.93608 43.1511C8.64201 42.8957 8.40211 42.5939 8.22412 42.2688C8.12352 42.2766 8.02291 42.2843 7.91457 42.2843C7.06331 42.2843 6.23527 41.9825 5.58522 41.4253C4.27738 40.311 4.24642 38.7787 4.23095 38.1209C4.23095 38.1132 4.23095 38.1132 4.23095 38.1132C4.10713 37.9816 3.90592 37.7959 3.75889 37.6566L3.5809 37.4941C1.15868 35.2498 -0.0949886 32.58 0.00561459 29.972Z" fill="white"/>
<path d="M40.3706 21.622C40.3628 21.1808 39.9295 20.9874 39.5967 21.1035C39.2407 20.8481 38.8306 20.7088 38.374 20.701C38.0412 20.701 37.8555 20.9332 37.8245 21.1886C37.6543 21.1963 37.484 21.2195 37.306 21.2582C36.8959 21.3511 36.3929 21.5214 36.1297 21.8696C36.0988 21.8851 36.0601 21.8928 36.0291 21.916C35.7815 21.8696 35.4952 22.0398 35.3636 22.2797C35.2243 22.3184 35.1005 22.419 35.0309 22.5661C34.3189 22.8524 34.3112 23.6031 34.9612 23.99C35.0154 24.021 35.0773 24.0442 35.1392 24.0519C35.1779 24.0906 35.2166 24.137 35.263 24.1757C35.2862 24.1912 35.3017 24.2067 35.3249 24.2222C35.3559 24.2763 35.3868 24.3305 35.4255 24.3847C35.619 24.671 36.0214 24.7639 36.2845 24.524C36.3619 24.5859 36.4548 24.6323 36.5476 24.6555C36.6792 24.7561 36.8494 24.8258 37.0584 24.8335C37.2132 24.8413 37.3447 24.818 37.4531 24.7639C37.5537 24.7948 37.662 24.818 37.7858 24.8103C38.3817 24.7948 38.6603 24.3382 38.7841 23.812C38.8073 23.7888 38.8306 23.7656 38.8538 23.7424C38.9312 23.7501 39.0085 23.7501 39.0782 23.7269C39.3181 23.8197 39.6044 23.7191 39.7747 23.487C39.9604 23.2393 40.0378 22.953 40.092 22.6667C40.1461 22.6125 40.1848 22.5506 40.2158 22.4732C40.3551 22.2101 40.3783 21.9238 40.3706 21.622Z" fill="#F8B02D"/>
<path d="M45.9813 20.3373C45.7414 19.4629 45.3235 18.6271 44.9598 17.7913C44.5574 16.8549 44.1627 15.9185 43.799 14.9667C43.4972 14.1696 43.1103 13.4112 43.0483 12.5522C42.9864 11.7861 42.6459 11.3372 42.0114 10.9193C40.688 10.0294 40.3862 8.27269 39.0552 7.3363C38.4129 6.87972 37.7628 6.49279 37.1437 5.98977C36.5014 5.46354 35.8281 5.09208 35.0156 4.89087C34.1411 4.67419 33.2511 4.51942 32.3767 4.27952C31.4945 4.04736 30.6045 3.83067 29.6913 3.78424C28.7627 3.73781 27.9192 3.97771 27.0215 4.14022C26.0696 4.31821 25.1332 3.96997 24.1814 4.10926C22.5253 4.34916 21.0472 5.54866 19.84 6.63208C19.2286 7.18153 18.6637 7.73872 18.2226 8.4352C17.7583 9.17038 17.41 9.98294 16.9767 10.7413C15.8932 12.6296 14.9878 14.7036 14.2062 16.7388C13.8966 17.5514 13.8347 18.4104 13.6103 19.2462C13.5252 19.5712 13.3859 19.9427 13.3085 20.3064C13.3008 20.3064 13.3008 20.3141 13.293 20.3141C13.0067 20.4844 12.9061 20.732 12.7126 20.9874C12.3257 21.4904 12.937 22.1637 13.4323 21.7071C13.5175 21.6297 13.5871 21.56 13.6567 21.4904C13.858 21.5214 14.0901 21.4285 14.183 21.235C14.33 21.2041 14.4693 21.1654 14.6086 21.088C14.9646 20.8713 15.0961 20.5231 15.367 20.229C15.6224 19.9504 16.048 20.051 16.4117 19.9659C16.876 19.8653 17.263 19.6099 17.6344 19.3236C19.5149 17.8996 21.7514 17.2341 24.0421 16.8394C25.2648 16.6305 26.472 16.3364 27.6948 16.143C28.9716 15.934 30.2563 15.8257 31.5409 15.7096C32.1368 15.6554 32.7791 15.5239 33.375 15.6322C33.9476 15.7328 34.4816 16.0037 35.0233 16.2126C36.1764 16.6692 37.3914 16.9478 38.5289 17.474C39.0707 17.7216 39.5272 18.0931 40.0612 18.3562C40.5952 18.6193 41.1524 18.6503 41.7405 18.7045C42.9864 18.8283 44.2556 19.7414 44.8824 20.8094C45.2229 21.3898 46.167 21.0106 45.9813 20.3373ZM24.3516 12.9623C24.1814 12.9933 24.0498 12.9778 23.9337 12.9236C23.779 12.9314 23.6319 12.8463 23.5932 12.6683C23.5932 12.6683 23.5932 12.6683 23.5855 12.6683C23.5313 12.6992 23.4694 12.7224 23.4075 12.7379C22.9587 12.8463 22.5021 12.4903 22.2699 12.0569C21.8443 11.8557 21.4574 11.6003 21.3258 11.1283C21.2716 10.9271 21.4496 10.7723 21.6199 10.7723C21.7901 10.5324 22.0068 10.3389 22.2467 10.1609C22.4324 9.98294 22.6336 9.82043 22.8658 9.69661C22.8813 9.68887 22.8968 9.68887 22.9045 9.68113C22.9974 9.52636 23.0902 9.37158 23.1676 9.20907C23.276 8.97691 23.6474 8.99239 23.7635 9.20907C23.779 9.23229 23.7867 9.2555 23.8022 9.27872C23.8099 9.27098 23.8254 9.27098 23.8331 9.26324C23.8409 9.26324 23.8486 9.2555 23.8564 9.2555C23.9183 9.22455 23.9724 9.18585 24.0266 9.1549C24.1736 9.06977 24.3594 9.10073 24.4677 9.21681C24.6148 9.20133 24.7541 9.27872 24.785 9.47993C24.8005 9.60375 24.816 9.7353 24.8314 9.85912C24.8547 9.89008 24.8701 9.92877 24.8856 9.9752C24.9475 10.277 24.9785 10.5788 24.9862 10.8806C25.1952 11.7861 25.3964 12.7766 24.3516 12.9623ZM36.5169 11.167C36.4627 11.3295 36.4318 11.5075 36.3698 11.67C36.3466 11.7319 36.3157 11.7783 36.2692 11.817C36.277 11.8634 36.2847 11.9099 36.2847 11.964C36.277 12.2659 35.9365 12.3742 35.7198 12.1962C35.5031 12.0182 35.3406 11.7861 35.2013 11.5384C35.1626 11.4688 35.1549 11.3914 35.1703 11.3295C35.1626 11.314 35.1549 11.2985 35.1549 11.283C35.0775 11.0277 35.3638 10.7878 35.5882 10.8652C35.6037 10.8187 35.6347 10.78 35.6656 10.7413C35.7275 10.5788 35.9055 10.5014 36.068 10.5324C36.2538 10.3157 36.6717 10.4473 36.6562 10.7568C36.6562 10.9038 36.602 11.0509 36.5169 11.167Z" fill="#F8B02D"/>
<path d="M15.4982 37.8578C15.4827 37.7959 15.4672 37.734 15.4517 37.6721C15.4982 37.5792 15.5137 37.4631 15.4904 37.3393C15.4517 37.1381 15.3976 36.9369 15.3357 36.7434C15.3357 36.7357 15.3279 36.7202 15.3279 36.7125C15.3744 36.6119 15.3898 36.5035 15.3666 36.3797C15.3047 36.1011 15.2196 35.8225 15.119 35.5439C15.2583 35.3891 15.3124 35.1647 15.1731 34.9171C15.1654 34.9093 15.1577 34.8939 15.1577 34.8861C15.1422 34.8165 15.119 34.7468 15.0648 34.6772C15.0339 34.6307 14.9952 34.5766 14.9642 34.5301C14.6933 34.0116 14.4457 33.4777 14.1207 32.9824C14.0665 32.8973 13.9969 32.8354 13.9195 32.7889C13.7337 32.4794 13.5403 32.1698 13.3236 31.8758C13.1147 31.5972 12.7819 31.5894 12.5497 31.721C12.2402 31.2257 11.8378 30.7846 11.4276 30.359C11.3967 30.1423 11.2187 29.9953 11.0329 29.9643C10.9014 29.8327 10.7698 29.7012 10.6383 29.5774C10.3055 29.2523 9.75605 29.5 9.74058 29.9488C9.7251 30.3435 9.81023 30.7537 9.94952 31.1561C10.0888 31.8835 10.5996 32.6187 10.9788 33.1681C11.4586 33.8569 12.1241 34.7933 12.9908 34.9945C13.014 35.0022 13.045 35.0022 13.076 35.0022C13.1224 35.0409 13.1766 35.0796 13.223 35.1105C13.2385 35.3891 13.2772 35.6909 13.3391 35.985C13.3468 36.7279 13.6177 37.5482 13.9969 37.9971C14.0046 38.0822 14.0123 38.1596 14.0201 38.2447C14.051 38.7864 14.8172 38.9567 15.0184 38.4537C15.297 38.4691 15.5756 38.2215 15.4982 37.8578Z" fill="#F8B02D"/>
<path d="M9.81046 25.1818C9.7795 24.7639 9.26101 24.4621 8.92825 24.671C8.92051 24.6633 8.91277 24.6555 8.91277 24.6478C8.92825 24.6168 8.94372 24.5859 8.9592 24.5627C9.28423 23.9745 8.54905 23.4715 8.06925 23.8739C6.54472 25.1585 5.29105 26.9539 4.88864 28.9273C4.69517 29.8792 4.53266 30.9239 4.89638 31.8525C5.05889 32.2859 5.34522 32.6341 5.56965 33.0366C5.8405 33.5163 6.00302 34.0426 6.29709 34.5146C6.34352 34.5843 6.38995 34.6385 6.44412 34.6849C6.53699 35.1105 6.73819 35.5207 6.97035 35.8844C7.02452 35.9695 7.08643 36.0237 7.15608 36.0701C7.19478 36.341 7.26442 36.6041 7.38051 36.844C7.37277 36.9601 7.35729 37.0762 7.33407 37.1922C7.23347 37.6875 7.73649 37.9893 8.09247 37.8655C8.58 37.9738 8.90503 37.4553 9.09076 37.0297C9.0985 37.0065 9.11398 36.9833 9.12171 36.9601C9.14493 36.9059 9.16041 36.8517 9.18362 36.8053C9.40804 36.1862 9.45448 35.5129 9.46996 34.8551C9.54734 34.3599 9.60925 33.8646 9.60925 33.3616C9.60925 33.0288 9.36161 32.8508 9.0985 32.8353C9.0985 32.7966 9.0985 32.758 9.09076 32.7193C9.08302 32.6109 9.05206 32.5181 8.99789 32.4407C8.94372 31.8448 8.82764 31.2412 8.8199 30.6453C8.8199 30.5215 8.77347 30.4131 8.71156 30.328C8.80443 29.8869 8.81217 29.4303 8.80443 28.9583C8.80443 28.61 8.81217 28.2618 8.82764 27.9058C8.84312 27.782 8.86634 27.6581 8.87407 27.5266C8.9592 27.3718 9.03659 27.2093 9.10624 27.0391C9.15267 26.9849 9.18362 26.9307 9.21458 26.8611C9.2997 26.6521 9.37709 26.4509 9.44674 26.242C9.64021 26.1646 9.79498 26.0021 9.81046 25.7312C9.83367 25.5455 9.82594 25.3675 9.81046 25.1818Z" fill="#F8B02D"/>
<path d="M11.861 24.1912C11.8377 24.2067 11.8145 24.2221 11.7913 24.2376C11.5746 24.2686 11.3347 24.4466 11.327 24.6787C11.296 24.6787 11.2651 24.6865 11.2651 24.6865C11.0948 24.6942 10.9323 24.6942 10.7621 24.6942C10.3751 24.6942 10.1662 25.2824 10.5531 25.4681C11.1258 25.7389 12.0776 25.7467 12.2943 25.1198C12.3949 25.0579 12.4801 24.9728 12.5342 24.8645C12.7354 24.4466 12.3098 23.9281 11.861 24.1912Z" fill="#F8B02D"/>
<path d="M11.652 21.7612C11.4818 21.8696 11.3115 21.9934 11.1567 22.125C11.0174 22.2101 10.8859 22.2952 10.7543 22.3958C10.468 22.6125 10.1275 22.8601 9.95723 23.1774C9.85663 23.3786 9.97271 23.7269 10.2436 23.6959C10.2204 23.7578 10.1971 23.8197 10.1739 23.8817C9.96497 24.4698 10.8859 24.849 11.1799 24.3073C11.2264 24.2144 11.2651 24.1293 11.3038 24.0364C11.327 23.9977 11.3502 23.959 11.3734 23.9203C11.5746 23.8043 11.6984 23.5721 11.6211 23.3399C11.8764 23.1929 12.1009 22.9917 12.2788 22.7518C12.2866 22.7441 12.3021 22.7363 12.3098 22.7286C12.4259 22.6357 12.4723 22.5119 12.4723 22.3803C12.5497 21.947 12.0931 21.4749 11.652 21.7612Z" fill="#F8B02D"/>
<path d="M36.803 34.7546C36.7721 34.3754 36.5941 34.0116 36.2149 33.9033C36.1607 33.8878 36.1143 33.8801 36.0601 33.8801C35.7119 33.586 35.1469 33.733 35.0231 34.2128C35.0076 34.2593 35.0076 34.3057 34.9999 34.3599C34.938 34.4218 34.8838 34.5069 34.8606 34.6153C34.7677 34.9867 34.8916 35.304 35.1237 35.5207C35.1779 35.6755 35.2553 35.8148 35.3559 35.9463C35.588 36.2404 36.0291 36.163 36.269 35.9463C36.2845 35.9308 36.2923 35.9154 36.3077 35.8999C36.3851 35.8612 36.4625 35.8148 36.5244 35.7451C36.7721 35.4975 36.8262 35.0951 36.803 34.7546Z" fill="#F8B02D"/>
<path d="M22.2234 13.0088C22.7341 13.3106 23.6705 14.1309 24.2819 14.1309C25.2492 14.1309 25.4504 13.1326 25.7832 12.5135C25.9921 12.1266 25.8451 12.2581 26.232 12.0879C26.441 11.995 27.122 11.8093 27.2922 11.8789C27.8185 12.0801 27.4006 13.2642 28.1357 13.4344C29.0489 13.6511 28.7471 12.2813 28.6542 11.8015C28.9173 11.7628 29.2424 11.67 29.3971 11.7861C29.7299 12.0337 29.5132 12.9623 29.9543 13.2022C30.9836 13.744 30.558 11.9254 30.4651 11.5075C30.6972 11.4843 30.9294 11.4688 31.1616 11.4456C31.1925 11.9718 31.1848 13.2487 31.9664 13.1713C32.6784 13.1016 32.4307 12.0647 32.3998 11.5849C33.4367 11.5849 33.8856 11.4533 34.6208 12.1962C35.1625 12.7457 35.7042 13.713 36.54 13.1326C37.2055 12.676 37.2365 11.1128 37.1591 10.3234C37.043 9.16264 36.2459 9.28646 35.4024 9.80495C34.7755 10.1919 34.6982 10.4395 34.0404 10.4937C33.6999 10.5247 33.1814 10.5866 32.8486 10.5092C32.1676 10.3467 32.57 10.633 32.3456 10.0603C32.2295 9.76626 32.3765 9.31741 31.9122 9.26324C31.4866 9.20907 31.4402 9.65792 31.3009 9.92877C31.0068 10.5014 31.0223 10.4163 30.3103 10.486C30.2871 10.2074 30.4264 9.37932 30.1942 9.1549C29.6448 8.62093 29.3817 9.64244 29.2965 9.98294C29.2037 10.3776 29.2269 10.9271 28.6233 10.7491C28.3215 10.6639 28.5691 10.7491 28.3447 10.4473C28.0738 10.0758 28.4375 8.89952 27.8804 8.68284C27.2613 8.4352 27.1994 9.32515 27.1839 9.69661C27.1607 10.1841 27.3541 10.5324 27.0214 10.7723C26.7892 10.9425 26.2165 10.9348 25.9379 10.989C25.9457 10.0294 25.8993 8.63641 24.7617 8.38103C23.8872 8.17982 23.1443 8.88405 22.4555 9.33289C21.759 9.78173 19.7857 10.8729 20.428 11.8248C20.7453 12.3046 21.7436 12.7224 22.2234 13.0088ZM24.4366 13.0707C23.5389 12.3742 22.5097 11.8712 21.5656 11.2598C22.115 10.8574 24.158 9.04656 24.6301 9.50314C25.2879 10.1377 24.8623 12.4671 24.4366 13.0707ZM35.2476 11.2366C35.5804 11.0122 35.9209 10.78 36.2536 10.5556C36.1763 11.0664 36.0911 11.5849 36.0137 12.0956C35.7506 11.8093 35.4952 11.5229 35.2476 11.2366Z" fill="black"/>
<path d="M37.5226 25.5145C39.1013 25.5145 41.1598 23.9358 41.5468 22.3726C41.7557 21.5213 40.6878 20.5463 39.9603 20.0742C39.3103 19.6563 38.5209 19.5712 37.7548 19.6176C36.6249 19.6873 35.9826 20.2677 35.1701 21.0029C34.6361 21.4904 33.3515 22.6667 33.483 23.487C33.661 24.6478 36.6017 25.5145 37.5226 25.5145ZM37.2131 20.9332C38.0334 20.6701 39.5192 20.9719 39.9216 21.8232C40.3163 22.6512 38.962 23.8739 38.1417 24.1138C37.0428 24.4311 35.8279 23.7269 34.8218 23.3709C35.2552 22.5274 36.2767 21.235 37.2131 20.9332Z" fill="black"/>
<path d="M33.1429 35.7993C32.6398 36.0237 32.6166 36.519 32.0053 36.666C31.7421 36.7279 31.2314 36.6737 30.9451 36.6583C30.4188 36.6273 29.1652 35.8689 28.7937 36.0779C28.1823 36.4184 28.6312 36.9833 28.9949 37.2774C29.7146 37.8578 30.6355 37.8578 31.5177 37.9661C32.369 37.85 33.0887 37.8887 33.6846 36.9988C34.0792 36.4029 34.2108 35.3272 33.1429 35.7993Z" fill="black"/>
<path d="M24.096 11.3217C25.0015 11.2908 25.0711 9.94425 24.1502 9.88234C23.1364 9.82043 23.09 11.314 24.096 11.3217Z" fill="black"/>
<path d="M37.9407 23.8043C38.6527 23.8043 38.4669 23.3322 38.4128 22.8447C38.3741 22.4732 38.3586 21.2582 38.0723 21.0648C36.9811 20.3451 36.8186 23.8043 37.9407 23.8043Z" fill="black"/>
<path d="M50.6863 31.3882L45.896 30.9781C46.1514 30.3048 46.3681 29.616 46.5615 28.9273C46.577 28.9196 46.5925 28.9196 46.608 28.9118C47.4979 28.6642 48.4498 28.8035 49.3784 28.7648C49.8737 28.7493 50.2761 28.5945 50.5779 28.1844C50.8178 27.8594 50.9262 27.5189 50.4077 27.4569C49.982 27.4028 49.5409 27.5343 49.1076 27.5653C48.8445 27.5808 47.0878 27.6117 47.0026 27.8439C47.0568 27.7046 47.111 27.5653 47.1574 27.4182C47.3431 26.8843 47.4979 26.3503 47.5289 25.7776C47.5444 25.4449 47.5444 25.1121 47.5598 24.7793C47.6837 24.6555 47.8152 24.5394 47.9622 24.4311C49.1617 23.5721 50.8488 23.5953 51.9786 22.6589C50.4696 22.419 48.8677 22.7905 47.6063 23.6572L46.7627 19.3855C46.3371 17.2186 45.9038 15.0363 45.0525 12.9933C43.5821 9.46445 40.8349 6.47731 37.4453 4.71289C35.2166 3.55208 32.7247 2.92525 30.2174 2.8556C28.6077 2.8169 27.0136 3.10324 25.4117 3.18062C23.7633 3.25801 22.1072 3.55982 20.6988 4.47299C18.8338 5.68022 17.4098 7.46013 16.1794 9.28646C14.1441 12.32 11.8612 15.8334 11.807 19.6022C11.7993 19.9891 11.7838 20.4379 11.4665 20.6546C11.2885 20.7707 11.0564 20.7784 10.8474 20.8017C9.77174 20.9332 8.8431 21.8309 8.67284 22.9066C7.55847 22.7441 6.61435 23.6727 5.87143 24.5162C4.44751 26.1336 2.95394 27.9367 2.86108 30.0881C2.77595 32.1311 4.01414 34.0116 5.50771 35.4046C6.14229 36.0005 6.87746 36.6118 7.01676 37.4708C7.11736 38.0899 6.93164 38.8483 7.41144 39.2507C8.00732 39.7615 8.92048 39.096 9.23777 38.3763C9.55506 37.6566 9.69435 36.7666 10.3754 36.3642C11.0099 35.9927 11.8689 36.2558 12.3874 36.7743C12.9059 37.2928 13.1768 38.0125 13.4244 38.709C12.7124 39.1114 12.0082 39.5216 11.2963 39.924C10.8861 40.1562 10.4373 40.6979 10.7855 41.0074C10.979 41.1777 11.2885 41.1003 11.5284 41.0074C12.4029 40.6592 13.2309 40.2181 14.0048 39.6841C14.0745 40.2722 14.3221 40.8294 14.6936 41.286C15.7383 41.0693 15.3746 39.421 15.9782 38.5388C16.3883 37.9274 17.2551 37.7804 17.967 37.9738C18.679 38.1673 19.2749 38.6239 19.8785 39.0418C23.7401 41.7116 28.631 43.0117 33.2355 42.114C36.1375 41.5414 38.877 40.0401 40.8968 37.8965C40.9278 37.881 40.9587 37.8655 40.9819 37.85C41.4617 37.4631 41.8564 36.9523 42.313 36.5267C42.7773 36.0933 43.2571 35.6832 43.6518 35.1879C44.4102 34.2593 44.9596 33.0598 45.4394 31.9686C45.4549 31.9686 45.4781 31.9763 45.4936 31.9763C46.4068 32.1002 47.3199 32.2627 48.2486 32.3323C48.8677 32.3788 49.4945 32.3865 50.1136 32.3633C50.3071 32.3555 50.6708 32.3788 50.9649 32.3323C51.2667 32.2859 51.5375 32.0228 51.3828 31.7055C51.2667 31.4037 50.9571 31.4114 50.6863 31.3882ZM17.4176 15.2762C15.8931 15.2762 14.5001 16.9013 13.703 18.0157C14.1054 16.1662 15.2662 14.3708 16.5973 13.0475C16.8759 12.7689 17.8974 12.2426 17.8819 11.7706C17.8509 11.0122 16.6747 11.6622 16.4038 11.8248C16.3651 11.6468 16.4348 11.3914 16.5586 11.1051C16.6515 10.958 16.7366 10.7955 16.814 10.6253C17.1622 9.88234 17.7349 9.45671 18.1992 8.78345C19.1743 7.34405 20.3738 5.88917 22.0144 5.13078C23.9877 4.21761 26.4254 4.33369 28.5536 4.28726C30.8133 4.23309 33.1504 4.33369 35.2863 5.14625C36.3465 5.54867 37.2055 6.13681 38.0877 6.81781C38.9389 7.4756 39.8211 7.87028 40.5795 8.63641C41.3843 9.44124 41.8642 10.4318 42.3672 11.4301C42.4446 11.5849 42.6148 12.142 42.7618 12.2117C42.2588 11.9795 41.1135 11.2211 40.5099 11.5694C39.411 12.1962 41.2064 12.6141 41.6165 12.8153C42.2511 13.1249 43.3422 13.566 43.8143 14.1154C44.4257 14.8196 44.5882 16.0888 44.7429 16.9555C43.9072 16.5144 42.1505 15.7638 41.1831 15.934C40.061 16.1275 40.7962 16.7466 41.4308 16.9787C42.4755 17.3657 43.5976 17.5591 44.5727 18.1318C45.4859 18.6658 45.5323 19.7028 45.8031 20.6701C44.6423 20.0278 43.4506 19.4396 42.2898 18.8051C40.7807 17.9848 39.7437 17.1722 38.018 16.8781C36.4393 16.615 34.7987 16.143 33.2045 16.0733C31.8812 16.0191 30.5889 16.3287 29.2501 16.2513C26.3016 16.0733 23.446 16.6073 20.6833 17.6133C19.5922 18.008 18.501 18.364 17.4485 18.8592C16.1562 19.4706 14.1673 20.2986 13.3238 21.4904C13.2155 20.2445 14.6703 18.4104 15.4674 17.5591C15.7073 17.3115 18.6093 15.2762 17.4176 15.2762ZM25.52 19.2849C25.7599 19.3468 25.9224 19.5557 26.1081 19.7105C26.3094 19.8807 26.5183 20.0433 26.6886 20.2445C26.9439 20.5308 27.2612 20.9487 27.2999 21.3434C27.3076 21.4285 27.2148 21.4672 27.1451 21.4594C26.704 21.3975 26.5106 20.7939 26.2474 20.4998C25.9534 20.1748 25.3884 19.8885 25.3343 19.4242C25.3188 19.3158 25.4271 19.2694 25.5123 19.3003C25.52 19.2926 25.52 19.2926 25.52 19.2849ZM27.2922 19.8111C27.1916 19.7724 27.0987 19.726 27.0058 19.6718C26.7969 19.4861 26.5802 19.2926 26.3713 19.1378C26.0075 18.8051 25.6516 18.5342 25.0944 18.8051C24.3515 19.1688 23.9026 20.407 23.1133 20.6701C22.3858 20.91 21.4727 19.8498 20.6911 19.9427C20.0874 20.02 19.1433 20.8636 18.7564 21.2737C18.3153 21.7458 17.5956 22.5661 17.3479 23.2007C16.93 24.2686 17.8509 24.8722 18.5629 25.4836C17.3092 26.6985 16.0633 27.9135 14.8096 29.1285C14.5078 28.1379 14.2447 27.1938 14.1132 26.1646C13.9971 25.2669 13.672 24.1835 13.6798 23.2858C13.6875 22.1327 15.0341 21.5059 15.9782 20.9642C17.3479 20.1826 18.6945 19.548 20.1726 19.0218C21.9215 18.3949 23.7478 17.5669 25.6438 17.5669C26.5725 17.5669 27.4702 17.327 28.4065 17.3734C29.5751 17.4276 30.674 17.6752 31.8503 17.4972C31.2931 17.8377 30.7436 18.1937 30.1864 18.542C29.8614 18.7199 29.5364 18.9057 29.2191 19.0914C29.2036 19.0991 29.1882 19.1069 29.1649 19.1224C28.8244 19.3003 28.4762 19.4861 28.128 19.6408C27.4315 19.9504 28.0815 20.0897 27.2922 19.8111ZM22.3084 21.4672C22.3007 21.5291 22.2697 21.591 22.2001 21.6065C21.9215 21.6761 21.6042 21.4208 21.3566 21.3201C21.047 21.1963 20.722 21.0957 20.4434 20.91C20.3041 20.8171 20.3506 20.5695 20.5363 20.5772C20.9 20.585 21.3024 20.7397 21.6429 20.8713C21.8906 20.9719 22.3471 21.1189 22.3084 21.4672ZM12.7976 25.6538C13.3238 27.4569 13.6643 29.3374 14.2834 31.1096C13.0684 31.3031 12.2017 30.6995 11.66 29.5232C11.3117 28.7648 11.2808 27.8748 11.4665 27.07C11.6909 26.0872 12.2481 26.4122 12.7976 25.6538ZM11.451 25.0734C11.3195 25.0734 10.9171 24.9109 10.8784 24.7329C10.8397 24.5317 11.8148 24.3537 11.9927 24.2222C11.9154 24.5162 11.8689 25.0734 11.451 25.0734ZM9.36159 25.6925C9.26872 26.0021 9.16812 26.3039 9.05204 26.6057C8.83536 27.1861 8.58772 27.7587 8.37877 28.3392C7.95314 29.5309 7.76742 30.7536 8.10792 31.9918C8.23174 32.4329 8.47164 32.8586 8.59546 33.2919C8.72702 33.7717 8.83536 34.1277 8.92822 34.6385C9.02883 35.2266 9.23777 35.5594 9.03656 36.2326C8.88953 36.7047 8.62641 37.1613 8.42521 37.6256C8.21626 36.1862 7.25666 35.6368 6.35123 34.6539C5.54641 33.7795 4.43203 32.4948 4.06832 31.3263C3.47243 29.4226 4.69515 27.6814 5.84048 26.2729C6.23515 25.7854 6.65304 25.3211 7.08641 24.8722C7.30309 24.6478 7.55847 24.4853 7.80611 24.3073C7.93767 24.2144 8.31686 23.7191 8.51033 23.8352C8.67284 23.9281 8.44842 24.3305 8.39425 24.4466C8.27043 24.6942 8.10792 24.9264 7.95314 25.1585C7.63586 25.6461 7.24118 26.1104 7.0245 26.6521C6.90068 26.9617 6.23515 28.4707 6.62209 28.7803C7.00128 29.0898 7.51978 28.3005 7.69003 28.0064C7.99958 27.4647 8.224 26.8843 8.49485 26.3271C8.63415 26.0408 8.78893 25.7544 8.96692 25.4913C9.05978 25.352 9.12169 25.1972 9.22229 25.0657C9.30742 24.9496 9.49315 24.7329 9.58601 24.9109C9.6634 25.0889 9.40802 25.5145 9.36159 25.6925ZM9.84139 23.3709C10.0271 22.1559 10.8784 22.0631 11.8535 21.7226C12.1088 21.6374 11.4665 23.0072 11.2189 23.1774C10.8474 23.4406 10.2902 23.309 9.84139 23.3709ZM11.8767 34.5688C11.0796 34.414 10.298 32.8199 10.1974 32.0847C10.1355 31.6204 10.298 31.1793 10.3831 30.7382C10.4141 30.5756 10.592 29.8946 10.5224 29.7476C10.8397 30.4054 11.1492 31.0864 11.7451 31.543C11.4743 31.6204 10.623 31.7132 10.4682 32.0305C10.1122 32.7889 11.2421 32.6496 11.6136 32.58C12.016 32.5026 12.4416 32.2395 12.8517 32.3788C13.4244 32.5722 14.1751 33.5086 14.4614 34.0116C13.7107 34.12 12.5499 34.7004 11.8767 34.5688ZM14.531 37.9738C14.3298 37.6952 14.1518 37.4012 13.9816 37.1071C13.8268 36.5886 13.4708 36.1088 13.053 35.6677C12.991 35.5903 12.9291 35.5129 12.8595 35.4433C13.2464 35.3427 13.6256 35.2498 14.0126 35.1802C14.6471 35.0641 14.7013 34.9635 14.9644 35.3349C15.3049 35.8225 14.9412 37.6101 14.531 37.9738ZM16.0788 37.2619V35.0873C16.4657 35.6368 16.8604 36.1862 17.2473 36.7279C16.8604 36.9136 16.4735 37.0916 16.0788 37.2619ZM16.0246 31.899C16.4889 31.8757 17.1545 31.7055 17.5956 31.8138C17.9206 31.8912 17.967 32.1543 18.3772 32.1079C18.648 32.0769 19.0118 31.7364 19.2362 31.5894C19.4761 31.9763 19.7082 32.3633 19.9481 32.758C19.1743 33.0211 18.3772 33.2842 17.5724 33.4467C16.4348 33.6711 16.5741 33.23 16.1407 32.1776C16.102 32.0847 16.0633 31.9918 16.0246 31.899ZM18.6403 36.2094C18.47 36.2558 18.323 36.2713 18.1992 36.2326C17.7813 35.7606 17.3634 35.2653 17.1312 34.6694C18.1837 34.5998 19.2439 34.12 20.2654 33.8491C21.0857 33.6324 21.0161 33.6634 21.6893 34.236C21.3334 34.4527 20.4666 35.1802 19.6541 35.6909C19.4219 35.8147 19.1975 35.9308 18.9653 36.0392C18.8338 36.1166 18.7254 36.1707 18.6403 36.2094ZM41.6629 35.4433C40.4093 37.0916 38.6913 38.2989 36.8959 39.3049C36.3774 39.599 35.8125 39.7924 35.2553 39.9859C34.2415 40.3341 33.2278 40.7211 32.1521 40.8062C30.9526 40.8991 29.7453 40.8062 28.5458 40.7211C28.1744 40.6979 27.8029 40.6592 27.4469 40.5431C27.0755 40.427 26.7118 40.2722 26.3248 40.1949C23.7246 39.6454 21.3875 38.4382 19.1046 37.0684C19.1511 37.0994 19.7237 36.7202 19.8011 36.6815C20.0642 36.5422 20.3351 36.4029 20.5982 36.2559C20.9774 36.0469 21.3411 35.8147 21.6816 35.5516C21.9912 35.3117 22.3007 35.0254 22.6799 34.9093C23.268 34.7313 23.9104 35.1337 24.5372 35.1956C25.2337 35.2653 25.9611 35.2808 26.6653 35.2808C28.0119 35.273 29.0953 34.9635 30.0007 33.9497C30.287 33.6247 30.8829 32.696 31.2544 32.727C31.5949 32.758 32.2527 33.5473 32.5777 33.733C33.1736 34.0658 33.8623 34.1277 34.3034 34.6539C34.76 35.2034 34.8219 36.1011 35.3172 36.6273C36.4084 37.7881 37.0894 35.5052 37.3525 34.6462C37.5769 33.8955 37.3061 34.1587 37.9948 33.7949C38.6758 33.4312 39.4419 32.9359 39.9991 32.3633C40.1771 32.1853 40.3551 31.9454 40.626 31.9531C41.1445 31.9763 41.6939 32.0073 42.2279 31.9531C42.3826 31.9377 43.0327 31.9222 43.1875 31.9067C43.2881 31.899 43.3887 31.8835 43.4893 31.9144C44.3251 32.2008 41.9183 35.1183 41.6629 35.4433ZM29.9852 26.3426C29.9233 26.3116 29.8769 26.2187 29.9079 26.1491C30.1013 25.6925 30.9603 25.7699 31.355 25.7854C31.8503 25.8009 32.5854 25.8473 32.7866 26.389C32.9414 26.7914 32.2914 26.9617 32.1443 26.567C32.1676 26.6366 32.0824 26.567 32.036 26.5515C31.9354 26.5128 31.8271 26.4973 31.7264 26.4819C31.4943 26.4432 31.2544 26.42 31.0222 26.4122C30.7049 26.4045 30.2793 26.4973 29.9852 26.3426ZM35.116 34.3212C35.4255 34.298 36.2381 34.2825 36.5477 34.2593C36.4161 34.6307 36.0292 35.629 35.8899 36.0005L35.116 34.3212ZM44.3405 30.8929C43.8685 31.1947 41.7171 30.7304 41.1522 30.7227C41.1522 30.7227 41.7249 29.3684 41.9648 29.2059C42.5374 28.819 44.5108 29.0124 45.1763 28.9737C44.9132 29.4303 44.7584 30.6298 44.3405 30.8929ZM44.2631 28.1225C44.1935 28.1225 44.1238 28.1225 44.0619 28.1302C43.3268 28.1457 42.5993 28.1844 41.8642 28.2308C40.8968 28.2927 39.914 28.2695 38.9389 28.3005C38.4127 28.3159 37.8865 28.3856 37.368 28.4939C37.0275 28.5713 36.5941 28.8499 36.7566 29.1595C36.8495 29.3374 37.0816 29.3761 37.2751 29.3916C38.343 29.4767 39.4187 29.4535 40.4789 29.322C40.5254 29.8869 39.9991 30.359 39.4419 30.475C38.8848 30.5911 38.3198 30.4441 37.7704 30.3203C37.2209 30.1964 36.625 30.1036 36.0988 30.3125C35.9595 30.3667 35.8202 30.4518 35.7583 30.5911C35.5803 30.9703 36.0988 31.2953 36.509 31.3882C37.3602 31.5739 38.227 31.6591 39.1014 31.6358C38.4282 32.4871 37.3061 32.8276 36.2304 32.9901C35.3095 33.1294 34.3421 33.1758 33.4599 32.8663C32.5777 32.5567 31.7961 31.8448 31.6181 30.9239C31.4169 29.825 32.0902 28.7725 32.8021 27.9213C33.2819 27.3486 33.8236 26.5206 33.3593 25.9324C33.1968 25.7235 32.9414 25.6074 32.686 25.53C31.1693 25.027 29.4126 25.3211 28.1434 26.3039C28.0196 26.4045 27.8881 26.5206 27.8571 26.6753C27.8184 26.8611 27.919 27.0468 28.0351 27.1938C28.7393 28.0528 30.1555 28.2772 30.5424 29.322C30.6585 29.6315 30.6508 29.972 30.6121 30.3048C30.4496 31.6204 29.668 32.8431 28.5381 33.5396C27.4082 34.236 25.9611 34.3831 24.7152 33.9342C25.4736 33.617 26.1623 33.1062 26.6808 32.4639C26.7659 32.3555 26.8511 32.2395 26.8511 32.1002C26.8433 31.7829 26.41 31.6823 26.1004 31.7597C25.3962 31.9377 24.87 32.5103 24.2741 32.9282C23.6782 33.3538 22.8347 33.6247 22.2543 33.1836C23.1984 32.8973 24.1193 32.5413 25.0093 32.1079C25.2956 31.9686 25.6283 31.7442 25.5742 31.4269C25.52 31.0554 25.0093 30.9858 24.6301 31.0477C23.9723 31.156 23.3377 31.3572 22.7418 31.6513C22.3394 31.8525 21.937 32.1002 21.4881 32.1311C21.0393 32.1621 20.5285 31.868 20.5053 31.4192C22.0685 31.4346 23.6318 31.2025 25.1253 30.7304C25.5355 30.5989 26.0308 30.2351 25.8141 29.8637C25.667 29.6083 25.3033 29.6238 25.0093 29.6625C23.6472 29.8714 22.293 30.0804 20.931 30.2893C21.1863 30.15 21.2869 29.6857 21.0548 29.4458C20.7607 29.144 20.2577 29.1982 19.894 29.4071C19.538 29.616 19.2671 29.9488 18.9344 30.2042C17.8974 31.009 16.4502 30.9394 15.1424 30.831C15.2275 30.8388 15.6222 30.2816 15.6996 30.2042C15.9085 29.9798 16.1252 29.7553 16.3496 29.5387C16.7985 29.1053 17.2628 28.6951 17.7503 28.3159C18.145 28.0064 18.5939 27.7433 18.9653 27.4028C19.36 27.0391 19.7237 26.7527 20.2964 26.9075C20.8071 27.0468 21.2095 27.426 21.6274 27.751C22.3781 28.3392 23.2448 28.7725 24.1657 29.0279C24.3515 29.0821 24.5449 29.1208 24.7307 29.0821C25.2259 28.9737 25.3884 28.3701 25.52 27.8826C25.8528 26.5979 26.5106 25.4294 27.1838 24.2841C27.7023 23.4019 28.244 22.5196 28.9483 21.7767C30.0626 20.6082 31.533 19.8575 32.9724 19.1224C34.1796 18.511 35.4488 17.8842 36.7953 17.9229C38.0644 17.9616 39.233 18.5884 40.3474 19.2075C41.6242 19.9117 42.9011 20.6159 44.178 21.3201C45.0448 21.7999 46.0198 22.4345 46.105 23.4251C46.1282 23.6882 46.0663 23.9745 45.8805 24.168C45.7025 24.3537 45.4394 24.4156 45.1918 24.4775C42.9166 25.027 40.6724 25.7389 38.4978 26.6057C37.6466 26.9462 36.7953 27.3176 36.1298 27.9367C35.9982 28.0606 35.8667 28.2153 35.8899 28.3933C35.9363 28.7725 36.5012 28.7338 36.8572 28.5868C39.8289 27.3254 43.2494 26.0795 46.3216 25.1199C46.2365 25.5764 46.1437 26.0253 46.0585 26.4819C45.9811 26.892 45.9038 27.3486 45.6252 27.6736C45.3001 28.0373 44.7662 28.107 44.2631 28.1225Z" fill="black"/>
<path d="M41.5547 44.1648C41.307 43.894 41.2219 43.9172 41.0362 43.4761C40.8427 43.0118 40.7344 42.5087 40.6415 42.0135C40.4325 40.9068 40.4558 39.8389 40.4712 38.7245C40.479 38.0512 39.5194 37.7804 39.1866 38.3763C38.7223 39.2275 38.9003 40.458 39.0241 41.3711C39.1634 42.4081 39.3646 43.5225 39.8831 44.4512C40.0843 44.7994 40.3939 45.225 40.804 45.3411C41.5237 45.5423 42.0577 44.722 41.5547 44.1648Z" fill="black"/>
<path d="M21.6893 39.4055C21.5965 38.7554 20.5517 38.9257 20.5595 39.5603C20.575 40.4812 20.3428 41.4021 20.0332 42.2611C19.8785 42.7022 19.7005 43.1356 19.4683 43.5457C19.2594 43.9172 18.9885 44.2809 18.8724 44.6988C18.7409 45.1631 19.2439 45.4726 19.6386 45.2869C20.5363 44.8613 21.047 43.4993 21.3488 42.6248C21.7125 41.5646 21.8518 40.4967 21.6893 39.4055Z" fill="black"/>
<path d="M90.2003 36.6004C89.8003 37.0004 89.4003 37.3004 89.0003 37.6004C88.5003 38.0004 88.0003 38.3004 87.4003 38.5004C86.8003 38.8004 86.0003 39.0004 85.3003 39.2004C84.5003 39.4004 83.6003 39.5004 82.8003 39.5004C81.3003 39.5004 79.8003 39.2004 78.4003 38.6004C77.1003 38.0004 76.0003 37.2004 75.1003 36.1004C74.2003 35.0004 73.5003 33.7004 73.0003 32.2004C72.5003 30.6004 72.3003 28.9004 72.3003 27.2004C72.3003 25.7004 72.5003 24.2004 73.1003 22.7004C73.6003 21.3004 74.3003 20.0004 75.3003 18.8004C76.3003 17.7004 77.5003 16.7004 78.9003 16.0004C80.4003 15.3004 82.0003 14.9004 83.6003 14.9004C84.8003 14.9004 85.9003 15.0004 87.1003 15.4004C88.0003 15.7004 88.8003 16.2004 89.5003 16.8004C89.9003 17.1004 90.2003 17.5004 90.4003 18.0004C90.6003 18.3004 90.7003 18.7004 90.7003 19.1004C90.8003 20.2004 90.0003 21.1004 88.9003 21.1004C88.8003 21.1004 88.8003 21.1004 88.7003 21.1004C88.3003 21.1004 87.9003 21.0004 87.6003 20.8004C87.2003 20.6004 86.9003 20.2004 86.6003 19.9004C86.5003 19.7004 86.3003 19.5004 86.2003 19.4004C86.0003 19.2004 85.8003 19.0004 85.5003 18.8004C85.2003 18.6004 84.9003 18.4004 84.6003 18.3004C84.2003 18.2004 83.8003 18.1004 83.4003 18.1004C82.5003 18.1004 81.7003 18.3004 81.0003 18.8004C80.3003 19.3004 79.7003 20.0004 79.3003 20.7004C78.8003 21.6004 78.4003 22.6004 78.2003 23.6004C78.0003 24.7004 77.8003 25.9004 77.8003 27.1004C77.8003 28.3004 77.9003 29.4004 78.2003 30.6004C78.4003 31.6004 78.8003 32.6004 79.3003 33.5004C79.7003 34.3004 80.3003 34.9004 81.0003 35.5004C81.7003 36.0004 82.6003 36.2004 83.4003 36.2004C83.9003 36.2004 84.4003 36.1004 84.8003 36.0004C85.2003 35.8004 85.7003 35.6004 86.0003 35.4004C86.4003 35.2004 86.7003 35.0004 87.0003 34.7004C87.2003 34.5004 87.4003 34.3004 87.6003 34.2004C88.3003 33.4004 88.9003 33.0004 89.4003 33.0004C89.9003 33.0004 90.3003 33.2004 90.6003 33.5004C91.0003 33.8004 91.2003 34.2004 91.2003 34.6004C91.2003 35.3004 90.9003 36.0004 90.2003 36.6004Z" fill="white" stroke="#181716" stroke-width="0.25" stroke-miterlimit="10"/>
<path d="M114.9 38.4004C114.7 38.6004 114.5 38.7004 114.3 38.8004C114.1 38.9004 113.8 39.0004 113.5 39.0004C113.2 39.0004 112.9 39.0004 112.6 39.0004C112.3 39.0004 112 39.0004 111.6 39.0004C111.3 39.0004 111 38.9004 110.7 38.8004C110.4 38.7004 110.2 38.5004 110 38.3004C109.8 38.0004 109.6 37.7004 109.5 37.3004L107.9 33.1004C107.9 33.0004 107.8 32.8004 107.7 32.7004C107.5 32.6004 107.3 32.6004 107.1 32.6004H100.1C99.9004 32.6004 99.7004 32.6004 99.5004 32.7004C99.3004 32.8004 99.1004 33.0004 99.0004 33.3004L97.0004 37.4004C96.7004 38.5004 95.6004 39.2004 94.5004 39.0004C94.0004 39.0004 93.6004 38.9004 93.3004 38.5004C93.1004 38.2004 92.9004 37.8004 92.9004 37.4004C92.9004 36.9004 93.0004 36.5004 93.2004 36.1004L102.8 16.8004C102.9 16.6004 103 16.4004 103.1 16.2004C103.2 16.0004 103.3 15.8004 103.5 15.7004C103.6 15.5004 103.8 15.4004 104 15.3004C104.2 15.2004 104.5 15.1004 104.7 15.1004C105 15.1004 105.3 15.1004 105.5 15.3004C105.7 15.4004 105.9 15.6004 106.1 15.8004C106.3 16.0004 106.4 16.2004 106.5 16.4004C106.6 16.6004 106.7 16.9004 106.8 17.1004L115 36.6004C115.1 36.8004 115.1 37.0004 115.2 37.2004C115.2 37.4004 115.2 37.5004 115.2 37.7004C115.2 38.0004 115.1 38.2004 114.9 38.4004ZM106.3 29.7004C106.3 29.6004 106.3 29.4004 106.3 29.3004C106.3 29.1004 106.2 29.0004 106.1 28.8004C106 28.7004 106 28.6004 106 28.4004L104 23.2004H103.9L101.3 28.4004C101.1 28.8004 101 29.1004 100.8 29.5004C100.8 29.7004 100.9 29.8004 101.1 29.8004H106C106.2 29.9004 106.3 29.8004 106.3 29.7004Z" fill="white" stroke="#181716" stroke-width="0.25" stroke-miterlimit="10"/>
<path d="M135.3 38.6004C134.8 39.0004 134.2 39.1004 133.6 39.1004C133 39.1004 132.4 39.0004 131.9 38.7004C131.4 38.3004 131 37.9004 130.7 37.4004L122.3 25.1004H122.2L121.8 36.9004C121.8 37.8004 121.6 38.4004 121.1 38.6004C120.7 38.8004 120.1 39.0004 119.6 39.0004C118.9 39.0004 118.4 38.8004 118.1 38.5004C117.8 38.0004 117.6 37.5004 117.7 36.9004V17.7004C117.7 17.3004 117.8 16.9004 118 16.5004C118.2 16.3004 118.4 16.0004 118.7 15.9004C118.9 15.8004 119.2 15.7004 119.5 15.7004C119.8 15.7004 120 15.7004 120.2 15.7004C120.7 15.7004 121.2 15.8004 121.7 16.0004C122.2 16.3004 122.6 16.8004 122.9 17.3004L131.3 29.9004H131.4L131.8 17.9004C131.8 17.3004 131.9 16.8004 132.3 16.3004C132.5 16.0004 133 15.8004 133.8 15.8004C134 15.8004 134.3 15.8004 134.5 15.9004C134.7 15.9004 135 16.0004 135.1 16.2004C135.3 16.3004 135.5 16.6004 135.6 16.8004C135.7 17.2004 135.8 17.5004 135.8 17.9004V37.1004C135.9 37.7004 135.7 38.3004 135.3 38.6004Z" fill="white" stroke="#181716" stroke-width="0.25" stroke-miterlimit="10"/>
<path d="M159.7 31.8004C159.2 33.2004 158.5 34.4004 157.6 35.5004C156.7 36.6004 155.5 37.5004 154.2 38.0004C152.7 38.6004 151.2 39.0004 149.6 38.9004H142.8C142.5 38.9004 142.2 38.9004 141.9 38.8004C141.6 38.7004 141.4 38.6004 141.1 38.4004C140.9 38.2004 140.7 37.9004 140.5 37.7004C140.4 37.3004 140.3 36.9004 140.3 36.5004V17.8004C140.3 16.4004 141.1 15.7004 142.7 15.7004H148.6C150.3 15.7004 152 15.9004 153.6 16.5004C155 17.0004 156.2 17.7004 157.3 18.8004C158.3 19.8004 159.1 21.1004 159.6 22.4004C160.1 24.0004 160.4 25.6004 160.4 27.3004C160.5 28.8004 160.2 30.3004 159.7 31.8004ZM154.6 23.7004C154.4 22.7004 154 21.8004 153.3 21.0004C152.7 20.3004 151.9 19.7004 151 19.3004C149.9 18.9004 148.6 18.7004 147.5 18.8004L145.6 18.9004V35.8004L148.1 35.9004C149.2 36.0004 150.4 35.8004 151.4 35.3004C152.3 34.9004 153 34.2004 153.5 33.4004C154 32.6004 154.4 31.7004 154.6 30.7004C155.1 28.4004 155.1 26.0004 154.6 23.7004Z" fill="white" stroke="#181716" stroke-width="0.25" stroke-miterlimit="10"/>
<path d="M178.6 17.6004L172.7 30.2004V36.6004C172.7 37.1004 172.7 37.5004 172.6 38.0004C172.5 38.3004 172.4 38.5004 172.1 38.7004C171.9 38.9004 171.6 39.0004 171.2 39.0004C170.8 39.0004 170.5 39.0004 170 39.0004C169.6 39.0004 169.3 39.0004 169 39.0004C168.7 39.0004 168.5 38.9004 168.2 38.8004C168 38.6004 167.8 38.4004 167.7 38.1004C167.6 37.6004 167.5 37.2004 167.5 36.7004V30.6004L161.6 17.8004C161.5 17.6004 161.4 17.3004 161.4 17.1004C161.4 16.7004 161.6 16.4004 161.9 16.2004C162.3 16.0004 162.9 15.8004 163.8 15.8004C164.3 15.8004 164.9 15.8004 165.4 16.0004C165.8 16.1004 166.1 16.2004 166.4 16.4004C166.6 16.6004 166.8 16.8004 166.9 17.0004C167 17.2004 167.1 17.5004 167.3 17.7004L170.1 23.9004C170.3 24.4004 170.6 24.7004 170.7 24.7004C170.9 24.7004 171.1 24.5004 171.3 24.0004C171.6 23.1004 171.9 22.3004 172.2 21.5004C172.4 20.8004 172.7 20.1004 172.9 19.4004C173.1 18.7004 173.4 18.1004 173.5 17.7004C173.7 17.1004 174 16.6004 174.5 16.2004C174.9 15.9004 175.6 15.7004 176.6 15.7004C177.4 15.7004 178 15.8004 178.3 16.0004C178.6 16.2004 178.7 16.5004 178.7 16.8004C178.7 17.1004 178.7 17.3004 178.6 17.6004Z" fill="white" stroke="#181716" stroke-width="0.25" stroke-miterlimit="10"/>
<path d="M206.4 36.6004C206 37.0004 205.6 37.3004 205.2 37.6004C204.7 38.0004 204.2 38.3004 203.6 38.5004C203 38.8004 202.2 39.0004 201.5 39.2004C200.7 39.4004 199.8 39.5004 199 39.5004C197.5 39.5004 196 39.2004 194.6 38.6004C193.3 38.0004 192.2 37.2004 191.3 36.1004C190.4 35.0004 189.7 33.7004 189.2 32.2004C188.7 30.6004 188.5 28.9004 188.5 27.2004C188.5 25.7004 188.7 24.2004 189.3 22.7004C189.8 21.3004 190.5 20.0004 191.5 18.8004C192.5 17.7004 193.7 16.7004 195.1 16.0004C196.6 15.3004 198.2 14.9004 199.8 14.9004C201 14.9004 202.1 15.0004 203.3 15.4004C204.2 15.7004 205 16.2004 205.7 16.8004C206.1 17.1004 206.4 17.5004 206.6 18.0004C206.8 18.3004 206.9 18.7004 206.9 19.1004C207 20.2004 206.2 21.1004 205.1 21.1004C205 21.1004 205 21.1004 204.9 21.1004C204.5 21.1004 204.1 21.0004 203.8 20.8004C203.4 20.6004 203.1 20.2004 202.8 19.9004C202.7 19.7004 202.5 19.5004 202.4 19.4004C202.2 19.2004 202 19.0004 201.7 18.8004C201.4 18.6004 201.1 18.4004 200.8 18.3004C200.4 18.2004 200 18.1004 199.6 18.1004C198.7 18.1004 197.9 18.3004 197.2 18.8004C196.5 19.3004 195.9 20.0004 195.5 20.7004C195 21.6004 194.6 22.6004 194.4 23.6004C194.2 24.7004 194 25.9004 194 27.1004C194 28.3004 194.1 29.4004 194.4 30.6004C194.6 31.6004 195 32.6004 195.5 33.5004C195.9 34.3004 196.5 34.9004 197.2 35.5004C197.9 36.0004 198.8 36.2004 199.6 36.2004C200.1 36.2004 200.6 36.1004 201 36.0004C201.4 35.8004 201.9 35.6004 202.2 35.4004C202.6 35.2004 202.9 35.0004 203.2 34.7004C203.4 34.5004 203.6 34.3004 203.8 34.2004C204.5 33.4004 205.1 33.0004 205.6 33.0004C206.1 33.0004 206.5 33.2004 206.8 33.5004C207.2 33.8004 207.4 34.2004 207.4 34.6004C207.4 35.3004 207.1 36.0004 206.4 36.6004Z" fill="white" stroke="#181716" stroke-width="0.25" stroke-miterlimit="10"/>
<path d="M231.1 38.4004C230.9 38.6004 230.7 38.7004 230.5 38.8004C230.3 38.9004 230 39.0004 229.7 39.0004C229.4 39.0004 229.1 39.0004 228.8 39.0004C228.5 39.0004 228.2 39.0004 227.8 39.0004C227.5 39.0004 227.2 38.9004 226.9 38.8004C226.6 38.7004 226.4 38.5004 226.2 38.3004C226 38.0004 225.8 37.7004 225.7 37.3004L224.1 33.1004C224.1 33.0004 224 32.8004 223.9 32.7004C223.7 32.6004 223.5 32.6004 223.3 32.6004H216.3C216.1 32.6004 215.9 32.6004 215.7 32.7004C215.5 32.8004 215.3 33.0004 215.2 33.3004L213.2 37.4004C212.9 38.5004 211.8 39.2004 210.7 39.0004C210.2 39.0004 209.8 38.9004 209.5 38.5004C209.3 38.2004 209.1 37.8004 209.1 37.4004C209.1 36.9004 209.2 36.5004 209.4 36.1004L219 16.8004C219.1 16.6004 219.2 16.4004 219.3 16.2004C219.4 16.0004 219.5 15.8004 219.7 15.7004C219.8 15.5004 220 15.4004 220.2 15.3004C220.4 15.2004 220.7 15.1004 220.9 15.1004C221.2 15.1004 221.5 15.1004 221.7 15.3004C221.9 15.4004 222.1 15.6004 222.3 15.8004C222.5 16.0004 222.6 16.2004 222.7 16.4004C222.8 16.6004 222.9 16.9004 223 17.1004L231.2 36.6004C231.3 36.8004 231.3 37.0004 231.4 37.2004C231.4 37.4004 231.4 37.5004 231.4 37.7004C231.4 38.0004 231.3 38.2004 231.1 38.4004ZM222.5 29.7004C222.5 29.6004 222.5 29.4004 222.5 29.3004C222.5 29.1004 222.4 29.0004 222.3 28.8004C222.2 28.7004 222.2 28.6004 222.2 28.4004L220.2 23.2004H220.1L217.5 28.4004C217.3 28.8004 217.1 29.1004 217 29.5004C217 29.7004 217.1 29.8004 217.3 29.8004H222.2C222.4 29.9004 222.5 29.8004 222.5 29.7004Z" fill="white" stroke="#181716" stroke-width="0.25" stroke-miterlimit="10"/>
<path d="M247 18.5004C246.5 18.8004 245.9 19.0004 245.3 18.9004H240.8C240.6 18.9004 240.4 19.0004 240.4 19.3004L239.7 37.0004C239.7 37.4004 239.6 37.8004 239.4 38.1004C239.2 38.3004 239 38.6004 238.7 38.7004C238.5 38.8004 238.2 38.9004 237.9 38.9004C237.7 38.9004 237.4 38.9004 237.2 38.9004C236.5 38.9004 236 38.7004 235.7 38.4004C235.4 37.9004 235.2 37.4004 235.3 36.8004V19.4004C235.3 19.3004 235.3 19.2004 235.2 19.0004C235.2 18.9004 235.1 18.9004 234.9 18.9004H230.4C229.8 18.9004 229.3 18.8004 228.8 18.5004C228.4 18.3004 228.2 17.8004 228.2 17.3004C228.2 16.8004 228.4 16.4004 228.7 16.1004C229.2 15.7004 229.8 15.6004 230.4 15.6004H245.4C246 15.6004 246.6 15.7004 247 16.1004C247.4 16.4004 247.6 16.8004 247.6 17.3004C247.5 17.8004 247.3 18.2004 247 18.5004Z" fill="white" stroke="#181716" stroke-width="0.25" stroke-miterlimit="10"/>
</svg>
