<svg width="217" height="47" viewBox="0 0 217 47" fill="none" xmlns="http://www.w3.org/2000/svg">
<path d="M41.7807 20.7222C41.7807 20.3695 41.514 20.105 41.1585 20.105C41.0696 20.105 40.9807 20.105 40.9807 20.105C40.5363 19.8404 40.0918 19.6641 39.6474 19.6641C39.2919 19.6641 39.0252 19.8404 39.0252 20.1931C38.8474 20.1931 38.6697 20.1931 38.4919 20.2813C37.9586 20.3695 37.5141 20.634 37.1586 20.9868C37.1586 20.9868 37.0697 20.9868 37.0697 21.0749C36.7141 21.0749 36.4475 21.1631 36.3586 21.5158C36.1808 21.5158 36.0919 21.6922 36.003 21.8686C35.0253 22.1331 35.0253 22.9267 35.7364 23.3676C35.8253 23.3676 35.8253 23.4558 35.9142 23.4558C35.9142 23.544 36.003 23.544 36.003 23.544C36.003 23.544 36.003 23.544 36.0919 23.6321C36.0919 23.7203 36.1808 23.7203 36.1808 23.8085C36.3586 24.1612 36.7141 24.2494 37.0697 23.9849C37.0697 23.9849 37.1586 23.9849 37.1586 23.8967C37.2475 23.9849 37.3363 23.9849 37.4252 24.073C37.603 24.1612 37.7808 24.2494 37.9586 24.2494C38.1363 24.2494 38.3141 24.2494 38.403 24.1612C38.4919 24.1612 38.6697 24.2494 38.7585 24.2494C39.3808 24.2494 39.7363 23.7203 39.8252 23.1912L39.9141 23.1031C40.2696 23.1031 40.6252 23.0149 40.8918 22.8385C41.0696 22.574 41.2474 22.2213 41.2474 21.9567C41.3363 21.8686 41.3363 21.8686 41.3363 21.7804C41.7807 21.3395 41.7807 20.9868 41.7807 20.7222Z" fill="white"/>
<path d="M48.0925 19.3115C47.7369 18.3415 47.3814 17.3715 46.9369 16.4897C46.4925 15.4316 46.0481 14.3734 45.6036 13.4035C45.2481 12.5217 44.8036 11.6399 44.8036 10.7581C44.7148 9.87628 44.3592 9.43538 43.6481 8.99448C42.137 7.93632 41.8704 5.99637 40.3593 4.93822C39.6482 4.40914 38.9371 3.96824 38.226 3.43916C37.5149 2.91008 36.7149 2.46919 35.826 2.20465C34.8483 1.94011 33.8705 1.76375 32.8928 1.58739C31.915 1.32285 30.9372 1.14649 29.8706 1.05831C28.8039 0.970133 27.9151 1.23467 26.8484 1.49921C25.7818 1.67557 24.7151 1.32285 23.6485 1.49921C21.7819 1.76375 20.1819 3.08644 18.7597 4.32096C18.0486 4.85004 17.4264 5.55547 16.9819 6.26091C16.4486 7.05453 16.0931 7.93632 15.5597 8.81812C14.3153 10.9344 13.3376 13.1389 12.4487 15.4316C12.0931 16.3134 12.0043 17.2834 11.8265 18.1652C11.7376 18.5179 11.5598 18.9588 11.4709 19.3115C11.2043 19.4879 11.0265 19.7524 10.8487 20.1051C10.4043 20.6342 11.1154 21.4278 11.6487 20.8987C11.7376 20.8105 11.8265 20.7224 11.9154 20.6342C12.0931 20.6342 12.3598 20.546 12.5376 20.3697C12.7154 20.3697 12.8931 20.2815 12.982 20.1933C13.4265 19.9288 13.5153 19.576 13.8709 19.2233C14.1376 18.8706 14.6709 19.047 15.0264 18.9588C15.5597 18.8706 16.0042 18.6061 16.3597 18.2533C18.493 16.6661 20.9819 15.9607 23.4707 15.5198C24.804 15.3434 26.1373 14.9907 27.5595 14.7262C28.9817 14.5498 30.4039 14.3734 31.8261 14.2853C32.4483 14.1971 33.2483 14.1089 33.8705 14.1971C34.4927 14.3734 35.1149 14.5498 35.7371 14.8143C37.0705 15.3434 38.4038 15.608 39.6482 16.2252C40.2704 16.4897 40.7148 16.9306 41.337 17.1952C41.9592 17.4597 42.5815 17.5479 43.2037 17.5479C44.6259 17.6361 45.9592 18.6942 46.6703 19.8406C46.848 20.1933 47.2925 20.2815 47.5591 20.0169C48.0036 19.8406 48.0925 19.576 48.0925 19.3115ZM23.9151 11.1108C23.7374 11.1108 23.5596 11.1108 23.4707 11.1108C23.2929 11.1108 23.1152 11.0226 23.1152 10.8463C23.0263 10.8463 23.0263 10.9344 22.9374 10.9344C22.4041 11.0226 21.9596 10.6699 21.693 10.1408C21.2485 9.96445 20.8041 9.61174 20.6263 9.08266C20.6263 8.9063 20.7152 8.72994 20.893 8.72994H20.9819C21.1596 8.4654 21.4263 8.28904 21.693 8.11268C21.8707 7.93632 22.1374 7.75996 22.4041 7.58361C22.493 7.40725 22.5818 7.23089 22.6707 7.05453C22.7596 6.87817 23.0263 6.78999 23.2041 6.96635C23.2929 6.96635 23.2929 7.05453 23.2929 7.05453V7.14271C23.3818 7.14271 23.3818 7.05453 23.4707 7.05453C23.6485 6.96635 23.8263 6.96635 24.004 7.14271C24.1818 7.14271 24.3596 7.23089 24.3596 7.40725C24.3596 7.49543 24.3596 7.67178 24.4485 7.84814C24.4485 7.84814 24.4485 7.93632 24.5374 7.93632C24.6262 8.28904 24.6262 8.55358 24.6262 8.9063C24.8929 9.7881 25.0707 10.9344 23.9151 11.1108ZM37.5149 9.17084C37.426 9.3472 37.426 9.52356 37.3371 9.69992C37.3371 9.7881 37.2482 9.7881 37.2482 9.87628C37.2482 9.96445 37.2482 9.96445 37.2482 10.0526C37.2482 10.229 37.0705 10.4054 36.8927 10.4054C36.8038 10.4054 36.7149 10.4054 36.626 10.3172C36.4482 10.1408 36.1816 9.87628 36.0927 9.61174C36.0927 9.52356 36.0038 9.43538 36.0927 9.43538C36.0927 9.43538 36.0927 9.43538 36.0927 9.3472C36.0927 9.17084 36.1816 8.9063 36.4482 8.9063C36.5371 8.9063 36.5371 8.9063 36.626 8.9063C36.626 8.81812 36.7149 8.81812 36.7149 8.81812C36.8038 8.64176 36.9816 8.55358 37.1593 8.64176C37.3371 8.4654 37.5149 8.4654 37.6927 8.64176C37.6038 8.4654 37.6927 8.55358 37.6927 8.72994C37.6927 8.81812 37.6038 8.99448 37.5149 9.17084Z" fill="#F78F1E"/>
<path d="M14.0483 38.6231C14.0483 38.5349 14.0483 38.5349 13.9594 38.4467C14.0483 38.3585 14.0483 38.1822 13.9594 38.094C13.9594 37.9176 13.8705 37.6531 13.7817 37.4767C13.8705 37.3886 13.8705 37.2122 13.7817 37.124C13.6928 36.7713 13.6039 36.5068 13.515 36.2422C13.6928 36.0659 13.6928 35.8013 13.6039 35.5368C13.6039 35.4486 13.515 35.3604 13.515 35.3604C13.515 35.2723 13.4261 35.2723 13.4261 35.1841C13.0706 34.655 12.8928 34.0377 12.4483 33.5087C12.3595 33.4205 12.3595 33.3323 12.2706 33.3323C12.0928 32.9796 11.8261 32.6269 11.6484 32.3623C11.4706 32.0978 11.115 32.0096 10.7595 32.186C10.4039 31.6569 9.95951 31.1278 9.51507 30.6869C9.51507 30.5106 9.33729 30.246 9.07063 30.246C8.89286 30.0697 8.80397 29.9815 8.6262 29.8051C8.44842 29.6288 8.00399 29.6288 7.82621 29.8051C7.73732 29.8933 7.64844 30.0697 7.64844 30.1578C7.64844 30.5987 7.73732 31.0396 7.82621 31.4805C8.00399 32.2742 8.53731 33.0678 8.98175 33.685C9.51507 34.4786 10.2262 35.4486 11.2039 35.7132H11.2928C11.3817 35.7132 11.3817 35.8013 11.4706 35.8013C11.4706 36.1541 11.5595 36.4186 11.5595 36.7713C11.5595 37.5649 11.8261 38.3585 12.2706 38.9758C12.2706 39.064 12.2706 39.1522 12.2706 39.2403C12.2706 39.8576 13.1594 40.034 13.3372 39.4167C13.6928 39.4167 13.8705 39.1522 13.8705 38.8876C14.0483 38.7113 14.0483 38.7113 14.0483 38.6231Z" fill="#F78F1E"/>
<path d="M7.73677 24.6024C7.73677 24.2497 7.38122 23.9851 6.93679 23.9851C6.8479 23.9851 6.75901 23.9851 6.75901 24.0733C6.75901 24.0733 6.75901 23.9851 6.8479 23.9851C7.02567 23.6324 6.93679 23.2797 6.58124 23.1033C6.31458 23.0152 6.04791 23.0152 5.87014 23.1915C4.18128 24.6024 2.75909 26.6305 2.31465 28.835C2.13688 29.8932 1.9591 31.0395 2.31465 32.0977C2.49243 32.5386 2.75909 32.9795 3.11464 33.4203C3.3813 33.9494 3.55907 34.4785 3.91462 35.0958C3.91462 35.1839 4.00351 35.1839 4.0924 35.2721C4.18128 35.713 4.44794 36.1539 4.71461 36.5948C4.80349 36.683 4.80349 36.7712 4.89238 36.7712C4.89238 37.0357 4.98127 37.3884 5.15904 37.653C5.15904 37.7411 5.15904 37.9175 5.07015 38.0057C4.98127 38.3584 5.24793 38.7111 5.60348 38.7993C5.69236 38.7993 5.78125 38.7993 5.95903 38.7993C6.49235 38.8875 6.8479 38.3584 7.02567 37.9175V37.8293C7.02567 37.7411 7.02567 37.7411 7.11456 37.653C7.29234 36.9475 7.47011 36.2421 7.47011 35.4485C7.559 34.9194 7.64788 34.3903 7.64788 33.7731C7.64788 33.4203 7.38122 33.244 7.11456 33.244V33.1558C7.11456 33.0676 7.11456 32.9795 7.02567 32.8031C6.93679 32.1858 6.8479 31.4804 6.8479 30.8631C6.8479 30.775 6.8479 30.5986 6.75901 30.5104C6.8479 29.9813 6.8479 29.5404 6.8479 29.0114C6.8479 28.6586 6.8479 28.2178 6.8479 27.865C6.8479 27.7769 6.8479 27.6005 6.93679 27.4241C7.02567 27.2478 7.11456 27.0714 7.20345 26.8951C7.29234 26.8069 7.29234 26.8069 7.29234 26.7187C7.38122 26.5423 7.47011 26.2778 7.559 26.0133C7.82566 25.9251 8.00343 25.6605 8.00343 25.4842C7.73677 25.0433 7.73677 24.8669 7.73677 24.6024Z" fill="#F78F1E"/>
<path d="M9.95991 23.5442C9.95991 23.5442 9.87102 23.5442 9.87102 23.6324C9.60436 23.6324 9.42658 23.8088 9.3377 24.1615H9.24881C9.07103 24.1615 8.89326 24.1615 8.71548 24.1615C8.27105 24.1615 8.09327 24.7788 8.53771 25.0433C9.15992 25.396 10.2266 25.396 10.4932 24.6906C10.5821 24.6024 10.671 24.5142 10.7599 24.426C10.9377 24.1615 10.8488 23.8088 10.5821 23.6324C10.4043 23.4561 10.1377 23.4561 9.95991 23.5442Z" fill="#F78F1E"/>
<path d="M9.7815 20.8984C9.60373 20.9866 9.42595 21.1629 9.24818 21.3393C9.07041 21.4275 8.89263 21.5156 8.80374 21.692C8.4482 21.8684 8.18153 22.2211 7.91487 22.5738C7.82599 22.7501 7.91487 23.191 8.27042 23.1029C8.27042 23.191 8.18153 23.191 8.18153 23.2792C8.00376 23.8965 8.98152 24.3374 9.24818 23.7201C9.33707 23.6319 9.33707 23.5438 9.33707 23.3674C9.33707 23.3674 9.33707 23.2792 9.42595 23.2792C9.60373 23.191 9.7815 22.9265 9.69262 22.662C9.95928 22.4856 10.2259 22.3092 10.4037 22.0447C10.4926 21.9565 10.5815 21.8684 10.5815 21.692C10.7593 21.0747 10.2259 20.5457 9.7815 20.8984Z" fill="#F78F1E"/>
<path d="M37.7809 35.1839C37.7809 34.743 37.5142 34.3903 37.1587 34.2139C37.0698 34.2139 37.0698 34.2139 36.9809 34.2139C36.7142 33.9494 36.1809 34.0376 36.0031 34.3021C35.9142 34.3903 35.9143 34.4785 35.8254 34.5666C35.8254 34.6548 35.8254 34.6548 35.8254 34.743C35.7365 34.8312 35.7365 34.9194 35.6476 35.0075C35.5587 35.3603 35.6476 35.8012 35.9143 35.9775C36.0031 36.1539 36.092 36.3302 36.1809 36.4184C36.4476 36.683 36.892 36.683 37.1587 36.4184C37.1587 36.4184 37.1587 36.4184 37.1587 36.3302C37.2476 36.3302 37.3364 36.2421 37.4253 36.1539C37.7809 35.9775 37.8698 35.6248 37.7809 35.1839Z" fill="white"/>
<path d="M21.5142 11.1992C22.0476 11.5519 23.1142 12.4337 23.8253 12.4337C24.892 12.4337 25.1586 11.3755 25.5142 10.6701C25.6919 10.2292 25.6031 10.4056 26.0475 10.2292C26.2253 10.141 27.0253 9.87647 27.203 10.0528C27.7364 10.2292 27.2919 11.5519 28.1808 11.8164C29.1585 12.081 28.803 10.4937 28.7141 10.0528C28.9808 10.0528 29.3363 9.87647 29.5141 10.0528C29.8696 10.3174 29.603 11.3755 30.1363 11.6401C31.2918 12.2573 30.7585 10.2292 30.6696 9.78829C30.9363 9.78829 31.203 9.78829 31.4696 9.70011C31.4696 10.3174 31.4696 11.6401 32.3585 11.6401C33.1585 11.5519 32.8918 10.4056 32.8029 9.87647C33.9585 9.87647 34.4918 9.70011 35.2918 10.5819C35.914 11.1992 36.5362 12.2573 37.4251 11.6401C38.1362 11.111 38.225 9.43558 38.1362 8.55378C38.0473 7.23108 37.1584 7.40744 36.1806 8.0247C35.4695 8.4656 35.3806 8.73014 34.6695 8.81832C34.2251 8.9065 33.7807 8.9065 33.3362 8.81832C32.5363 8.64196 32.9807 8.9065 32.8029 8.28924C32.714 7.93652 32.8029 7.49562 32.3585 7.40744C31.914 7.31926 31.8252 7.84834 31.6474 8.11288C31.2918 8.73014 31.2918 8.64196 30.5807 8.73014C30.5807 8.37742 30.6696 7.49562 30.4919 7.23108C29.8696 6.61383 29.603 7.76016 29.5141 8.11288C29.4252 8.55378 29.4252 9.17104 28.7141 8.99468C28.3586 8.9065 28.6252 8.99468 28.3586 8.64196C28.0919 8.20106 28.4474 6.96655 27.8252 6.70201C27.1141 6.08475 27.0253 7.05473 27.0253 7.49562C27.0253 8.0247 27.203 8.37742 26.8475 8.73014C26.5808 8.9065 25.9586 8.9065 25.6031 8.99468C25.6031 7.93652 25.6031 6.34929 24.2697 6.08475C23.292 5.90839 22.492 6.61383 21.692 7.14291C20.892 7.67198 18.6699 8.81832 19.4698 9.87647C19.9143 10.4056 21.0698 10.8464 21.5142 11.1992ZM24.0031 11.1992C23.0253 10.4056 21.8698 9.87647 20.8031 9.17104C21.4254 8.73014 23.6475 6.70201 24.2697 7.23108C24.9808 8.0247 24.4475 10.5819 24.0031 11.1992ZM36.0917 9.25922L37.1584 8.4656C37.0695 8.99468 36.9806 9.61193 36.8917 10.141C36.6251 9.87647 36.3584 9.52376 36.0917 9.25922Z" fill="black"/>
<path d="M38.5807 25.0425C40.3585 25.0425 42.6695 23.2789 43.0251 21.6034C43.2028 20.6335 42.0473 19.5753 41.2473 19.0462C40.5362 18.6053 39.6474 18.429 38.8474 18.5172C37.6029 18.6053 36.8919 19.2226 36.003 20.0162C35.3808 20.5453 33.9586 21.868 34.1363 22.7498C34.3141 24.0725 37.603 25.0425 38.5807 25.0425ZM38.2252 19.928C39.114 19.6635 40.8029 19.928 41.2473 20.898C41.6918 21.7798 40.1807 23.1907 39.2918 23.4552C38.0474 23.8079 36.7141 23.0143 35.5585 22.6616C36.0919 21.6916 37.2474 20.2808 38.2252 19.928Z" fill="black"/>
<path d="M33.6924 36.418C33.1591 36.6825 33.0702 37.2116 32.448 37.388C32.0924 37.388 31.648 37.388 31.2925 37.388C30.6702 37.388 29.3369 36.5062 28.8925 36.7707C28.1814 37.1234 28.7147 37.7407 29.0703 38.0934C29.8703 38.7107 30.9369 38.7107 31.9147 38.887C32.8924 38.7988 33.6924 38.7989 34.3146 37.8289C34.7591 37.0353 34.9368 35.8007 33.6924 36.418Z" fill="black"/>
<path d="M23.6476 9.347C24.6254 9.347 24.7143 7.84795 23.7365 7.75977C23.2921 7.75977 22.9365 8.0243 22.8477 8.4652C22.8477 8.9061 23.1143 9.25882 23.6476 9.347C23.5588 9.347 23.5588 9.347 23.6476 9.347Z" fill="black"/>
<path d="M39.1147 23.1029C39.9147 23.1029 39.737 22.5739 39.6481 22.0448C39.6481 21.6039 39.5592 20.2812 39.2925 20.1048C37.9592 19.3112 37.7814 23.1029 39.1147 23.1029Z" fill="black"/>
<path d="M53.2474 31.4801L47.9142 31.0392C48.1808 30.2456 48.4475 29.5402 48.6253 28.7466C48.6253 28.7466 48.6253 28.7466 48.7141 28.7466C49.6919 28.482 50.7586 28.6584 51.8252 28.5702C52.3585 28.5702 52.803 28.3938 53.1585 27.9529C53.4252 27.6002 53.5141 27.2475 52.9807 27.1593C52.5363 27.0711 52.003 27.2475 51.5585 27.2475C51.2919 27.2475 49.3364 27.3357 49.2475 27.6002C49.3364 27.4239 49.3364 27.2475 49.4252 27.1593C49.603 26.6302 49.7808 25.9248 49.8697 25.3076C49.8697 24.9548 49.8697 24.6021 49.8697 24.2494C49.9586 24.1612 50.1363 23.9849 50.3141 23.8967C51.6474 22.9267 53.5141 23.0149 54.7585 21.9567C53.0696 21.6922 51.2919 22.0449 49.8697 23.0149L48.8919 18.2532C48.4475 15.8723 47.9142 13.4033 47.0253 11.1988C44.1809 4.58534 37.6921 0.176359 30.4923 0C28.7145 0 26.9368 0.264539 25.159 0.352719C23.2924 0.440898 21.5147 0.793617 19.9147 1.76359C17.8703 3.08629 16.2703 5.02624 14.8481 7.05437C12.5371 10.4052 10.0482 14.2851 9.95932 18.5177C9.95932 18.9586 9.95932 19.3995 9.60377 19.6641C9.426 19.7522 9.15934 19.8404 8.89268 19.8404C7.64826 20.0168 6.6705 20.8986 6.49272 22.1331C5.2483 21.9567 4.18165 23.0149 3.38167 23.8967C1.7817 25.6603 0.0928433 27.6884 0.00395609 30.0693C-0.0849311 32.3619 1.33726 34.3901 2.93723 35.9773C3.64833 36.5945 4.44832 37.3 4.62609 38.27C4.71498 38.9754 4.5372 39.769 5.07053 40.2099C5.69274 40.739 6.75938 40.0336 7.11493 39.2399C7.47048 38.4463 7.64826 37.4763 8.35935 37.0354C9.07045 36.5945 10.0482 36.9473 10.5815 37.4763C11.2037 38.0054 11.4704 38.8872 11.7371 39.5927C10.9371 40.0336 10.1371 40.4745 9.33711 40.9153C8.89268 41.1799 8.35935 41.7971 8.80379 42.1499C8.98156 42.3262 9.33711 42.238 9.60377 42.1499C10.5815 41.7971 11.4704 41.2681 12.3593 40.6508C12.4482 41.2681 12.7148 41.8853 13.1593 42.4144C14.3148 42.1499 13.9592 40.2981 14.5815 39.3281C15.0259 38.7109 16.0037 38.4463 16.8036 38.7109C17.6036 38.9754 18.2258 39.4163 18.9369 39.9454C23.2924 42.9435 28.7145 44.3544 33.87 43.3844C37.1588 42.7671 40.0921 41.0917 42.4032 38.7109C42.4032 38.7109 42.492 38.7109 42.492 38.6227C43.0254 38.1818 43.4698 37.6527 44.0031 37.2118C44.5364 36.7709 45.0698 36.2418 45.5142 35.7127C46.4031 34.6546 46.9364 33.3319 47.4697 32.1856C47.4697 32.1856 47.4697 32.1856 47.5586 32.1856C48.5364 32.2737 49.603 32.5383 50.6697 32.5383C51.3808 32.6265 52.0919 32.6265 52.803 32.5383C53.1585 32.5383 53.4252 32.5383 53.7807 32.5383C54.1363 32.4501 54.4029 32.1856 54.2252 31.8328C53.9585 31.5683 53.6029 31.5683 53.2474 31.4801ZM16.1814 13.6678C14.4926 13.6678 12.9815 15.4314 12.0926 16.6659C12.5371 14.6378 13.8704 12.6097 15.2926 11.1988C15.6481 10.8461 16.7148 10.317 16.7148 9.78794C16.7148 8.90614 15.3814 9.69976 15.0259 9.87612C15.0259 9.61158 15.0259 9.34704 15.2037 9.0825C15.2926 8.90614 15.3814 8.72978 15.4703 8.55342C15.8259 7.75981 16.4481 7.23073 16.9814 6.52529C18.0481 4.93806 19.3814 3.35083 21.1591 2.46903C23.3813 1.49905 26.0479 1.58723 28.4479 1.49905C30.9367 1.41087 33.5144 1.58723 36.0033 2.46903C37.1588 2.90993 38.2255 3.52719 39.1143 4.3208C40.0921 5.02624 41.0698 5.46714 41.8698 6.34893C42.7587 7.23073 43.292 8.28889 43.8254 9.43522C43.9142 9.61158 44.092 10.2288 44.2698 10.317C43.7365 10.0525 42.4032 9.25886 41.7809 9.61158C40.5365 10.317 42.5809 10.7579 43.0254 11.0225C43.7365 11.3752 44.9809 11.8161 45.4253 12.4333C46.0475 13.2269 46.3142 14.6378 46.492 15.6078C45.6031 15.1669 43.6476 14.2851 42.492 14.4615C41.2476 14.6378 42.0476 15.3433 42.7587 15.6078C43.9142 16.0487 45.1587 16.2251 46.2253 16.9305C47.2031 17.5477 47.292 18.6941 47.5586 19.7522C46.2253 19.0468 44.892 18.4295 43.6476 17.6359C41.9587 16.7541 40.8032 15.7842 38.8477 15.5196C37.0699 15.2551 35.2922 14.726 33.5144 14.6378C32.0922 14.5496 30.5812 14.9024 29.0701 14.8142C25.7812 14.726 22.5813 15.1669 19.5591 16.3132C18.3147 16.7541 17.1592 17.1068 15.9148 17.7241C14.4926 18.4295 12.2704 19.3113 11.2926 20.634C11.2037 19.2232 12.8037 17.195 13.6926 16.3132C14.3148 15.9605 17.5147 13.6678 16.1814 13.6678ZM25.2479 18.165C25.5146 18.2532 25.6924 18.4295 25.8701 18.6059C26.0479 18.7823 26.3146 18.9586 26.4923 19.2232C26.8479 19.5759 27.0257 20.0168 27.2034 20.4577C27.2034 20.5459 27.1146 20.5459 27.0257 20.5459C26.5812 20.4577 26.3146 19.8404 26.0479 19.4877C25.7812 19.135 25.0701 18.7823 25.0701 18.2532C25.0701 18.165 25.159 18.0768 25.2479 18.165ZM27.2034 18.6941C27.1146 18.6941 27.0257 18.6059 26.8479 18.5177C26.6701 18.3414 26.4035 18.0768 26.1368 17.9005C25.6924 17.5477 25.3368 17.2832 24.7146 17.5477C23.9146 17.9886 23.3813 19.3113 22.4924 19.6641C21.6924 19.9286 20.6258 18.7823 19.8258 18.8704C19.2036 18.9586 18.1369 19.8404 17.6925 20.3695C17.1592 20.8986 16.3592 21.7804 16.0925 22.4858C15.6481 23.7203 16.6259 24.3376 17.4258 25.043C16.0037 26.3657 14.6703 27.6884 13.2481 29.0993C12.8926 28.0411 12.6259 26.8948 12.4482 25.8366C12.3593 24.8667 12.0037 23.6321 12.0037 22.6622C12.0037 21.4277 13.5148 20.7222 14.5815 20.105C16.0925 19.2232 17.6036 18.5177 19.2036 17.9886C21.1591 17.2832 23.2035 16.4014 25.3368 16.4014C26.4035 16.4014 27.3812 16.1369 28.4479 16.2251C29.7812 16.3132 31.0256 16.5778 32.27 16.3132C31.6478 16.666 31.0256 17.1068 30.4034 17.4596C30.0478 17.6359 29.6923 17.9005 29.3367 18.0768C29.3367 18.0768 29.3367 18.0768 29.2478 18.0768C28.8923 18.2532 28.4479 18.5177 28.0923 18.6059C27.3812 18.8704 28.0923 19.0468 27.2034 18.6941ZM21.6035 20.5459C21.6035 20.634 21.5147 20.634 21.5147 20.7222C21.1591 20.8104 20.8925 20.5459 20.5369 20.3695C20.1814 20.2813 19.8258 20.105 19.5591 19.9286C19.4703 19.8404 19.4703 19.7522 19.4703 19.6641C19.4703 19.5759 19.5591 19.5759 19.648 19.5759C20.0925 19.5759 20.5369 19.7522 20.8925 19.9286C21.1591 20.0168 21.6924 20.105 21.6035 20.5459ZM11.026 25.1312C11.5593 27.0711 12.0037 29.1875 12.7148 31.2156C11.3815 31.3919 10.4038 30.7747 9.78155 29.452C9.426 28.5702 9.33711 27.6002 9.60377 26.7184C9.78155 25.6603 10.4038 26.013 11.026 25.1312ZM9.51489 24.5139C9.33711 24.5139 8.89268 24.3376 8.89268 24.1612C8.89268 23.9849 9.95932 23.7203 10.1371 23.6321C10.0482 23.8967 10.0482 24.5139 9.51489 24.5139ZM7.20382 25.2194C7.11493 25.5721 7.02605 25.8366 6.84827 26.1894C6.58161 26.8066 6.31495 27.4239 6.04829 28.1293C5.60385 29.452 5.42608 30.7747 5.78163 32.1856C5.87051 32.7146 6.22606 33.1555 6.31495 33.5964C6.49272 34.1255 6.58161 34.5664 6.6705 35.0955C6.75938 35.7127 7.02605 36.0655 6.75938 36.8591C6.58161 37.3882 6.31495 37.9172 6.13717 38.3581C5.9594 36.7709 4.80387 36.1536 3.82611 35.0955C2.93723 34.1255 1.69281 32.7146 1.24838 31.3919C0.626167 29.2756 1.95947 27.3357 3.2039 25.7485C3.64833 25.2194 4.09277 24.6903 4.62609 24.2494C4.89275 24.073 5.15941 23.8085 5.42608 23.6321C5.60385 23.544 5.9594 23.0149 6.22606 23.1031C6.40384 23.1912 6.13717 23.6321 6.13717 23.8085C5.9594 24.073 5.78162 24.3376 5.60385 24.6021C5.15941 25.1312 4.80387 25.6603 4.5372 26.2775C4.44832 26.6302 3.64833 28.3057 4.09277 28.6584C4.5372 29.0111 5.07053 28.1293 5.2483 27.7766C5.60385 27.1593 5.87051 26.5421 6.13717 25.9248C6.31495 25.5721 6.49272 25.3076 6.6705 25.043C6.75938 24.8667 6.84827 24.6903 6.93716 24.6021C7.02605 24.5139 7.20382 24.2494 7.38159 24.4258C7.55937 24.5139 7.29271 25.043 7.20382 25.2194ZM7.73714 22.6622C7.91492 21.3395 8.89268 21.2513 9.95932 20.8104C10.226 20.7222 9.51489 22.2213 9.24823 22.3976C8.89268 22.6622 8.27047 22.574 7.73714 22.6622ZM10.0482 35.0073C9.15934 34.831 8.27047 33.0674 8.18158 32.2737C8.09269 31.7447 8.27047 31.3038 8.35935 30.7747C8.35935 30.5983 8.53713 29.8047 8.53713 29.7165C8.89268 30.422 9.24823 31.2156 9.87044 31.6565C9.51489 31.7447 8.62602 31.8328 8.44824 32.1856C8.09269 33.0674 9.33711 32.891 9.69266 32.8028C10.1371 32.7146 10.5815 32.4501 11.026 32.6265C11.6482 32.8028 12.5371 33.861 12.8037 34.3901C12.0926 34.4782 10.7593 35.1837 10.0482 35.0073ZM12.9815 38.799C12.8037 38.4463 12.5371 38.1818 12.3593 37.8291C12.1815 37.2118 11.826 36.6827 11.2926 36.2418C11.2037 36.1536 11.2037 36.0655 11.1149 35.9773C11.5593 35.8891 12.0037 35.8009 12.4482 35.7127C13.1593 35.6246 13.2481 35.4482 13.5148 35.8891C13.8704 36.4182 13.4259 38.3581 12.9815 38.799ZM14.7592 38.0054V35.6246C15.2037 36.2418 15.6481 36.8591 16.0925 37.4763C15.5592 37.5645 15.1148 37.8291 14.7592 38.0054ZM14.6703 32.0974C15.2037 32.0974 15.9148 31.921 16.4481 32.0092C16.8036 32.0974 16.8925 32.3619 17.337 32.3619C17.6925 32.3619 18.0481 31.921 18.3147 31.8328L19.1147 33.1555C18.2258 33.5083 17.337 33.6846 16.4481 33.9492C15.2037 34.2137 15.3814 33.6846 14.8481 32.5383C14.7592 32.2737 14.6703 32.1856 14.6703 32.0974ZM17.6036 36.8591C17.4258 36.9473 17.2481 36.9473 17.1592 36.8591C16.6259 36.33 16.2703 35.8009 15.9148 35.0955C17.0703 35.0073 18.2258 34.4782 19.3814 34.2137C20.2702 33.9492 20.1814 34.0373 20.9813 34.6546C20.5369 34.9191 19.648 35.7127 18.6703 36.2418C18.4036 36.33 18.1369 36.5064 17.8703 36.5945C17.7814 36.6827 17.6925 36.7709 17.6036 36.8591ZM43.2031 35.9773C41.7809 37.8291 39.9143 39.1518 37.8699 40.2981C37.3366 40.6508 36.6255 40.8272 36.0033 41.0917C34.8477 41.4444 33.7811 41.8853 32.5367 41.9735C31.2034 42.0617 29.8701 41.9735 28.5367 41.8853C28.0923 41.8853 27.7368 41.7971 27.2923 41.709C26.8479 41.6208 26.4923 41.4444 26.0479 41.3562C23.2035 40.739 20.5369 39.4163 17.9592 37.9172C18.2258 37.8291 18.4925 37.6527 18.7592 37.4763C19.0258 37.3 19.3814 37.1236 19.648 37.0354C20.0925 36.8591 20.448 36.5945 20.8925 36.2418C21.248 35.8891 21.6035 35.7127 21.9591 35.5364C22.5813 35.36 23.2924 35.8009 24.0035 35.8891C24.8035 35.9773 25.6035 35.9773 26.4035 35.9773C27.9145 35.9773 29.0701 35.6246 30.1367 34.4782C30.4923 34.1255 31.1145 33.0674 31.5589 33.1555C31.9145 33.1555 32.6256 34.0373 32.9811 34.2137C33.6033 34.5664 34.4033 34.6546 34.9366 35.1837C35.47 35.8009 35.47 36.7709 36.0922 37.3882C37.3366 38.7109 38.0477 36.1536 38.3143 35.1837C38.581 34.3901 38.2255 34.6546 39.0254 34.2137C39.8254 33.7728 40.6254 33.2437 41.2476 32.6265C41.4254 32.4501 41.6032 32.1856 41.9587 32.1856C42.5809 32.1856 43.1143 32.1856 43.7365 32.1856C43.9142 32.1856 44.6253 32.1856 44.8031 32.0974C44.892 32.0974 44.9809 32.0974 45.1587 32.0974C46.2253 32.4501 43.5587 35.6246 43.2031 35.9773ZM30.2256 25.9248C30.1367 25.9248 30.1367 25.8366 30.1367 25.7485C30.3145 25.2194 31.2923 25.3076 31.7367 25.3076C32.27 25.3076 33.07 25.3957 33.3367 25.9248C33.5144 26.3657 32.8033 26.5421 32.6256 26.1012C32.6256 26.1894 32.5367 26.1012 32.5367 26.1012C32.4478 26.1012 32.3589 26.013 32.1811 26.013C31.9145 26.013 31.6478 25.9248 31.3811 25.9248C31.0256 26.013 30.5812 26.1012 30.2256 25.9248ZM35.9144 34.7428C36.2699 34.7428 37.1588 34.7428 37.5144 34.6546C37.3366 35.0955 36.981 36.1536 36.8033 36.5945L35.9144 34.7428ZM46.2253 30.951C45.692 31.3038 43.292 30.7747 42.6698 30.7747C42.6698 30.7747 43.292 29.2756 43.5587 29.0993C44.1809 28.6584 46.4031 28.9229 47.1142 28.8347C46.8475 29.3638 46.6697 30.6865 46.2253 30.951ZM46.1364 27.8648C46.0475 27.8648 45.9586 27.8648 45.9586 27.8648C45.1587 27.8648 44.3587 27.9529 43.5587 27.9529C42.492 28.0411 41.3365 27.9529 40.2699 28.0411C39.6477 28.0411 39.1143 28.1293 38.4921 28.2175C38.1366 28.3057 37.6032 28.5702 37.781 28.9229C37.8699 29.0993 38.1366 29.1875 38.3143 29.1875C39.5588 29.2756 40.7143 29.2756 41.8698 29.0993C41.9587 29.7165 41.3365 30.2456 40.7143 30.422C40.0921 30.5102 39.4699 30.422 38.8477 30.2456C38.2255 30.0693 37.6032 29.9811 36.981 30.2456C36.8033 30.3338 36.7144 30.422 36.6255 30.5983C36.4477 31.0392 36.981 31.3919 37.4255 31.4801C38.4032 31.6565 39.2921 31.7447 40.2699 31.7447C39.4699 32.7146 38.3143 33.0674 37.0699 33.2437C36.0922 33.4201 34.9366 33.4201 33.9589 33.1555C32.9811 32.8028 32.0922 32.0092 31.9145 31.0392C31.7367 29.8047 32.4478 28.6584 33.2478 27.6884C33.7811 27.0711 34.4033 26.1894 33.87 25.4839C33.6922 25.3076 33.4255 25.1312 33.07 25.043C31.3811 24.5139 29.4256 24.8667 28.0034 25.9248C27.8257 26.013 27.7368 26.1894 27.6479 26.3657C27.6479 26.5421 27.7368 26.8066 27.8257 26.8948C28.6256 27.8648 30.2256 28.1293 30.5812 29.2756C30.67 29.6284 30.67 29.9811 30.67 30.3338C30.3145 32.9792 27.9145 34.9191 25.159 34.6546C24.8035 34.6546 24.4479 34.5664 24.0924 34.3901C24.9813 34.0373 25.6924 33.5083 26.3146 32.7146C26.4035 32.6265 26.4923 32.4501 26.4923 32.2737C26.4923 31.921 25.959 31.8328 25.6924 31.921C24.8924 32.0974 24.3591 32.7146 23.648 33.2437C23.0257 33.6846 22.048 34.0373 21.4258 33.5083C22.4924 33.1555 23.5591 32.8028 24.5368 32.2737C24.8924 32.0974 25.2479 31.8328 25.159 31.4801C25.0702 31.0392 24.5368 30.9511 24.0924 31.0392C23.3813 31.1274 22.6702 31.3919 21.9591 31.6565C21.5147 31.921 21.0702 32.0974 20.5369 32.1856C20.0036 32.1856 19.4703 31.921 19.4703 31.3919C21.248 31.3919 22.9369 31.1274 24.6257 30.5983C25.0701 30.5102 25.6035 30.0693 25.4257 29.6284C25.2479 29.3638 24.8924 29.3638 24.5368 29.452C23.0257 29.6284 21.5147 29.8929 20.0036 30.1574C20.2702 29.9811 20.3591 29.5402 20.1814 29.2756C19.8258 28.9229 19.2925 29.0111 18.848 29.2756C18.4925 29.5402 18.1369 29.8047 17.7814 30.1574C16.6259 31.0392 15.0259 30.951 13.6037 30.8629C13.6926 30.8629 14.137 30.2456 14.2259 30.1574C14.4037 29.8929 14.6703 29.6284 14.937 29.452C15.4703 29.0111 15.9148 28.482 16.4481 28.1293C16.8925 27.7766 17.4258 27.512 17.7814 27.1593C18.2258 26.7184 18.6703 26.4539 19.2925 26.6302C19.8258 26.8066 20.2702 27.1593 20.8036 27.6002C21.6924 28.2175 22.5813 28.7466 23.648 29.0111C23.8257 29.0993 24.0924 29.0993 24.2702 29.0993C24.8035 29.0111 24.9813 28.3057 25.159 27.7766C25.5146 26.3657 26.2257 25.043 27.0257 23.8085C27.559 22.8385 28.2701 21.8685 28.9812 21.0749C30.2256 19.7522 31.8256 18.9586 33.4255 18.165C34.7589 17.4596 36.181 16.7541 37.6921 16.8423C39.1143 16.8423 40.4476 17.6359 41.6921 18.2532C43.1143 19.0468 44.5364 19.7522 45.9586 20.5459C46.9364 21.0749 48.003 21.7804 48.0919 22.8385C48.0919 23.1031 48.003 23.4558 47.8253 23.6321C47.6475 23.8085 47.3808 23.9849 47.0253 23.9849C44.4476 24.6021 41.9587 25.3957 39.5588 26.3657C38.581 26.7184 37.6921 27.1593 36.8921 27.8648C36.7144 27.9529 36.6255 28.2175 36.6255 28.3938C36.7144 28.8347 37.3366 28.7466 37.6921 28.5702C40.981 27.1593 44.8031 25.8366 48.2697 24.6903C48.1808 25.2194 48.0919 25.6603 48.003 26.1894C48.003 26.6302 47.8253 27.1593 47.5586 27.512C47.292 27.7766 46.6697 27.8648 46.1364 27.8648Z" fill="black"/>
<path d="M43.1139 45.5887C42.8473 45.2359 42.7584 45.3241 42.5806 44.795C42.4028 44.266 42.2251 43.7369 42.1362 43.2078C41.9584 41.9733 41.8695 40.827 41.9584 39.5924C41.9584 39.1515 41.6029 38.7988 41.1584 38.7988C40.8918 38.7988 40.6251 38.9752 40.5362 39.1515C40.0029 40.1215 40.1807 41.4442 40.3584 42.4142C40.5362 43.5605 40.714 44.795 41.3362 45.8532C41.514 46.2059 41.8695 46.735 42.314 46.8232C42.7584 46.9114 43.2028 46.735 43.2917 46.2941C43.3806 46.2059 43.2917 45.8532 43.1139 45.5887Z" fill="black"/>
<path d="M20.9813 40.3866C20.8925 39.6811 19.7369 39.8575 19.7369 40.5629C19.7369 41.5329 19.5591 42.5911 19.2036 43.561C19.0258 44.0901 18.848 44.531 18.5814 44.9719C18.3147 45.4128 18.0481 45.7655 17.9592 46.2946C17.8703 46.6473 18.0481 46.9119 18.4036 47C18.4925 47 18.6703 47.0001 18.848 46.9119C19.8258 46.471 20.3591 44.9719 20.7147 43.9138C20.9813 42.7674 21.1591 41.5329 20.9813 40.3866Z" fill="black"/>
<path d="M76.0915 34.9196C75.7359 35.2724 75.3804 35.5369 75.0248 35.8014C74.5804 36.1542 74.136 36.4187 73.6026 36.5951C73.0693 36.8596 72.3582 37.036 71.736 37.2123C71.0249 37.3887 70.2249 37.4769 69.5138 37.4769C68.1805 37.4769 66.8472 37.2123 65.6028 36.6832C64.4472 36.1542 63.4695 35.4487 62.6695 34.4788C61.8695 33.5088 61.2473 32.3624 60.8029 31.0397C60.3584 29.6289 60.1807 28.1298 60.1807 26.6308C60.1807 25.3081 60.3584 23.9854 60.8918 22.6627C61.3362 21.4282 61.9584 20.2818 62.8473 19.2237C63.7362 18.2537 64.8028 17.3719 66.0472 16.7546C67.3805 16.1374 68.8027 15.7847 70.2249 15.7847C71.2916 15.7847 72.2693 15.8728 73.336 16.2256C74.136 16.4901 74.8471 16.931 75.4693 17.4601C75.8248 17.7246 76.0915 18.0773 76.2692 18.5182C76.447 18.7828 76.5359 19.1355 76.5359 19.4882C76.6248 20.4582 75.9137 21.2518 74.9359 21.2518C74.8471 21.2518 74.847 21.2518 74.7582 21.2518C74.4026 21.2518 74.0471 21.1636 73.7804 20.9873C73.4249 20.8109 73.1582 20.4582 72.8915 20.1937C72.8026 20.0173 72.6249 19.8409 72.536 19.7528C72.3582 19.5764 72.1804 19.4 71.9138 19.2237C71.6471 19.0473 71.3805 18.871 71.1138 18.7828C70.7582 18.6946 70.4027 18.6064 70.0471 18.6064C69.2472 18.6064 68.5361 18.7828 67.9138 19.2237C67.2916 19.6646 66.7583 20.2818 66.4028 20.8991C65.9583 21.6927 65.6028 22.5745 65.425 23.4563C65.2472 24.4263 65.0695 25.4844 65.0695 26.5426C65.0695 27.6007 65.1583 28.5707 65.425 29.6289C65.6028 30.5107 65.9583 31.3925 66.4028 32.1861C66.7583 32.8915 67.2916 33.4206 67.9138 33.9497C68.5361 34.3906 69.336 34.5669 70.0471 34.5669C70.4916 34.5669 70.936 34.4788 71.2916 34.3906C71.6471 34.2142 72.0915 34.0379 72.3582 33.8615C72.7138 33.6851 72.9804 33.5088 73.2471 33.2442C73.4249 33.0679 73.6026 32.8915 73.7804 32.8033C74.4026 32.0979 74.9359 31.7452 75.3804 31.7452C75.8248 31.7452 76.1804 31.9215 76.447 32.1861C76.8026 32.4506 76.9803 32.8033 76.9803 33.1561C76.9803 33.7733 76.7137 34.3906 76.0915 34.9196Z" fill="black" stroke="#181716" stroke-width="0.25" stroke-miterlimit="10"/>
<path d="M98.0464 36.5068C97.8686 36.6832 97.6908 36.7713 97.5131 36.8595C97.3353 36.9477 97.0686 37.0359 96.802 37.0359C96.5353 37.0359 96.2686 37.0359 96.002 37.0359C95.7353 37.0359 95.4687 37.0359 95.1131 37.0359C94.8465 37.0359 94.5798 36.9477 94.3131 36.8595C94.0465 36.7713 93.8687 36.595 93.6909 36.4186C93.5131 36.1541 93.3354 35.8895 93.2465 35.5368L91.8243 31.8333C91.8243 31.7451 91.7354 31.5687 91.6465 31.4806C91.4687 31.3924 91.291 31.3924 91.1132 31.3924H84.8911C84.7133 31.3924 84.5355 31.3924 84.3578 31.4806C84.18 31.5687 84.0022 31.7451 83.9133 32.0096L82.1356 35.625C81.8689 36.595 80.8912 37.2122 79.9134 37.0359C79.469 37.0359 79.1134 36.9477 78.8468 36.595C78.669 36.3304 78.4912 35.9777 78.4912 35.625C78.4912 35.1841 78.5801 34.8314 78.7579 34.4787L87.291 17.46C87.3799 17.2836 87.4688 17.1073 87.5577 16.9309C87.6466 16.7546 87.7355 16.5782 87.9133 16.49C88.0021 16.3137 88.1799 16.2255 88.3577 16.1373C88.5355 16.0491 88.8021 15.9609 88.9799 15.9609C89.2466 15.9609 89.5132 15.9609 89.691 16.1373C89.8688 16.2255 90.0465 16.4018 90.2243 16.5782C90.4021 16.7546 90.491 16.9309 90.5799 17.1073C90.6688 17.2836 90.7576 17.5482 90.8465 17.7245L98.1353 34.9196C98.2242 35.0959 98.2242 35.2723 98.313 35.4486C98.313 35.625 98.313 35.7132 98.313 35.8895C98.313 36.1541 98.2242 36.3304 98.0464 36.5068ZM90.4021 28.8352C90.4021 28.747 90.4021 28.5706 90.4021 28.4824C90.4021 28.3061 90.3132 28.2179 90.2243 28.0415C90.1354 27.9534 90.1354 27.8652 90.1354 27.6888L88.3577 23.1035H88.2688L85.9577 27.6888C85.78 28.0415 85.6911 28.3061 85.5133 28.6588C85.5133 28.8352 85.6022 28.9233 85.78 28.9233H90.1354C90.3132 29.0115 90.4021 28.9233 90.4021 28.8352Z" fill="black" stroke="#181716" stroke-width="0.25" stroke-miterlimit="10"/>
<path d="M116.18 36.6834C115.736 37.0361 115.202 37.1243 114.669 37.1243C114.136 37.1243 113.602 37.0361 113.158 36.7715C112.713 36.4188 112.358 36.0661 112.091 35.6252L104.625 24.7791H104.536L104.18 35.1843C104.18 35.9779 104.002 36.507 103.558 36.6834C103.202 36.8597 102.669 37.0361 102.225 37.0361C101.602 37.0361 101.158 36.8597 100.891 36.5952C100.625 36.1543 100.447 35.7134 100.536 35.1843V18.2538C100.536 17.9011 100.625 17.5484 100.802 17.1957C100.98 17.0193 101.158 16.7548 101.425 16.6666C101.602 16.5784 101.869 16.4902 102.136 16.4902C102.402 16.4902 102.58 16.4902 102.758 16.4902C103.202 16.4902 103.647 16.5784 104.091 16.7548C104.536 17.0193 104.891 17.4602 105.158 17.9011L112.624 29.0117H112.713L113.069 18.4302C113.069 17.9011 113.158 17.4602 113.513 17.0193C113.691 16.7548 114.136 16.5784 114.847 16.5784C115.024 16.5784 115.291 16.5784 115.469 16.6666C115.647 16.6666 115.913 16.7548 116.002 16.9311C116.18 17.0193 116.358 17.2838 116.447 17.4602C116.536 17.8129 116.624 18.0775 116.624 18.4302V35.3607C116.713 35.8898 116.536 36.4188 116.18 36.6834Z" fill="black" stroke="#181716" stroke-width="0.25" stroke-miterlimit="10"/>
<path d="M137.868 30.6872C137.424 31.9217 136.801 32.9798 136.002 33.9498C135.202 34.9198 134.135 35.7134 132.979 36.1543C131.646 36.6834 130.313 37.0361 128.891 36.9479H122.846C122.58 36.9479 122.313 36.9479 122.046 36.8597C121.78 36.7715 121.602 36.6834 121.335 36.507C121.157 36.3307 120.98 36.0661 120.802 35.8898C120.713 35.537 120.624 35.1843 120.624 34.8316V18.342C120.624 17.1075 121.335 16.4902 122.757 16.4902H128.002C129.513 16.4902 131.024 16.6666 132.446 17.1957C133.69 17.6366 134.757 18.2538 135.735 19.2238C136.624 20.1056 137.335 21.2519 137.779 22.3983C138.224 23.8091 138.49 25.22 138.49 26.7191C138.579 28.0418 138.313 29.3645 137.868 30.6872ZM133.335 23.5446C133.157 22.6628 132.802 21.8692 132.179 21.1638C131.646 20.5465 130.935 20.0174 130.135 19.6647C129.157 19.312 128.002 19.1356 127.024 19.2238L125.335 19.312V34.2143L127.557 34.3025C128.535 34.3907 129.602 34.2143 130.49 33.7734C131.29 33.4207 131.913 32.8035 132.357 32.098C132.802 31.3926 133.157 30.599 133.335 29.7172C133.779 27.689 133.779 25.5727 133.335 23.5446Z" fill="black" stroke="#181716" stroke-width="0.25" stroke-miterlimit="10"/>
<path d="M154.668 18.1656L149.423 29.2763V34.9198C149.423 35.3607 149.423 35.7134 149.334 36.1543C149.245 36.4188 149.157 36.5952 148.89 36.7716C148.712 36.9479 148.445 37.0361 148.09 37.0361C147.734 37.0361 147.468 37.0361 147.023 37.0361C146.668 37.0361 146.401 37.0361 146.134 37.0361C145.868 37.0361 145.69 36.9479 145.423 36.8597C145.245 36.6834 145.068 36.507 144.979 36.2425C144.89 35.8016 144.801 35.4489 144.801 35.008V29.629L139.557 18.342C139.468 18.1656 139.379 17.9011 139.379 17.7247C139.379 17.372 139.557 17.1075 139.823 16.9311C140.179 16.7548 140.712 16.5784 141.512 16.5784C141.957 16.5784 142.49 16.5784 142.934 16.7548C143.29 16.843 143.557 16.9311 143.823 17.1075C144.001 17.2839 144.179 17.4602 144.268 17.6366C144.357 17.8129 144.445 18.0775 144.623 18.2538L147.112 23.721C147.29 24.1619 147.557 24.4264 147.645 24.4264C147.823 24.4264 148.001 24.25 148.179 23.8091C148.445 23.0155 148.712 22.3101 148.979 21.6047C149.156 20.9874 149.423 20.3701 149.601 19.7529C149.779 19.1356 150.045 18.6065 150.134 18.2538C150.312 17.7247 150.579 17.2839 151.023 16.9311C151.379 16.6666 152.001 16.4902 152.89 16.4902C153.601 16.4902 154.134 16.5784 154.401 16.7548C154.668 16.9311 154.756 17.1957 154.756 17.4602C154.756 17.7247 154.756 17.9011 154.668 18.1656Z" fill="black" stroke="#181716" stroke-width="0.25" stroke-miterlimit="10"/>
<path d="M179.379 34.9196C179.023 35.2724 178.667 35.5369 178.312 35.8014C177.868 36.1542 177.423 36.4187 176.89 36.5951C176.356 36.8596 175.645 37.036 175.023 37.2123C174.312 37.3887 173.512 37.4769 172.801 37.4769C171.468 37.4769 170.134 37.2123 168.89 36.6832C167.734 36.1542 166.757 35.4487 165.957 34.4788C165.157 33.5088 164.534 32.3624 164.09 31.0397C163.646 29.6289 163.468 28.1298 163.468 26.6308C163.468 25.3081 163.646 23.9854 164.179 22.6627C164.623 21.4282 165.246 20.2818 166.134 19.2237C167.023 18.2537 168.09 17.3719 169.334 16.7546C170.668 16.1374 172.09 15.7847 173.512 15.7847C174.579 15.7847 175.556 15.8728 176.623 16.2256C177.423 16.4901 178.134 16.931 178.756 17.4601C179.112 17.7246 179.379 18.0773 179.556 18.5182C179.734 18.7828 179.823 19.1355 179.823 19.4882C179.912 20.4582 179.201 21.2518 178.223 21.2518C178.134 21.2518 178.134 21.2518 178.045 21.2518C177.69 21.2518 177.334 21.1636 177.068 20.9873C176.712 20.8109 176.445 20.4582 176.179 20.1937C176.09 20.0173 175.912 19.8409 175.823 19.7528C175.645 19.5764 175.468 19.4 175.201 19.2237C174.934 19.0473 174.668 18.871 174.401 18.7828C174.045 18.6946 173.69 18.6064 173.334 18.6064C172.534 18.6064 171.823 18.7828 171.201 19.2237C170.579 19.6646 170.045 20.2818 169.69 20.8991C169.245 21.6927 168.89 22.5745 168.712 23.4563C168.534 24.4263 168.357 25.4844 168.357 26.5426C168.357 27.6007 168.445 28.5707 168.712 29.6289C168.89 30.5107 169.245 31.3925 169.69 32.1861C170.045 32.8915 170.579 33.4206 171.201 33.9497C171.823 34.3906 172.623 34.5669 173.334 34.5669C173.779 34.5669 174.223 34.4788 174.579 34.3906C174.934 34.2142 175.379 34.0379 175.645 33.8615C176.001 33.6851 176.268 33.5088 176.534 33.2442C176.712 33.0679 176.89 32.8915 177.068 32.8033C177.69 32.0979 178.223 31.7452 178.667 31.7452C179.112 31.7452 179.467 31.9215 179.734 32.1861C180.09 32.4506 180.267 32.8033 180.267 33.1561C180.267 33.7733 180.001 34.3906 179.379 34.9196Z" fill="black" stroke="#181716" stroke-width="0.25" stroke-miterlimit="10"/>
<path d="M201.334 36.5068C201.156 36.6832 200.978 36.7713 200.8 36.8595C200.622 36.9477 200.356 37.0359 200.089 37.0359C199.822 37.0359 199.556 37.0359 199.289 37.0359C199.022 37.0359 198.756 37.0359 198.4 37.0359C198.134 37.0359 197.867 36.9477 197.6 36.8595C197.334 36.7713 197.156 36.595 196.978 36.4186C196.8 36.1541 196.622 35.8895 196.534 35.5368L195.111 31.8333C195.111 31.7451 195.023 31.5687 194.934 31.4806C194.756 31.3924 194.578 31.3924 194.4 31.3924H188.178C188 31.3924 187.823 31.3924 187.645 31.4806C187.467 31.5687 187.289 31.7451 187.2 32.0096L185.423 35.625C185.156 36.595 184.178 37.2122 183.201 37.0359C182.756 37.0359 182.401 36.9477 182.134 36.595C181.956 36.3304 181.778 35.9777 181.778 35.625C181.778 35.1841 181.867 34.8314 182.045 34.4787L190.578 17.46C190.667 17.2836 190.756 17.1073 190.845 16.9309C190.934 16.7546 191.023 16.5782 191.2 16.49C191.289 16.3137 191.467 16.2255 191.645 16.1373C191.823 16.0491 192.089 15.9609 192.267 15.9609C192.534 15.9609 192.8 15.9609 192.978 16.1373C193.156 16.2255 193.334 16.4018 193.511 16.5782C193.689 16.7546 193.778 16.9309 193.867 17.1073C193.956 17.2836 194.045 17.5482 194.134 17.7245L201.422 34.9196C201.511 35.0959 201.511 35.2723 201.6 35.4486C201.6 35.625 201.6 35.7132 201.6 35.8895C201.6 36.1541 201.511 36.3304 201.334 36.5068ZM193.689 28.8352C193.689 28.747 193.689 28.5706 193.689 28.4824C193.689 28.3061 193.6 28.2179 193.511 28.0415C193.423 27.9534 193.423 27.8652 193.423 27.6888L191.645 23.1035H191.556L189.245 27.6888C189.067 28.0415 188.889 28.3061 188.8 28.6588C188.8 28.8352 188.889 28.9233 189.067 28.9233H193.423C193.6 29.0115 193.689 28.9233 193.689 28.8352Z" fill="black" stroke="#181716" stroke-width="0.25" stroke-miterlimit="10"/>
<path d="M215.467 18.9591C215.022 19.2236 214.489 19.4 213.956 19.3118H209.956C209.778 19.3118 209.6 19.4 209.6 19.6645L208.978 35.2723C208.978 35.625 208.889 35.9777 208.711 36.2423C208.533 36.4186 208.356 36.6832 208.089 36.7713C207.911 36.8595 207.645 36.9477 207.378 36.9477C207.2 36.9477 206.933 36.9477 206.756 36.9477C206.133 36.9477 205.689 36.7713 205.422 36.5068C205.156 36.0659 204.978 35.625 205.067 35.0959V19.7527C205.067 19.6645 205.067 19.5763 204.978 19.4C204.978 19.3118 204.889 19.3118 204.711 19.3118H200.711C200.178 19.3118 199.734 19.2236 199.289 18.9591C198.934 18.7827 198.756 18.3418 198.756 17.9009C198.756 17.46 198.934 17.1073 199.2 16.8428C199.645 16.49 200.178 16.4019 200.711 16.4019H214.044C214.578 16.4019 215.111 16.49 215.467 16.8428C215.822 17.1073 216 17.46 216 17.9009C215.911 18.3418 215.733 18.6945 215.467 18.9591Z" fill="black" stroke="#181716" stroke-width="0.25" stroke-miterlimit="10"/>
</svg>
