<svg width="74" height="115" viewBox="0 0 74 115" fill="none" xmlns="http://www.w3.org/2000/svg">
<path d="M49.6981 2.22911C42.8017 -1.82118 37.1094 1.46285 37.1094 9.45397V23.2469C37.1094 24.2321 37.7662 25.4362 38.6419 25.8741C39.5177 26.4214 40.1745 25.9835 40.1745 24.9983V11.2055C40.1745 5.18475 44.4437 2.77644 49.6981 5.84153C54.9526 8.79714 59.1124 16.1315 59.1124 22.1522V35.9451C59.1124 36.9303 59.7691 38.1344 60.6449 38.5723C61.5206 39.1196 62.1774 38.6817 62.1774 37.6965V23.9036C62.1774 15.9125 56.5946 6.16994 49.6981 2.22911Z" fill="#FFEF98"/>
<path d="M28.2425 13.8328L28.133 74.4777L22.1123 84.9866L22.2217 24.2322L28.2425 13.8328Z" fill="#F78F1E"/>
<path d="M22.2219 24.2322L22.1124 84.9866L4.05029 88.4895L4.15973 27.8446L22.2219 24.2322Z" fill="#EC891D"/>
<path d="M69.9498 37.8061L69.7309 98.5605L28.1333 74.4777L28.2427 13.8328L69.9498 37.8061Z" fill="#EC891D"/>
<path d="M73.9998 38.3535L73.7808 99.1079L53.4199 103.049L53.6389 42.4038L73.9998 38.3535Z" fill="#F39C3D"/>
<path d="M46.852 54.2261L46.6331 114.871L0 87.942L0.109441 27.2971L46.852 54.2261Z" fill="#F78F1E"/>
<path d="M53.6392 42.4036L53.4203 103.048L46.6333 114.871L46.8522 54.226L53.6392 42.4036Z" fill="#EC891D"/>
<path d="M73.9997 38.3534L53.6388 42.2943L46.8518 54.2262L0.21875 27.2972L20.5797 23.3564L27.3666 11.5339L73.9997 38.3534ZM45.8666 51.8179L51.8873 41.3091L69.9494 37.8061L28.2424 13.7233L22.2217 24.2322L4.15955 27.7351L45.8666 51.8179Z" fill="#EC891D"/>
<path d="M46.6333 114.871L73.7812 99.1079L53.4203 96.8091L46.6333 114.871Z" fill="#FF9A2C"/>
<path d="M22.3314 17.6637C15.435 13.6134 9.74268 16.8974 9.74268 24.8885V38.6814C9.74268 39.6666 10.3995 40.8708 11.2752 41.3086C12.151 41.856 12.8078 41.4181 12.8078 40.4329V26.64C12.8078 20.6193 17.077 18.211 22.3314 21.2761C27.5859 24.2317 31.7457 31.566 31.7457 37.5867V51.3796C31.7457 52.3648 32.4024 53.569 33.2782 54.0068C34.1539 54.5542 34.8107 54.1163 34.8107 53.1311V39.3382C34.8107 31.3471 29.2279 21.6045 22.3314 17.6637Z" fill="#FFEF98"/>
</svg>
