<svg width="48" height="48" viewBox="0 0 48 48" fill="none" xmlns="http://www.w3.org/2000/svg">
<path d="M23.9878 4C20.0322 4 16.1654 5.17298 12.8764 7.37061C9.58741 9.56824 7.02396 12.6918 5.51021 16.3463C3.99646 20.0009 3.60039 24.0222 4.3721 27.9018C5.1438 31.7814 7.04862 35.3451 9.84567 38.1421C12.6427 40.9392 16.2064 42.844 20.086 43.6157C23.9656 44.3874 27.9869 43.9913 31.6415 42.4776C35.296 40.9638 38.4196 38.4004 40.6172 35.1114C42.8148 31.8224 43.9878 27.9556 43.9878 24C43.9878 21.3736 43.4705 18.7728 42.4654 16.3463C41.4603 13.9198 39.9871 11.715 38.1299 9.85786C36.2728 8.00069 34.068 6.5275 31.6415 5.52241C29.215 4.51732 26.6142 4 23.9878 4ZM30.3478 34.304C30.2732 34.4908 30.1594 34.6596 30.0142 34.7988C29.8689 34.938 29.6956 35.0446 29.5057 35.1113C29.3159 35.1779 29.114 35.2032 28.9136 35.1854C28.7132 35.1676 28.5189 35.1071 28.3438 35.008L22.9138 30.788L19.4298 34.004C19.3489 34.0637 19.2544 34.1021 19.1548 34.1158C19.0552 34.1294 18.9537 34.1178 18.8598 34.082L19.5278 28.104L19.5478 28.122L19.5618 28.004C19.5618 28.004 29.3318 19.108 29.7298 18.73C30.1338 18.352 29.9998 18.27 29.9998 18.27C30.0238 17.81 29.2778 18.27 29.2778 18.27L16.3318 26.598L10.9418 24.762C10.9418 24.762 10.1138 24.466 10.0358 23.812C9.9538 23.164 10.9678 22.812 10.9678 22.812L32.4018 14.296C32.4018 14.296 34.1638 13.512 34.1638 14.812L30.3478 34.304Z" fill="#008DC9"/>
<path d="M30.348 34.3041C30.2733 34.491 30.1596 34.6597 30.0143 34.7989C29.8691 34.9381 29.6957 35.0447 29.5059 35.1114C29.3161 35.1781 29.1142 35.2033 28.9138 35.1855C28.7133 35.1677 28.5191 35.1072 28.344 35.0081L22.914 30.7881L19.43 34.0041C19.3491 34.0638 19.2545 34.1023 19.1549 34.1159C19.0553 34.1295 18.9539 34.1179 18.86 34.0821L19.528 28.1041L19.548 28.1221L19.562 28.0041C19.562 28.0041 29.332 19.1081 29.73 18.7301C30.134 18.3521 30 18.2701 30 18.2701C30.024 17.8101 29.278 18.2701 29.278 18.2701L16.332 26.5981L10.942 24.7621C10.942 24.7621 10.114 24.4661 10.036 23.8121C9.95397 23.1641 10.968 22.8121 10.968 22.8121L32.402 14.2961C32.402 14.2961 34.164 13.5121 34.164 14.8121L30.348 34.3041Z" fill="white"/>
</svg>
