<svg width="48" height="48" viewBox="0 0 48 48" fill="none" xmlns="http://www.w3.org/2000/svg">
<circle cx="24" cy="24" r="20" fill="#804B9D"/>
<path d="M31.7837 22.659C31.8098 19.414 29.1324 16.4387 25.8157 16.0276L25.5982 15.995C25.4319 15.962 25.2631 15.9431 25.0936 15.9385C24.4128 15.9385 24.2323 16.43 24.1844 16.7236C24.1573 16.8456 24.1549 16.9717 24.1773 17.0946C24.1997 17.2175 24.2465 17.3347 24.3149 17.4392C24.5411 17.7546 24.937 17.8089 25.2545 17.8568C25.348 17.8698 25.4372 17.8807 25.509 17.9003C28.4908 18.5854 29.4957 19.6663 29.985 22.7178C29.9981 22.7939 30.0024 22.8852 30.0068 22.9831C30.0285 23.3463 30.0742 24.1054 30.8659 24.1054C30.9311 24.1054 31.0007 24.101 31.0747 24.088C31.812 23.9727 31.788 23.2789 31.7772 22.9461C31.7717 22.8658 31.7717 22.7851 31.7772 22.7047C31.7796 22.6903 31.781 22.6758 31.7815 22.6612L31.7837 22.659Z" fill="white"/>
<path d="M24.9025 14.8356C24.9895 14.8422 25.0765 14.8487 25.1439 14.8596C30.0375 15.6382 32.2908 18.0306 32.915 23.1243C32.9258 23.2113 32.9258 23.3157 32.928 23.4288C32.9345 23.8269 32.9476 24.6533 33.8089 24.6707H33.835C33.9532 24.677 34.0714 24.658 34.1817 24.6148C34.292 24.5717 34.3918 24.5055 34.4744 24.4206C34.7419 24.1313 34.7245 23.7029 34.7093 23.3549C34.7049 23.2722 34.7006 23.1918 34.7028 23.1222C34.7637 17.9132 30.3964 13.1892 25.3549 13.0152L25.294 13.0174C25.2745 13.0203 25.2549 13.0217 25.2353 13.0217C25.1852 13.0217 25.1222 13.0174 25.0569 13.013C24.9701 13.0051 24.8831 13.0008 24.7959 13C23.9934 13 23.8411 13.5872 23.8215 13.9396C23.778 14.7508 24.5371 14.8096 24.9025 14.8356ZM32.6779 29.7057C32.5732 29.6237 32.4695 29.5403 32.3669 29.4556C31.8318 29.0119 31.262 28.603 30.7139 28.2072C30.5992 28.1247 30.4847 28.0421 30.3703 27.9592C29.6656 27.4503 29.0327 27.2002 28.4346 27.2002C27.6299 27.2002 26.9274 27.6613 26.3466 28.5682C26.09 28.9684 25.7768 29.1642 25.394 29.1642C25.1268 29.1546 24.8648 29.0871 24.6263 28.9662C22.3535 27.9005 20.7288 26.2693 19.8001 24.1161C19.352 23.0721 19.4956 22.3936 20.2873 21.839C20.7353 21.5258 21.5705 20.9407 21.5118 19.8206C21.4465 18.5483 18.7257 14.7204 17.5795 14.2854C17.0905 14.1009 16.5514 14.0993 16.0614 14.281C14.7455 14.7378 13.7994 15.5425 13.3275 16.6017C12.8707 17.6283 12.8925 18.831 13.3884 20.0838C14.8173 23.7072 16.8248 26.8652 19.3607 29.4708C21.8402 32.022 24.8894 34.11 28.4215 35.6803C28.7391 35.8216 29.074 35.8978 29.3176 35.9543L29.5242 36.0065C29.5525 36.0146 29.5818 36.019 29.6112 36.0196H29.6395C31.3012 36.0196 33.2956 34.4536 33.9089 32.6658C34.4461 31.0998 33.4652 30.3277 32.6779 29.7079V29.7057ZM25.6376 18.9746C25.3549 18.9811 24.7611 18.9963 24.5523 19.6183C24.4566 19.9098 24.4675 20.1621 24.5871 20.3687C24.7633 20.6732 25.1026 20.7667 25.4092 20.8167C26.5228 21.0016 27.097 21.6389 27.2101 22.8177C27.2645 23.3701 27.6233 23.7529 28.0844 23.7529C28.1193 23.7536 28.1541 23.7522 28.1888 23.7486C28.7434 23.679 29.0109 23.2592 28.987 22.498C28.9957 21.7019 28.5934 20.8015 27.9083 20.0838C27.221 19.3617 26.3923 18.955 25.6376 18.9746Z" fill="white"/>
</svg>
